<?xml version="1.0" standalone="no"?>
<!DOCTYPE svg PUBLIC "-//W3C//DTD SVG 1.1//EN" "http://www.w3.org/Graphics/SVG/1.1/DTD/svg11.dtd" >
<svg xmlns="http://www.w3.org/2000/svg">
<metadata>
This is a custom SVG webfont generated by Font Squirrel.
Copyright   : Copyright  2009 by Hallmark Cards Inc All rights reserved
Foundry     : Hallmark Cards Inc
Foundry URL : httpwwwascendercorpcom
</metadata>
<defs>
<font id="CluffHMKRegular" horiz-adv-x="1300" >
<font-face units-per-em="2048" ascent="1638" descent="-410" />
<missing-glyph horiz-adv-x="592" />
<glyph unicode=" "  horiz-adv-x="592" />
<glyph unicode="&#x09;" horiz-adv-x="592" />
<glyph unicode="&#xa0;" horiz-adv-x="592" />
<glyph unicode="!" horiz-adv-x="594" d="M348 109q0 14 3 31.5t11 34t23 30t39 20.5q18 6 33 2.5t25.5 -13t16 -24t5.5 -30.5q0 -15 -2.5 -34.5t-10.5 -37.5t-24 -31.5t-43 -15.5q-12 -2 -25.5 0.5t-25 10.5t-18.5 22t-7 35zM451 485q13 96 27 208.5t26 228t21 227t14 205.5q1 24 18.5 34t37.5 8t35.5 -15.5 t14.5 -37.5q-8 -98 -19.5 -210.5t-25 -228t-28 -227.5t-29.5 -208q-4 -21 -20 -29.5t-33.5 -6t-29.5 15.5t-9 36z" />
<glyph unicode="&#x22;" horiz-adv-x="592" d="M283 993q4 18 11 44.5t15 54t15 52.5t10 40q-14 2 -16.5 15.5t-0.5 27.5q5 19 10 35.5t11.5 32.5t14.5 32.5t18 36.5q7 14 23.5 18.5t33 0.5t28 -15t7.5 -29q-7 -33 -19.5 -80.5t-27.5 -98.5t-30.5 -100t-27.5 -85q-5 -13 -18.5 -17t-27.5 -1t-23.5 12.5t-5.5 23.5z M575 993q5 18 12.5 44.5t15 54t14.5 52.5t10 40q-14 2 -16 15.5t1 27.5q4 19 8.5 35t10.5 32t14 32.5t19 37.5q7 14 23.5 18.5t33 0.5t28.5 -15t9 -29q-8 -33 -20.5 -80t-27.5 -98t-30.5 -100t-28.5 -86q-5 -13 -18.5 -17t-27.5 -1t-24 12.5t-6 23.5z" />
<glyph unicode="#" horiz-adv-x="1169" d="M73 362.5q0 14.5 10.5 26.5t31.5 12q55 0 113.5 4.5t129.5 10.5q32 103 63.5 202.5t65.5 186.5q-25 -3 -58 -7t-66.5 -7.5t-64.5 -5t-52 0.5q-21 3 -31.5 15.5t-10.5 27t10.5 26.5t31.5 13q66 2 138 9.5t132 19.5q17 45 36.5 95.5t40 100.5t39.5 96t34 83q8 19 23.5 24 t29 0t21 -18t-0.5 -31q-18 -46 -30.5 -77.5t-22.5 -55.5t-17.5 -44t-15.5 -42t-18.5 -49.5t-24.5 -67.5q29 3 67.5 9t79.5 12.5t81 12.5t73 11q15 38 30.5 79.5t31.5 83t32 81t31 72.5q9 19 24 24t28.5 0t21 -18t0.5 -31q-12 -31 -25.5 -65.5t-27 -70.5t-27 -71.5 t-24.5 -68.5q54 5 108 5.5t100 0.5q21 0 31.5 -12t10.5 -26.5t-10.5 -26.5t-31.5 -13q-17 -1 -45 -1.5t-61 -2t-69 -4.5t-68 -8q-15 -40 -32.5 -90t-35.5 -103.5t-35 -105.5t-30 -97q27 5 58.5 9.5t64.5 7.5t65 5t59 1q21 -1 31.5 -13t10.5 -27t-10.5 -28t-31.5 -14 q-26 -2 -58.5 -3t-68 -4t-72 -7.5t-69.5 -12.5q-29 -96 -57.5 -204.5t-48.5 -210.5q-3 -18 -17 -25t-29 -3.5t-25.5 15.5t-6.5 31q7 40 18 91t24 104t26 103.5t24 88.5q-59 -15 -140 -29t-161 -22q-23 -68 -43.5 -158.5t-42.5 -195.5q-3 -18 -16.5 -25t-28 -3.5t-25 15.5 t-8.5 31q5 38 13.5 80.5t19 85.5t22 84.5t23.5 77.5q-59 -10 -115.5 -11t-107.5 1q-21 1 -31.5 13.5t-10.5 27zM451 426q65 8 142.5 22t156.5 29q13 45 29 97t33 103.5t33.5 100.5t31.5 90q-31 -5 -69 -11t-78 -12.5t-79 -14t-71 -13.5q-17 -39 -35 -89.5t-35 -104 t-32.5 -105t-26.5 -92.5z" />
<glyph unicode="$" horiz-adv-x="1079" d="M106 224.5q4 36.5 23 70.5q12 21 28.5 25t31 -2.5t23 -21t3.5 -32.5q-13 -41 -7 -68t27 -43t53.5 -22t73.5 -6q31 0 70.5 4t73.5 12q22 119 36 241t29 243q-29 12 -62.5 28t-64.5 31t-56.5 27.5t-37.5 17.5q-47 21 -72 53t-26.5 70.5t20.5 81.5t70 86q25 24 62 49 t78 48.5t83.5 42t79.5 28.5q5 31 8 68t6 65q2 21 18 30t35 7t34 -14.5t14 -34.5q-2 -23 -3.5 -45t-6.5 -43q37 8 78.5 12t70.5 4q26 0 55 -3t52 -17q7 -5 11.5 -17t6 -26.5t-1.5 -29t-10 -24.5q-17 -21 -27.5 -25.5t-32.5 -2.5q-8 1 -18 4t-19 9.5t-16 16t-8 23.5 q-16 -1 -35.5 -1.5t-40.5 -2.5t-42 -6t-40 -13q-5 -46 -13 -104.5t-16 -119t-16 -117.5t-14 -99q88 -35 165 -80t130 -94q69 -65 48.5 -146.5t-140.5 -166.5q-41 -28 -82 -48.5t-79 -35.5t-71.5 -25.5t-58.5 -17.5q-2 -22 -5 -50t-6.5 -57.5t-8 -56.5t-9.5 -47 q-6 -21 -22 -31t-32.5 -8.5t-28 13t-9.5 34.5q2 20 5.5 44.5t7 49.5t6.5 48t5 40q-43 -9 -76.5 -11.5t-64.5 -2.5q-37 0 -75 7.5t-70 22t-56 36t-32 48.5q-13 41 -9 77.5zM352.5 871q0.5 -21 13.5 -37t35 -25q19 -9 42 -20t47.5 -23t49 -23.5t46.5 -19.5q8 58 14 104.5 t11.5 89.5t11.5 85t14 90q-29 -9 -61.5 -22.5t-64 -30t-60 -35.5t-48.5 -37q-27 -26 -39 -50.5t-11.5 -45.5zM602 164q65 20 120 45t103 57q77 51 87.5 100.5t-35.5 88.5q-23 18 -50.5 36.5t-57 35.5t-59 31.5t-55.5 25.5q-14 -96 -26.5 -204t-26.5 -216z" />
<glyph unicode="%" horiz-adv-x="1425" d="M211 745q-8 90 13.5 167.5t55.5 138.5t71.5 103t62.5 60q34 26 75 17q11 26 33 36.5t45 12.5q30 3 61.5 -11t57 -42.5t41 -71.5t14.5 -98q-2 -69 -18 -132.5t-43 -119t-61 -101.5t-71.5 -79t-75.5 -52t-71 -20q-31 -2 -63 7t-59 31t-45.5 59.5t-22.5 94.5zM297 754 q1 -24 7 -45.5t17.5 -37.5t29.5 -25.5t42 -10.5q31 -2 62.5 16t60.5 49t54 73.5t43 90t28.5 98.5t9.5 99q0 16 -3.5 33t-8.5 32t-12 27.5t-13 20.5q-5 5 -12 10.5t-15.5 9.5t-16 5.5t-11.5 -1.5q6 -9 7 -20.5t1 -20.5q0 -12 -9 -21.5t-21 -13t-24 1t-17 21.5q-3 6 -8 7 t-11.5 -1.5t-13.5 -7.5t-12 -10q-12 -12 -38.5 -43t-53.5 -79.5t-46.5 -113.5t-15.5 -143zM420 -25q49 110 105.5 228.5t118 238t127 236t131.5 223.5t132 200t129 165q6 9 20 13t25 1q22 -5 32.5 -13.5t16.5 -19.5q8 -14 7 -27.5t-9 -21.5t-20 -10.5t-23 0.5 q-54 -58 -117.5 -148t-130 -198t-133.5 -229t-128.5 -240t-115 -231t-93.5 -203q-7 -16 -22.5 -19t-29.5 3.5t-22 20t0 31.5zM825 137q-4 59 5 113t26.5 101.5t40.5 88t47.5 72.5t47 55t38.5 35q19 14 37.5 19t40.5 2q9 24 31 34.5t45 12.5q31 2 63 -12t57.5 -42.5t41 -72 t14.5 -99.5q-2 -103 -37 -193.5t-86.5 -158.5t-110.5 -108t-110 -41q-29 -2 -61 6.5t-59 31t-46.5 60.5t-24.5 96zM911 141q1 -23 7.5 -44t18.5 -37t30.5 -26t44.5 -11q31 -1 62 17t59.5 49.5t53.5 73.5t43 90t28 98.5t10 99.5q0 34 -13 65.5t-24 46.5q-5 6 -13 11.5 t-16.5 9.5t-16 5t-11.5 -3q8 -10 9 -19.5t1 -17.5q0 -12 -9 -22.5t-21 -14.5t-24 0.5t-18 22.5q-5 12 -19.5 6t-25.5 -19q-12 -12 -39 -43.5t-54 -80t-46.5 -113.5t-16.5 -144z" />
<glyph unicode="&#x26;" horiz-adv-x="1159" d="M113 373q1 58 19.5 106.5t47.5 88.5t66.5 71.5t77 56.5t79 43t72.5 31q-34 12 -68.5 31.5t-56.5 38.5q-49 42 -68.5 86.5t-8 87t54.5 80.5t118 67q54 21 109.5 34.5t106 20t92.5 7t69 -3.5q21 -4 34.5 -9t22.5 -11.5t15 -14.5t12 -19q10 -15 8 -34.5t-18 -30.5 q-15 -17 -41 -18.5t-43 18.5q-4 4 -6 8.5t-5 7.5t-8.5 5.5t-15.5 4.5q-18 1 -51.5 -0.5t-72.5 -7.5t-79 -15.5t-71 -23.5q-51 -22 -79 -42t-37 -39.5t-1 -40t29 -44.5q14 -16 36 -31.5t49 -27.5t56.5 -20t58.5 -9q25 -2 39.5 -13.5t18 -26.5t-5.5 -29.5t-31 -22.5 q-27 -8 -69 -22t-89 -35t-94 -49.5t-85 -65.5t-62.5 -84t-24.5 -104q-1 -56 18.5 -109.5t61 -93.5t105 -61t151.5 -11q91 11 164.5 46t125.5 81t78.5 96.5t22.5 92.5q-2 31 -16.5 57t-34.5 45.5t-43 32.5t-43 20q-31 -11 -67 -20t-68 -14q-34 -6 -54.5 2.5t-27.5 25t1.5 37 t33.5 37.5q13 9 37 15.5t51.5 9t54.5 2t45 -4.5q41 11 87.5 21.5t92 19.5t85.5 15.5t69 9.5q24 2 38.5 -8t18.5 -23.5t-5 -26.5t-32 -16q-59 -9 -115.5 -21t-107.5 -28q20 -11 38.5 -29.5t32.5 -42.5t22.5 -52t8.5 -56q0 -49 -18 -98t-50.5 -93.5t-77.5 -83.5t-98.5 -69 t-113.5 -49.5t-123 -24.5q-115 -9 -200.5 18t-141.5 78.5t-82.5 122.5t-23.5 150z" />
<glyph unicode="'" horiz-adv-x="377" d="M305 993q4 18 11.5 44.5t15.5 54t15 52.5t11 40q-14 2 -15.5 15.5t1.5 27.5q9 38 20.5 67t32.5 70q6 13 23.5 18t35 2t29 -13.5t7.5 -27.5q-8 -32 -21.5 -81.5t-28.5 -102.5t-30 -102.5t-25 -81.5q-5 -13 -19.5 -17t-29.5 -1t-25.5 12.5t-7.5 23.5z" />
<glyph unicode="(" horiz-adv-x="979" d="M373 612q6 174 54.5 333.5t124 296t171.5 245t197 182.5q17 13 33 10.5t26 -12.5t11 -24t-11 -23q-106 -76 -198 -182t-162 -235t-113.5 -278t-52.5 -311q-6 -107 4 -208t32 -194t56 -175t76 -150q20 -6 33 -16t24 -21q8 -12 12.5 -28.5t-0.5 -32.5q-3 -15 -14.5 -22 t-26.5 -7t-31 8t-28 23q-51 64 -93.5 149t-71.5 189t-43 225t-9 258z" />
<glyph unicode=")" horiz-adv-x="979" d="M101 -201q-1 14 12 23q105 76 196 182t160.5 235t113 277.5t52.5 310.5q6 107 -3.5 208.5t-32 194.5t-56.5 174.5t-76 149.5q-19 7 -32.5 16.5t-24.5 20.5q-7 13 -11.5 29t0.5 33q4 15 15.5 22t26 7t30.5 -8t29 -23q51 -64 92.5 -149t71 -189t43.5 -225.5t10 -258.5 q-6 -174 -51.5 -328t-119 -286.5t-170 -243.5t-206.5 -198q-17 -14 -33 -11.5t-25.5 13t-10.5 24.5z" />
<glyph unicode="*" horiz-adv-x="834" d="M181.5 913q-4.5 14 1 29.5t24.5 24.5q75 29 153 63.5t146 77.5q-24 15 -54.5 33t-62 39t-62 44t-55.5 46q-14 9 -12.5 24t11 27t25.5 17t32 -7q26 -19 55 -40.5t58 -42t57 -39t51 -31.5q17 77 34.5 152.5t39.5 150.5q5 20 20.5 26t30.5 2t25 -16.5t6 -30.5 q-22 -75 -39 -151t-31 -142q32 18 55 32t42.5 25t37 20.5t38.5 20t48.5 23t65.5 29.5q18 6 31.5 -2t19 -22t0 -29t-24.5 -23q-55 -22 -91.5 -39.5t-65.5 -33.5t-55.5 -32t-61.5 -36q66 -47 124 -88.5t93 -73.5q14 -14 13 -30t-10.5 -26.5t-25.5 -13t-32 10.5q-54 43 -112 84 t-114 79q-8 -47 -14 -86.5t-11.5 -76.5t-11.5 -73.5t-12 -78.5q-4 -21 -17 -29.5t-27 -6t-24 13t-8 26.5q5 39 9 74.5t9 71t11 72.5t14 79q-57 -29 -132 -66.5t-165 -72.5q-18 -7 -31.5 0.5t-18 21.5z" />
<glyph unicode="+" horiz-adv-x="870" d="M64 418q0 18 12 33.5t35 15.5h313q9 49 17 92.5t15.5 85t15 82t17.5 82.5q5 22 23 30t37 4.5t32 -17.5t9 -35q-16 -69 -30 -150t-28 -172h316q23 0 34.5 -15.5t11.5 -33.5t-11.5 -33.5t-34.5 -15.5q-32 0 -74.5 0.5t-88 0.5t-89 0.5t-76.5 0.5q-8 -48 -15 -91.5 t-12 -84.5t-9 -80.5t-7 -79.5q-2 -23 -18.5 -34.5t-35 -10.5t-32.5 15t-12 42q4 46 7.5 83.5t7.5 74.5t9.5 76t12.5 88q-29 0 -67 -0.5t-79.5 -0.5t-82.5 -0.5t-76 -0.5q-23 0 -35 15.5t-12 33.5z" />
<glyph unicode="," horiz-adv-x="453" d="M118 -143.5q0 10.5 15 16.5q21 9 40.5 31t33 49t18 54.5t-5.5 47.5q-25 -17 -49.5 -9.5t-40.5 30.5q-12 23 -5 53.5t26 54.5q7 11 20.5 15.5t28.5 5t30 -2.5t27 -7q26 -14 38.5 -42t14 -64t-7.5 -76t-26.5 -77t-42.5 -66.5t-56 -45.5q-13 -5 -27 -0.5t-22.5 13.5 t-8.5 19.5z" />
<glyph unicode="-" horiz-adv-x="899" d="M389 503.5q-6 19.5 3.5 37.5t41.5 22q52 6 109.5 6.5t112.5 -2t104.5 -6t85.5 -6.5q23 -2 33 -18.5t8.5 -35t-14 -32.5t-35.5 -12q-36 4 -82.5 7.5t-97.5 5t-102.5 -0.5t-98.5 -10q-25 -4 -43.5 10.5t-24.5 34z" />
<glyph unicode="." horiz-adv-x="453" d="M129 98q0 15 2.5 33t11 36t23.5 33.5t41 26.5q14 0 28 -4t25 -12.5t18 -20.5t7 -28q0 -14 -1.5 -32t-9 -35t-23.5 -31t-44 -19q-9 0 -22.5 1t-26 6t-21 15.5t-8.5 30.5z" />
<glyph unicode="/" horiz-adv-x="883" d="M-41 -92.5q-7 14.5 2 31.5q73 132 153 268t163 270.5t167.5 265.5t166.5 254t160 236t149 211q23 32 50 39t46 -4q8 -5 15.5 -14.5t12 -20.5t4.5 -22.5t-6 -20.5t-23.5 -15t-33.5 0q-46 -56 -104 -136.5t-123.5 -176.5t-135 -203.5t-139 -217.5t-136 -219t-125.5 -208 t-107.5 -184t-81.5 -147q-8 -15 -23.5 -16t-29.5 7t-21 22.5z" />
<glyph unicode="0" d="M182 515q9 97 35 184.5t65.5 164t84 139.5t90.5 110t86 75q21 15 45.5 28t48 22t45.5 12t39 -3q13 24 33.5 39t44.5 23t49.5 11t48.5 3q64 0 127 -26t114.5 -76t86 -123.5t43.5 -167.5q8 -97 -4 -202.5t-43 -207.5t-79.5 -196t-113 -168.5t-144.5 -123.5t-173 -63 q-92 -12 -179 3.5t-158.5 58.5t-121 114t-64.5 170q-15 103 -6 200zM288 556.5q-19 -117.5 1 -230.5q13 -74 54 -126.5t97.5 -84.5t122 -44t127.5 -5q60 7 122 41.5t118 91.5t104 133.5t81 168t48 194.5t6 212q-8 91 -37.5 153t-70 100t-84.5 54.5t-80 16.5q-32 0 -48.5 -4 t-27.5 -21q10 -8 18 -16t13 -16q13 -20 8.5 -38.5t-18 -29t-31.5 -10.5t-33 18q-18 21 -39 30.5t-43.5 9t-46 -10t-45.5 -25.5q-74 -54 -139.5 -142.5t-111.5 -195t-65 -224z" />
<glyph unicode="1" horiz-adv-x="760" d="M70 21.5q0 18.5 11 34.5t34 16t49.5 1t53 3t52.5 4.5t47 5.5q15 122 41.5 256t59 276.5t69 292.5t72.5 303q6 28 -8 33.5t-43 -8.5q-20 -8 -48.5 -17.5t-68.5 -15.5q-27 -5 -43 9.5t-20.5 33.5t4 36.5t30.5 19.5q13 3 27 3.5t27 2.5q37 9 79.5 22t77.5 23q16 5 34 3 t32 -11t22.5 -26t6.5 -42q-4 -40 -19.5 -110.5t-38 -163.5t-49.5 -203.5t-53 -229t-49.5 -240t-38.5 -237.5q46 2 102 13t109 20q22 4 36 -8.5t16 -30.5t-10 -36t-42 -23q-62 -11 -129.5 -21t-135 -18t-131.5 -13t-118 -6q-23 -1 -35 14.5t-12 34z" />
<glyph unicode="2" horiz-adv-x="1253" d="M158.5 135.5q11.5 40.5 56.5 89.5q25 28 66.5 69.5t92.5 92t109 107t117 115t115 116t103.5 109t83.5 95.5t54 75q33 56 41.5 93t-6 60.5t-51.5 34.5t-94 16q-41 4 -106 -1t-137.5 -20.5t-143.5 -43t-125 -68.5q-18 -15 -37 -7.5t-31 24.5t-13.5 38t15.5 33 q35 27 81.5 49t99 39.5t108 30t108 20t99.5 10t82 -0.5q103 -9 167 -38t89.5 -75.5t13 -108t-62.5 -133.5q-41 -59 -101 -126.5t-130 -139t-144.5 -143.5t-144.5 -140t-130 -130t-100 -113q-20 -26 -7 -41t50 -17q72 -3 169.5 2.5t203.5 17.5t211 29.5t192 37.5q22 4 36 -8 t18 -30t-3.5 -35.5t-29.5 -23.5q-92 -21 -198 -38t-213 -28.5t-207 -17.5t-179 -6q-69 0 -115 16t-65 44.5t-7.5 69z" />
<glyph unicode="3" horiz-adv-x="1245" d="M176 1210.5q3 17.5 35 28.5q86 31 191 55.5t214.5 40t215 21t192.5 0.5q60 -3 95.5 -20t46.5 -44t-3 -61.5t-53 -73.5q-82 -80 -191.5 -160t-230.5 -157q67 3 125 -3.5t106 -19.5t86.5 -30.5t67.5 -36.5q46 -30 77 -74t40 -97.5t-6.5 -114t-63.5 -124.5 q-39 -52 -103.5 -106.5t-146 -99.5t-175.5 -75t-191 -34q-58 -2 -107.5 11.5t-83.5 48.5t-48.5 93.5t-2.5 147.5q3 21 20.5 32t36 9.5t32 -16t7.5 -42.5q-9 -48 -2.5 -85.5t25 -62.5t46 -38t60.5 -12q82 2 164 27t155 64.5t132.5 89.5t95.5 101q57 81 53.5 154t-75.5 123 q-56 37 -115.5 55t-120.5 23.5t-121.5 1t-117.5 -10.5q-28 -20 -55 -32.5t-58 -18.5q-26 -5 -47 3t-28.5 24t2.5 37t48 41q19 11 54 19.5t75 21.5q80 49 152 98t134 95.5t112.5 88t87.5 76.5q32 29 25.5 53t-54.5 27q-75 2 -167.5 -4.5t-189 -22t-191 -38.5t-175.5 -54 q-19 -7 -41 1.5t-35 23.5t-10 32.5z" />
<glyph unicode="4" d="M128 568.5q9 56.5 60 127.5q29 40 80 94.5t114.5 115.5t135 125.5t142 124t134.5 110.5t113 86q34 25 65 36t54.5 8t37 -19t13.5 -44q0 -55 -1 -102t-3 -95.5t-5 -103t-8 -124t-11.5 -158.5t-14.5 -207q25 3 55 3.5t61 -0.5t59.5 -2.5t50.5 -2.5q21 -1 30.5 -16t8 -33 t-14.5 -32.5t-35 -13.5q-20 2 -47 3.5t-56.5 2.5t-59.5 -0.5t-56 -5.5q-2 -24 -5 -59t-6.5 -75.5t-7.5 -84t-8.5 -84.5t-9.5 -76.5t-10 -60.5q-5 -26 -21 -37t-35 -7t-36 22.5t-25 52.5q-6 31 2.5 60t36.5 50q6 39 11 80t9 80t6 74.5t1 64.5q-74 -5 -127.5 -10t-95 -10 t-76 -10t-70 -9t-76 -7t-94.5 -5q-91 -2 -154 18t-91.5 59.5t-19.5 96zM231.5 576q-5.5 -28 10.5 -48t54.5 -30.5t102.5 -8.5q81 3 159 11.5t148.5 17t130 15t101.5 6.5q8 120 13.5 208.5t9.5 153.5t6 110t3 76.5t1 53.5v41q0 20 -1 40.5t-1 49.5q-34 -23 -88.5 -63.5 t-119.5 -93t-136 -113.5t-138.5 -123.5t-126 -124t-98.5 -115.5q-25 -35 -30.5 -63z" />
<glyph unicode="5" horiz-adv-x="1245" d="M194.5 112.5q5.5 19.5 20.5 28.5t34 6.5t34 -20.5q24 -29 68 -49t112 -25q84 -5 173.5 18t170 68.5t146.5 110.5t104 145q35 75 32 138.5t-43 111t-114.5 75t-181.5 30.5q-50 1 -106 -4t-110 -14t-102.5 -20.5t-85.5 -23.5q-29 -9 -53 -3.5t-36 22.5t-10 44t25 62 q22 32 44 75t43 89t40.5 92t34.5 84q-20 -2 -49 -3t-49 -1q-24 0 -40 15t-19.5 33.5t7.5 34t40 17.5l32 3l40 2q19 2 37 4l30 2q11 21 16 40.5t10 34.5q7 23 23 32t32.5 6t29 -17t12.5 -35q0 -14 -2.5 -28.5t-5.5 -26.5q68 4 140.5 9.5t153.5 12.5t172.5 15t198.5 18 q25 2 38.5 -12.5t15.5 -34t-8.5 -36.5t-33.5 -19q-110 -11 -213.5 -20t-195 -16t-169 -12.5t-134.5 -9.5q-14 -35 -34 -84.5t-42 -100.5t-45 -97.5t-43 -77.5q38 6 67 13.5t66 14t92 11.5t146 6q68 0 135 -11.5t123.5 -36t100 -63t65.5 -92.5t18.5 -123t-39.5 -155 q-29 -69 -94 -141.5t-156 -132.5t-204 -98.5t-238 -37.5q-31 1 -71 8t-78 20.5t-68.5 34t-42.5 48.5q-12 27 -6.5 46.5z" />
<glyph unicode="6" horiz-adv-x="1163" d="M211 399q10 94 45.5 190t86.5 187.5t112.5 175t125 153.5t124 122.5t108.5 81.5q26 16 55.5 29.5t58 19t54.5 0.5t45 -27q15 -16 14.5 -33.5t-11.5 -29.5t-30.5 -16.5t-42.5 5.5q-9 4 -22 2.5t-27 -6.5t-27.5 -11.5t-23.5 -12.5q-42 -27 -91.5 -71.5t-101 -101 t-102.5 -123.5t-95 -139.5t-78.5 -148t-53.5 -149.5q44 33 98 59t111.5 43t115.5 23.5t109 1.5q71 -8 131.5 -33t105.5 -63t72 -86.5t32 -104t-14.5 -114.5t-68.5 -118q-27 -33 -65 -60.5t-84 -47t-99 -30.5t-110 -11q-98 0 -186 31t-152.5 88.5t-97.5 139.5t-21 185z M305 348q-2 -62 26 -116.5t77.5 -95t115.5 -64t140 -21.5q59 1 103 11t76.5 25t55.5 33t39 36q43 46 56 104t-7 112t-75.5 95.5t-149.5 54.5q-60 8 -127 -3t-129.5 -36t-115.5 -60t-85 -75z" />
<glyph unicode="7" horiz-adv-x="1100" d="M89 1196q-4 19 7 37.5t43 23.5q87 13 176.5 23t176 17.5t167.5 12.5t152 8t128.5 3.5t96.5 -0.5q42 -1 72 -13.5t43 -35t8 -54t-33 -69.5q-35 -49 -79.5 -111.5t-94.5 -134.5t-101.5 -151t-99 -159.5t-88 -161t-68.5 -155.5t-40.5 -143t-3.5 -123q4 -22 -9 -34t-31 -13 t-35.5 8.5t-22.5 30.5q-13 56 -0.5 129t42.5 156t74.5 172t95 176.5t103 170t100.5 152.5t86 123t60 82q21 28 9.5 44t-54.5 16q-62 0 -155 -4t-202.5 -12.5t-228.5 -22t-233 -31.5q-24 -4 -40.5 10t-20.5 33z" />
<glyph unicode="8" horiz-adv-x="1343" d="M162 328q-2 60 13 114.5t40.5 102t58.5 87.5t69 72t72 55.5t66 37.5q-43 7 -82.5 26t-69.5 48t-48 66.5t-17 80.5q1 44 20.5 91.5t51.5 92.5t75.5 85t94.5 69q30 18 63.5 25.5t65 7t57.5 -7t41 -17.5q23 22 51.5 35t71.5 10q63 -4 120.5 -36.5t102 -83t72.5 -113 t33 -125.5q3 -44 -8 -78.5t-32.5 -62t-52 -49.5t-65.5 -40q48 -18 99 -51t93.5 -79.5t71 -106t33.5 -129.5q4 -76 -19.5 -140t-68 -116.5t-106 -93.5t-133.5 -70t-151 -45.5t-157 -20.5q-140 -6 -239 15t-162 67t-93 115.5t-32 161.5zM264 334q5 -147 107.5 -211.5 t304.5 -54.5q131 6 233 40.5t171.5 87.5t104.5 119.5t32 137.5q-3 50 -32.5 103t-79 97.5t-114.5 75t-139 35.5q-26 -2 -54 -8t-57 -6q-26 0 -53 3.5t-72 6.5q-48 -12 -109.5 -47.5t-116.5 -90t-91.5 -127.5t-34.5 -161zM362 1018q-2 -26 14.5 -54t50.5 -52t85 -39.5 t119 -14.5q28 8 61 12t56 4q24 0 62.5 -1t78.5 -9q50 13 87 34.5t61 46.5t36 52t12 52q0 21 -9.5 49.5t-26 58.5t-38.5 58.5t-47.5 50.5t-53 34.5t-54.5 10.5q-34 -2 -65 -19t-54 -55q-14 -22 -33 -26t-33.5 5t-20 28.5t8.5 43.5q-17 9 -45.5 10t-54.5 -10q-29 -12 -62 -41 t-62 -67.5t-49.5 -81t-23.5 -80.5z" />
<glyph unicode="9" horiz-adv-x="1169" d="M129 801q3 48 16 97t36.5 97t56.5 94t77 87q60 55 129.5 96t141 68t142 40t132.5 13q25 0 57 -4t62 -14.5t54.5 -28.5t33.5 -46q6 -19 1 -35t-16.5 -27.5t-27 -17.5t-29 -6t-23 7.5t-9.5 23.5q0 19 -10.5 30t-27 16t-36 6.5t-37.5 2.5q-50 2 -110 -9t-122.5 -35t-123 -61 t-111.5 -87q-38 -37 -65.5 -77.5t-46.5 -81t-29.5 -79.5t-14.5 -73q-6 -58 1 -94.5t28.5 -54t59 -17t92.5 15.5q67 19 135.5 52.5t132 73.5t120 82t101.5 79q-2 31 4.5 65t22.5 62q14 24 36.5 35t44 8.5t37 -19t15.5 -47.5q1 -12 -1 -28.5t-8 -35t-18 -38.5t-31 -39 q0 -54 -4 -127t-10 -155t-14.5 -169.5t-17.5 -171.5t-18 -159.5t-17 -134.5q-3 -20 -14 -33t-26 -16t-33 4t-36 26q-22 23 -32.5 47t-10.5 60q0 11 6.5 21t16.5 16.5t22.5 8t24.5 -4.5q20 133 33 236t20.5 187t10.5 155t3 140q-42 -35 -96.5 -73.5t-115.5 -74.5t-127 -67.5 t-130 -52.5q-69 -22 -128 -21t-100.5 29.5t-63 86t-15.5 147.5z" />
<glyph unicode=":" horiz-adv-x="453" d="M133 98q0 15 2.5 33t10.5 36t23.5 33.5t41.5 26.5q13 0 26.5 -4t24.5 -12.5t18 -20.5t7 -28q0 -14 -1.5 -32t-9 -35t-22.5 -31t-43 -19q-9 0 -22.5 1t-26 6t-21 15.5t-8.5 30.5zM182 698q0 13 2.5 30.5t10.5 35.5t23.5 35t41.5 28q28 0 52 -17.5t24 -49.5q0 -14 -1.5 -32 t-9 -35t-22.5 -31t-43 -19q-10 0 -23.5 1t-25.5 6t-20.5 16t-8.5 32z" />
<glyph unicode=";" horiz-adv-x="453" d="M110.5 -143.5q-0.5 10.5 14.5 16.5q20 9 39.5 31t33 49t18 54.5t-4.5 47.5q-26 -17 -50.5 -9.5t-41.5 30.5q-13 23 -4.5 53.5t26.5 54.5q8 11 21 15.5t28 5t29.5 -2.5t26.5 -7q26 -14 38.5 -42t14 -64.5t-7.5 -76.5t-26 -76.5t-42 -66.5t-55 -45q-12 -5 -26 -0.5 t-22.5 13.5t-9 19.5zM219 698q0 13 2.5 30.5t11 35.5t23.5 35t41 28q28 0 52 -17.5t24 -49.5q0 -14 -1.5 -32t-9 -35t-22.5 -31t-43 -19q-9 0 -22.5 1t-26 6t-21 16t-8.5 32z" />
<glyph unicode="&#x3c;" horiz-adv-x="936" d="M121.5 442.5q-0.5 27.5 16.5 52t50 40.5q75 37 167 76.5t188.5 79.5t191 78.5t174.5 74.5q22 10 39.5 -0.5t24 -29t0 -39t-32.5 -32.5q-82 -36 -178 -73.5t-189.5 -74.5t-178 -72t-142.5 -66q-26 -14 -26 -22t22 -23q85 -59 194 -113.5t230 -105.5q36 -15 74.5 -30 t74 -28t65.5 -23t50 -16q24 -6 32.5 -24t5 -36t-17 -30.5t-34.5 -7.5q-57 12 -130 40t-151 62q-60 27 -120.5 56.5t-118 60t-110.5 60.5t-97 59q-37 23 -55 51t-18.5 55.5z" />
<glyph unicode="=" horiz-adv-x="895" d="M174 421q-7 18 1.5 35t39.5 21q35 4 81 5.5t96.5 1t102 -2t98 -3.5t85 -4.5t61.5 -4.5q24 -2 36 -17.5t12 -32t-12 -29.5t-36 -11t-60.5 4.5t-81 4.5t-93.5 3t-96 1t-89.5 -2.5t-74.5 -8.5q-25 -4 -44 9t-26 31zM174 636q-7 18 1.5 35t39.5 21q35 4 81 5.5t96.5 1t102 -2 t98 -3.5t85 -4.5t61.5 -4.5q24 -2 36 -17.5t12 -32t-12 -29.5t-36 -11t-60.5 4.5t-81 4.5t-93.5 3t-96 1t-89.5 -3t-74.5 -8q-25 -5 -44 8.5t-26 31.5z" />
<glyph unicode="&#x3e;" horiz-adv-x="936" d="M130.5 36q-3.5 18 5 36t32.5 24q20 6 50 16t65 23t73.5 28t75.5 30q121 51 230 105.5t194 113.5q22 15 22 23t-28 22q-58 31 -141.5 66t-177 72t-189.5 74.5t-178 73.5q-26 12 -33 32.5t0 39t24 29t38 0.5q81 -36 176 -74.5t191.5 -78.5t188.5 -79.5t166 -76.5 q33 -16 50.5 -40.5t17 -52t-18.5 -55.5t-55 -51q-44 -29 -97 -59t-110.5 -60.5t-118.5 -60t-122 -56.5q-79 -34 -150.5 -62t-128.5 -40q-21 -5 -34.5 7.5t-17 30.5z" />
<glyph unicode="?" horiz-adv-x="1073" d="M357 1231.5q1 18.5 14 34.5q22 29 70.5 49t107 32.5t117.5 17t102 3.5t93 -6t100 -15.5t97 -28.5t85.5 -45t65.5 -65t36 -88q16 -82 -10 -148.5t-77.5 -120t-119.5 -97t-136 -80.5t-127 -68.5t-93 -62.5q-5 -3 -13 -12.5t-13 -22t-5.5 -26.5t8.5 -25q10 -13 15 -18 t7.5 -6.5t3.5 -2.5t3 -6q9 -21 4.5 -35t-16.5 -21.5t-29 -6.5t-33 10q-27 15 -45.5 40.5t-29.5 53.5q-10 29 1.5 57t32.5 51q20 23 57.5 47.5t85 50.5t101 54t104.5 59.5t95.5 66.5t75.5 75t43.5 85.5t-0.5 96.5q-9 35 -32 60.5t-54 43t-68 29t-75 18t-75 9.5t-67 4 q-38 1 -81.5 -1t-89 -10.5t-90 -24.5t-83.5 -44q-18 -13 -33 -9t-23 17t-7 31.5zM567 90q0 14 3 32t11 36t23.5 34.5t40.5 28.5q14 0 27.5 -4.5t24.5 -13.5t17.5 -22t6.5 -29q0 -13 -1.5 -31t-9 -35.5t-22.5 -31.5t-43 -19q-9 0 -22.5 1t-25.5 6t-21 16t-9 32z" />
<glyph unicode="@" horiz-adv-x="1606" d="M184 475q-8 84 3 172.5t38.5 174t71 163.5t100.5 143q52 61 116 117t142.5 99.5t175 69.5t213.5 26q60 0 133 -16t146 -51.5t138 -90.5t108.5 -133t59 -180t-10.5 -230q-25 -118 -87 -205t-147 -147q-23 -17 -49 -29.5t-52.5 -20t-51 -9.5t-45.5 2t-39.5 13.5t-32.5 26.5 t-23 44t-10 65q-1 26 2.5 58.5t9 66t13.5 66.5t16 61q-33 -49 -73 -100t-86 -99.5t-97 -93.5t-106 -82q-65 -43 -118.5 -41t-86.5 40.5t-41 108.5t16 163q19 71 51 133t74 114q74 92 154.5 164.5t181.5 110.5q13 5 31 6t35 -1.5t31.5 -7t21.5 -9.5q47 -44 53 -82 q1 -16 -10.5 -30t-27 -21.5t-30 -5.5t-18.5 18q-3 8 -6 15t-6 13q-11 10 -29 12t-35 -1q-30 -9 -63 -30t-68.5 -52t-72 -71.5t-72.5 -88.5q-28 -38 -57.5 -89t-46.5 -114q-15 -59 -13.5 -101.5t15.5 -66t39 -27t57 14.5q34 21 72.5 54t79 74.5t82 90.5t80.5 102t75 109 t66 111q12 20 35 24.5t38 -6.5q12 -8 16 -18.5t3.5 -22.5t-4.5 -24.5t-7 -22.5q-38 -112 -57.5 -219.5t-19.5 -194.5q0 -63 32 -69q25 -5 62.5 6.5t68.5 40.5q67 60 113 130t66 157q24 106 12.5 191.5t-47.5 152.5t-90 115t-115.5 79.5t-124 46.5t-115.5 15 q-87 0 -167.5 -22.5t-151.5 -61t-131 -88t-107 -103.5q-53 -62 -92.5 -133.5t-65 -149t-36 -158t-4.5 -161.5q7 -99 56 -174.5t122 -125.5t159.5 -73t168.5 -18q79 4 154.5 16.5t149 36t146 59t145.5 85.5q33 21 53.5 17t28 -20.5t2 -38t-25.5 -34.5q-76 -51 -147.5 -88.5 t-148.5 -63t-164 -40.5t-193 -19q-131 -7 -238.5 28t-186 101t-125.5 157t-57 195z" />
<glyph unicode="A" horiz-adv-x="1425" d="M66 -86q-4 8 -5 17q0 9 5 18q30 63 64 131t67 133.5t63 125t53 105.5q-23 5 -39.5 15.5t-31.5 21.5q-13 11 -18.5 24.5t-3 25.5t13.5 21t30 11q22 2 52.5 4t62.5 4q34 66 76.5 145.5t87 163.5t88.5 166.5t81.5 155t65.5 128.5t41 87q6 12 25 23q20 10 42 12q6 1 11 1 q17 1 31 -5q20 -8 26 -31q22 -77 45 -178t46 -212t45 -224.5t43 -216.5q46 0 96.5 3t101.5 9q23 3 32 -9q6 -8 6 -19q0 -6 -1 -10q-4 -16 -18.5 -31t-38.5 -19q-20 -3 -39 -5.5t-38.5 -4t-40.5 -2.5t-46 -2q10 -55 20.5 -127.5t20.5 -148t19 -147.5t16 -126q4 -26 -11 -39 t-34.5 -14.5t-37.5 9.5t-20 34q-5 62 -14 132.5t-20 143.5t-22.5 145.5t-21.5 137.5q-54 -3 -126.5 -6t-153.5 -5t-165 -3.5t-161 -2.5q-28 -60 -62 -130.5t-70.5 -144.5t-74.5 -149t-73 -145q-12 -24 -31 -28q-6 -1 -11 -1q-13 0 -24 6q-16 9 -24 27zM487 573q53 0 118 1 t135.5 2.5t143.5 4t142 5.5q-12 65 -26 140t-28.5 150t-29 146t-26 129t-20 97.5t-11.5 51.5q-51 -75 -100.5 -165t-98.5 -185t-98.5 -192t-100.5 -185z" />
<glyph unicode="B" horiz-adv-x="1477" d="M212 51q2 17 15 29t35 14q14 91 31.5 205.5t36 237t37.5 246.5t35.5 232.5t29 195t19.5 135.5q-16 -2 -33 -5.5t-31 -9.5q-6 -16 -18.5 -28t-27.5 -18t-30 -5t-26 10q-16 12 -26.5 30.5t-10.5 37.5t12.5 34.5t42.5 22.5q59 13 125 20t134 9l76 2q30 0 61 -1q68 -2 131 -7 t118.5 -13.5t98.5 -19.5q91 -23 149 -61t79 -86q12 -26 12 -55q0 -23 -8 -47q-17 -54 -75 -107q-40 -37 -102 -81t-134 -87.5t-148.5 -82.5t-145.5 -67q52 8 98 11.5t88 3.5q11 0 22 1q32 1 62 -1q42 -2 84 -5q86 -5 155.5 -26.5t118.5 -57.5t77.5 -83t33.5 -103 q1 -11 1 -23q0 -46 -16 -95q-20 -62 -65 -126q-32 -45 -81 -87t-109 -78.5t-127.5 -66.5t-137 -51t-138.5 -33q-64 -11 -121 -11h-9q-46 0 -96 5.5t-97 16t-89 25t-72 33.5q-26 16 -36 35q-9 16 -8 31v5zM348 47q54 -23 118 -40q58 -15 124 -15h16q52 1 111.5 10.5t121 26 t122.5 40.5t115 55.5t99.5 70t75.5 84.5q48 69 56 133q2 14 2 27q1 48 -23 87q-30 50 -95 83t-163 42q-65 6 -138 6t-150 -5t-154.5 -15t-149.5 -23q-9 -58 -17 -106t-14.5 -91t-13 -84t-13.5 -84.5t-14 -93t-16 -108.5zM455 725q67 21 149 59.5t166 85t164 97.5t145 98 q52 37 72 75q14 26 14 51q0 11 -3 21q-9 34 -45 61.5t-97 45.5q-39 12 -96.5 20.5t-122 13t-130 4.5t-120.5 -5q-9 -67 -21.5 -149t-25.5 -167t-26 -166t-23 -145z" />
<glyph unicode="C" horiz-adv-x="1343" d="M231 465q1 100 21.5 210.5t57 217.5t87.5 205.5t113 175.5q50 63 99.5 103.5t95 64t83.5 31.5q31 6 56 6h12q61 -6 96 -35q6 14 9 22t4.5 13.5t2.5 10t5 11.5q12 21 28 27q9 4 18 3q6 1 12 -1q14 -4 22.5 -19t5.5 -38q-5 -32 -12.5 -67t-18.5 -67q12 -53 12 -116v-5 q0 -66 -11 -136t-31.5 -137.5t-49.5 -125.5q-12 -24 -28.5 -34.5t-31 -8t-24.5 17t-10 40.5v14q0 51 6 111q8 68 19 136t25 130t26 106q-9 26 -36 35.5t-56 9.5q-35 0 -67 -13.5t-61.5 -35t-57 -49.5t-52.5 -57q-28 -32 -58.5 -79.5t-59.5 -106t-55 -126t-46 -140.5 t-32 -150t-13 -154v-19q0 -33 2 -70q4 -48 16.5 -96.5t36 -93.5t63.5 -80q40 -34 100 -54q57 -19 136 -19h8q90 1 168.5 24t143.5 64t116.5 97t87.5 122q10 19 27.5 23t33.5 -3q17 -6 25 -22q4 -8 4 -17q0 -8 -4 -18q-33 -81 -96 -149.5t-144 -118t-173 -77.5t-182 -28 q-125 0 -215.5 36t-148.5 104t-85 168q-25 93 -25 210v17z" />
<glyph unicode="D" horiz-adv-x="1608" d="M150 96q4 27 20 40t34 13t32 -12t14 -35q0 -18 15 -36.5t44 -18.5q4 108 15 228t26 242t33 241t36 224t34 192t28 145q-45 -6 -93.5 -9t-82.5 -5q-24 -2 -35.5 13.5t-11.5 34.5t11.5 35.5t35.5 16.5q13 0 64.5 5t128.5 10q76 5 172 8q44 1 90 1q52 1 106 -1 q100 -4 199 -16t182 -38q105 -32 177.5 -85t113.5 -119t52 -144q4 -30 5 -62q0 -48 -11 -98q-17 -82 -62.5 -165.5t-116.5 -161.5q-89 -98 -193.5 -184t-227 -160t-265.5 -135t-309 -107q-9 -21 -24.5 -31t-31.5 -10t-30 9t-19 26q-32 2 -62 13t-53 30q-22 20 -34 46 q-8 18 -8 40q0 10 2 20zM412 49q70 15 150 43.5t162.5 67t166 87t161.5 103.5t147.5 116.5t125.5 127.5q89 104 129 206q30 78 31 148q0 22 -3 43q-12 90 -76.5 164t-182.5 125q-39 17 -92 28t-113 17t-122 8q-42 1 -82 1h-38q-58 -1 -107 -4t-81 -7q-13 -62 -30 -151 t-35.5 -195.5t-37 -226t-34 -240.5t-26 -238.5t-13.5 -222.5z" />
<glyph unicode="E" d="M225 626q3 20 18 38.5t38 21.5q15 3 32.5 4.5t34.5 9.5q8 45 19.5 102.5t25 119.5t29 124.5t31.5 116.5q-17 -5 -30 -9t-24 -9q-16 -8 -30.5 1.5t-21.5 26.5t-2.5 35.5t26.5 28.5q11 6 26.5 12.5t31.5 12.5t31.5 11t26.5 9l16 48q9 27 18.5 54t18 52t15.5 43q9 21 27 25 q6 1 11 1q11 -1 22 -5q16 -8 25.5 -23.5t0.5 -36.5q-12 -29 -26.5 -65t-20.5 -64q57 16 126.5 32t146.5 30.5t160 25.5t167 18q25 1 38.5 -14t15.5 -33.5t-8.5 -34.5t-33.5 -16q-51 0 -129 -10t-166.5 -26.5t-179 -38.5t-168.5 -46q-18 -57 -34.5 -120t-31.5 -127t-27 -125 t-19 -113q84 18 183 41.5t204 52t211.5 62t205.5 71.5q20 8 36.5 -2.5t23.5 -27.5q4 -10 4 -20q0 -8 -2 -16q-5 -18 -27 -26q-112 -42 -228.5 -79.5t-228.5 -68t-213.5 -54.5t-183.5 -40q-23 -136 -31.5 -246t-11.5 -200q-2 -36 5.5 -61.5t21.5 -42t33 -24.5t41 -9h15 q32 1 74 7q52 8 111 23.5t120 37t116 44.5t100 46.5t72 43.5q19 15 38.5 10.5t31.5 -17.5t13.5 -30t-14.5 -28q-29 -21 -74 -46.5t-100.5 -51.5t-119 -51t-129 -44.5t-130.5 -32.5t-124 -14h-10q-98 0 -142 58q-46 62 -47 182v22q0 34 2 76q3 54 8.5 111t12.5 112.5 t14 102.5q-19 -5 -33.5 -8t-28.5 -3q-28 1 -38 17q-8 13 -8 28q0 3 1 8z" />
<glyph unicode="F" horiz-adv-x="1327" d="M167 657q-1 16 13 28q14 13 41 13q28 0 62.5 2t69.5 4.5t67.5 6t56.5 6.5q8 32 18 76.5t21 93.5t22.5 99.5t21.5 95.5t18.5 80.5t13.5 54.5q-25 -8 -49.5 -16t-44.5 -13q-28 -8 -49.5 3t-29.5 29.5t2 38t46 29.5l30 8q18 4 38 9.5t40 10.5t35 9q3 20 8.5 42.5t10.5 39.5 q6 22 24 31t36.5 7.5t32 -12t9.5 -26.5q-2 -11 -4 -27.5t-8 -31.5q57 15 129 32t147 32.5t148 27.5t133 18q17 2 32 2q17 0 30 -2q25 -4 39.5 -14.5t20.5 -25.5t5 -32q-2 -15 -11 -37.5t-18 -37.5q-7 -11 -17.5 -16.5t-21.5 -5.5t-20 5.5t-12 16.5q-7 14 -7 35q0 6 -7.5 12 t-24.5 4q-62 -7 -136.5 -21t-151 -31t-149.5 -34.5t-131 -32.5q-15 -59 -30.5 -126.5t-30.5 -136t-29 -134.5t-26 -121q92 12 186.5 27t183.5 32.5t168 36.5t139 39q28 10 45.5 1t22.5 -26t-2.5 -35t-28.5 -26q-67 -25 -154.5 -47.5t-185.5 -41t-200 -34t-197 -26.5 q-12 -47 -26 -109.5t-26.5 -127t-21.5 -125t-10 -103.5q8 -8 15.5 -18t9.5 -25q6 -25 3 -51t-14 -46q-8 -21 -22 -34q-13 -12 -29 -16l-12 -2q-10 0 -19 4q-15 6 -24 22q-11 18 -13 58v20q0 32 4 72q4 52 13 113.5t21 124t25 122.5t24 110q-24 -3 -57.5 -6t-66.5 -5 t-61.5 -2.5t-42.5 1.5q-31 5 -45 21q-16 17 -15 34z" />
<glyph unicode="G" horiz-adv-x="1468" d="M231 416q4 123 34 237.5t78 219.5t110.5 198.5t131.5 174t141 147t139.5 117t126.5 83.5t102 47q32 11 58 11q11 0 22 -2q33 -7 47 -29q5 -9 8.5 -22t5 -26t1.5 -25.5t-1 -20.5q-3 -18 -14.5 -31.5t-28 -18.5t-37.5 0.5t-43 26.5q-14 12 -26.5 14t-24.5 -2.5t-24 -12 t-25 -13.5q-61 -40 -132.5 -99t-144.5 -135t-142 -168.5t-123.5 -198.5t-90 -225t-41.5 -249q-1 -12 -1 -25q0 -53 11 -107q13 -66 48.5 -117.5t97.5 -82.5q56 -27 137 -27h22q53 3 112.5 21.5t117.5 49t111 71t94 87t66 96.5q26 53 26 103q0 41 -19 73q-20 33 -51 58 t-65.5 42t-61.5 26q-21 -4 -44 -11t-48 -13.5t-52.5 -10.5t-58.5 -2q-48 4 -64 19.5t-12 34t19.5 36t30.5 25.5q10 6 33 13.5t52 12.5t60.5 5.5t58.5 -7.5q49 11 106 22.5t116.5 23.5t118 24t112.5 23q28 6 43 -5.5t17 -28.5v-6q0 -14 -8 -29q-10 -18 -33 -24 q-26 -7 -62 -14.5t-75.5 -15.5t-80.5 -16t-75 -15q21 -14 48.5 -35.5t51.5 -52t40 -69.5q13 -33 13 -72v-15q-5 -65 -34.5 -127.5t-76.5 -119t-108.5 -105t-129.5 -85t-140 -58.5t-139 -25q-21 -1 -42 -1q-89 0 -157 25q-83 31 -136 91.5t-77 147.5q-20 75 -20 164 q0 15 1 30z" />
<glyph unicode="H" horiz-adv-x="1405" d="M196 638q-1 5 0 10q0 14 8 28q12 18 46 24q26 5 57.5 12t63.5 13q5 22 15.5 73t22.5 116.5t25.5 139t24.5 142t18.5 124.5t7.5 87q1 25 19 38.5t39 15.5t38.5 -8.5t16.5 -33.5q-1 -32 -8 -83.5t-17 -114t-23 -130.5t-26 -132t-25.5 -120t-21.5 -94q72 14 150 30.5 t159.5 34.5t165 37.5t164.5 39.5q5 61 9 112.5t7.5 98.5t7 93.5t8 97.5t9.5 111t12 134q0 22 15 30q12 7 27 6h7q18 -2 33 -14.5t15 -33.5q-8 -71 -13.5 -126.5t-9.5 -102t-6.5 -88.5t-5 -86t-4.5 -94.5t-6 -113.5q37 10 63.5 16t58.5 15q22 5 37 -6.5t19 -29.5q1 -6 1 -11 q0 -13 -6 -25q-8 -18 -32 -26q-31 -11 -68 -21t-77 -18q-2 -74 -5.5 -160t-8.5 -174.5t-12 -174t-15 -157.5q-11 -89 -39 -125q-9 -9 -22.5 -12.5t-27.5 -1.5t-27.5 10t-23.5 23q-6 9 -9 22.5t-3.5 28.5t0 29.5t2.5 25.5q3 9 8.5 20.5t12.5 21t14.5 16t15.5 6.5 q11 61 18 135.5t11.5 152.5t7 154t4.5 139q-62 -17 -145 -36t-174 -38.5t-181 -38t-165 -34.5q-6 -26 -15 -62.5t-18.5 -80t-19 -90.5t-17 -93t-12 -88.5t-4.5 -75.5q12 -11 21.5 -19t12.5 -22q8 -30 10 -62q0 -3 1 -6q0 -30 -21 -63q-11 -17 -26 -25t-31 -8t-30 8t-23 23 q-19 29 -25 69q-3 21 -2 43q0 20 2 40q7 56 19 126t25 139t25 129l19 95q-23 -5 -48.5 -11.5t-43.5 -8.5q-21 -3 -36.5 10.5t-19.5 33.5z" />
<glyph unicode="I" horiz-adv-x="868" d="M76 -22q0 3 -1 6q1 14 11 28q12 16 41 21q60 6 123 13t112 20q29 151 60 303t59.5 307.5t54 316t44.5 328.5q-27 -3 -46 -5.5t-35.5 -5t-32.5 -4.5t-37.5 -4.5t-51 -5.5t-72.5 -6q-24 -2 -39.5 12t-18.5 31.5t7.5 32.5t38.5 16q67 3 143.5 12t153 20t149.5 24t133 24 q8 2 14 2q16 0 28 -8q18 -12 23 -30q2 -6 2 -12q-1 -11 -7 -22q-10 -17 -37 -24q-48 -11 -103 -18.5t-108 -18.5q-16 -152 -42 -316.5t-56.5 -328t-62 -318.5t-58.5 -288l231 59q28 8 44 -3t18.5 -29t-10 -36.5t-39.5 -25.5q-30 -8 -73 -17.5t-92.5 -19.5t-104 -20 t-107.5 -19.5t-103 -17t-90 -12.5q-6 -1 -11 -1q-21 0 -34 10q-16 12 -18 30z" />
<glyph unicode="J" d="M202 150q-3 39 -3 79q0 43 3 87q7 85 25 165q6 28 24 36.5t35.5 3t29.5 -22t8 -39.5q-13 -65 -20 -140q-4 -49 -4 -96q0 -26 2 -51q3 -73 17.5 -137.5t42.5 -106.5q25 -40 62 -60q35 -18 75 -18h7q43 2 90 24t92 65q64 61 114.5 143.5t88.5 178.5t65.5 200.5t46.5 210.5 t30.5 208t18 193t9.5 165.5t4 125.5q-50 -9 -107 -20t-113 -20t-108 -15t-92 -6q-23 0 -34.5 14.5t-11.5 32.5t11.5 33.5t34.5 17.5q58 4 119 11t117.5 15t104 16.5t77.5 16.5v33q1 16 12 27t26 14.5t30.5 0t23.5 -16.5q6 -11 7.5 -21t6.5 -22q40 5 87 14t93.5 19.5t89 21 t72.5 18.5q8 2 16 2q14 0 27 -8q18 -11 25 -29q4 -9 4 -19q0 -8 -3 -17q-7 -18 -32 -25q-30 -8 -81 -18t-106.5 -20.5t-107.5 -20t-84 -15.5q-2 -109 -9 -239t-24 -268.5t-46 -280t-74 -272t-108 -245t-148 -198.5q-65 -65 -134 -95q-67 -29 -130 -29h-4q-65 1 -120 32 t-91 90q-34 54 -53.5 125.5t-25.5 151.5z" />
<glyph unicode="K" horiz-adv-x="1386" d="M281 -10q20 168 43.5 318t46.5 290q-16 8 -32 19t-26 22q-8 10 -13 24t-4.5 28.5t7.5 28t25 23.5q15 10 31.5 20.5t37.5 22.5q25 140 53.5 310.5t59.5 382.5q4 29 22 39.5t37 6.5t33 -21t10 -44q-15 -101 -29 -187t-27 -161.5t-25.5 -143t-24.5 -130.5q48 29 109 68 t127.5 88t136 108.5t134.5 130.5t122 153.5t100 176.5q11 22 30 28q9 3 17 3q10 0 18 -4q16 -6 26 -24q4 -8 4 -19t-5 -23q-37 -98 -99 -186.5t-137 -167.5t-158.5 -147.5t-164.5 -125.5t-154 -102.5t-127 -77.5q-2 -16 -2 -25.5t-2 -21.5q67 -29 146.5 -68.5t162 -85.5 t161.5 -98t145 -107t113.5 -111.5t66.5 -111.5q4 -15 6 -31.5t-2 -32.5t-14 -29t-29 -20q-20 -8 -37 1t-27.5 26t-14 37t4.5 35q-55 81 -125.5 145t-157.5 120.5t-192.5 110t-230.5 115.5q-9 -56 -18.5 -126.5t-20 -147.5t-20.5 -158t-19 -158q-3 -21 -19 -29q-13 -7 -26 -7 q-4 1 -8 1q-18 2 -34 14q-12 10 -12 28q0 4 1 8z" />
<glyph unicode="L" horiz-adv-x="1260" d="M231 154q18 89 40.5 188t45.5 202.5t44.5 209.5t38 211t26.5 205.5t10 193.5q0 30 16 45.5t35.5 15.5t35.5 -16.5t16 -50.5q0 -86 -9.5 -184t-25 -202.5t-36.5 -211.5t-43 -209.5t-44 -198t-41 -176.5q-8 -37 6.5 -57.5t65.5 -20.5q47 0 107 3.5t126 9t135 13.5t135 18.5 t126 23t108 27.5q30 9 47.5 6t23.5 -15q3 -7 3 -15q1 -5 -1 -13q-4 -16 -18 -35q-10 -14 -27 -27.5t-37 -22t-40.5 -8.5t-36.5 13q-68 -15 -153.5 -28.5t-181.5 -23.5t-198 -16q-87 -5 -174 -4h-32q-38 0 -59.5 11t-31.5 31q-10 19 -10 45q0 28 8 63z" />
<glyph unicode="M" horiz-adv-x="1808" d="M98 22q-2 6 -2 12q0 16 10 34q22 37 45.5 86.5t48 107t49 121t48 127.5t45.5 127t41 119q15 43 34 99.5t40 119.5t43.5 129.5t43 131t38 123.5t30.5 107q8 29 26.5 45.5t36.5 18.5q3 0 6 1q14 0 25 -10q13 -12 9 -40q-6 -40 -6 -91q1 -4 1 -8q0 -56 6 -131t17.5 -169.5 t26.5 -213.5q10 -77 18 -130t14.5 -89t12 -59.5t11.5 -42.5t12 -37.5t14 -44.5q18 -63 41 -66h2q22 0 55 56q50 88 104 192t105 219q28 61 60.5 132t66.5 146t67.5 153t63.5 153q9 24 31.5 34t45.5 9t41 -12.5t19 -30.5q2 -165 13.5 -339t23.5 -359q6 -84 17 -166.5 t24.5 -156t28 -134t28.5 -100.5q7 -20 22.5 -27.5t31.5 -7.5q19 0 27 -10q9 -11 9 -29q0 -12 -4 -26q-5 -16 -12 -27q-9 -14 -30 -22t-44 -5q-31 3 -54.5 31.5t-39.5 66.5q-16 47 -32 120t-29.5 156.5t-24.5 168t-18 155.5q-9 95 -15.5 171.5t-10.5 143.5t-5.5 128.5 t-1.5 126.5q-16 -45 -41 -104t-53.5 -121.5t-57 -124.5t-51.5 -113q-32 -70 -66 -140t-69 -135.5t-70 -123.5t-67 -105q-31 -44 -61.5 -65t-58 -18t-51.5 31t-42 83q-18 59 -34 123.5t-29.5 128t-23.5 123t-16 108.5q-9 80 -18.5 157.5t-13.5 172.5q-17 -63 -31.5 -113 t-30 -99t-34.5 -104t-44 -127q-34 -95 -69 -193t-72 -192t-76 -181t-80 -161q-14 -26 -34 -30q-6 -1 -12 -1q-14 1 -24 7q-14 10 -20 30z" />
<glyph unicode="N" horiz-adv-x="1477" d="M94 4q27 95 49.5 174t43 155.5t41.5 156t45.5 175t55 213t70.5 269.5q-9 17 -15.5 30t-14.5 27q-15 28 -11.5 48t15.5 30t29.5 10t31.5 -12q5 11 7.5 20t9.5 21q6 24 22 30t32 -2t26.5 -28t5.5 -47q-5 -23 -15 -51t-16 -62q79 -157 151.5 -299.5t139 -268.5t129 -233 t121.5 -192q21 -31 37.5 -34.5t31.5 34.5q26 69 57 168.5t63 216t63.5 243t59.5 250.5t50.5 239t36.5 208q-1 11 -3 21t-2.5 20.5t1 21.5t8.5 23q15 28 30 42q16 15 30 17q3 1 7 0q11 0 19 -6q12 -8 18 -24q14 -24 13 -44q0 -19 -6 -53q-10 -48 -24.5 -117t-33 -153 t-40.5 -180t-46.5 -197t-51.5 -205t-55.5 -203t-58.5 -191.5t-61 -170.5q-13 -34 -37.5 -53.5t-54 -22.5t-59.5 11t-54 47q-36 49 -77 115t-84 142t-88.5 161t-91.5 172.5t-91 176t-88 171.5q-35 -133 -69 -261t-69 -255t-71.5 -255.5t-77.5 -262.5q-8 -28 -24 -38 q-11 -7 -22 -7q-5 -1 -9 1q-15 4 -25 22q-6 11 -6 27q0 9 2 19z" />
<glyph unicode="O" horiz-adv-x="1468" d="M199 438q6 119 31.5 229t60.5 206.5t73 177t70 141.5q-14 5 -17.5 17t-1.5 25.5t8.5 25.5t12.5 18q30 31 83.5 68t124 67.5t154.5 50.5q70 16 144 16q15 0 31 -1q57 -2 123.5 -20t130.5 -55t120 -94.5t93 -138.5q36 -81 48 -188q4 -34 4 -70q0 -79 -17 -172 q-19 -98 -61.5 -193t-103 -181t-135 -160t-156 -129t-167 -88t-168.5 -37q-19 -1 -37 -1q-101 0 -181 28q-94 34 -155 98.5t-89 156.5q-24 76 -24 165q0 19 1 38zM305 438q-1 -15 -1 -29q0 -89 27 -155q31 -76 84.5 -123.5t123.5 -66.5q49 -13 101 -13q22 0 44 2 q67 8 138 36t140 73.5t132.5 107t117 137t93 163t59.5 184.5q17 82 17 153q0 25 -2 47q-8 90 -36.5 159.5t-74 119.5t-97 82.5t-104.5 48.5t-98 18h-12q-31 0 -69 -4q-46 -5 -96 -20t-101.5 -41t-96.5 -66q-29 -42 -61 -97.5t-63 -120.5t-59.5 -138t-51 -149t-37 -154 t-17.5 -154z" />
<glyph unicode="P" horiz-adv-x="1343" d="M231 461v6q1 15 9 27q10 14 34 14q22 0 50.5 3t54.5 11q31 177 57.5 363.5t50.5 365.5q3 22 21 31.5t37 8t33 -14t10 -35.5q-25 -171 -49.5 -344t-55.5 -356q70 18 146 45.5t152 62.5t149.5 75.5t139 84t119 88t89.5 86.5q28 32 44 70q16 39 18 77v6q0 35 -14 69 q-15 37 -48 68.5t-85.5 54.5t-127.5 34q-76 10 -154 10h-27q-92 -2 -182.5 -15t-178.5 -35t-169 -50q-27 -10 -45 0t-24 28.5t1 38.5t31 29q55 22 119.5 39.5t132.5 30t137 20.5q70 8 135 10q36 1 70 1q27 0 52 -1q57 -2 102 -8q104 -15 178.5 -46t122.5 -74q46 -42 68 -93 q19 -46 20 -94v-11q-2 -54 -28 -109.5t-72 -106.5q-64 -72 -163 -145t-218.5 -137.5t-250 -117t-257.5 -84.5q-9 -46 -18 -102t-17 -116t-15.5 -120t-13.5 -113.5t-9.5 -97.5t-4.5 -71q-1 -32 -16.5 -47t-33.5 -15t-33 13.5t-15 36.5v12q0 48 7 118q8 78 19 164t24 168.5 t23 143.5q-20 -6 -39.5 -9t-37.5 1q-25 3 -38.5 19t-15.5 34z" />
<glyph unicode="Q" horiz-adv-x="1608" d="M226 372v33q0 75 16 164q20 109 71 240q46 116 100.5 207t113.5 159t120.5 115.5t120 76.5t112.5 41q49 11 90 11h7q13 -1 29 -6.5t28.5 -14.5t19.5 -20.5t3 -23.5q68 -14 136 -46t126.5 -80t104 -109.5t70.5 -133.5q23 -69 23 -146v-7q-1 -80 -36 -166 q-13 -33 -37.5 -76t-53.5 -86.5t-59.5 -83t-56.5 -66.5q13 -79 22.5 -136.5t17.5 -100.5t15 -75t14.5 -60.5t17 -57.5t21.5 -65q22 5 35 -8t8 -31q-5 -23 -15.5 -41.5t-23.5 -28.5q-12 -8 -26 -8h-4q-17 2 -35 20q-5 6 -10 17.5t-10 25t-9 26.5t-6 22q-11 40 -24 94 t-26 111.5t-25 114t-21 103.5q-158 -150 -322 -223q-127 -56 -261 -56q-40 0 -81 5q-57 7 -109.5 33t-93 72t-66.5 112t-31 153zM337 508q-6 -52 -6 -97q0 -62 11 -113q21 -89 73.5 -141t129.5 -61q30 -3 60 -3q46 0 89 7q71 13 133.5 38t116 59t97 68.5t76 66t54.5 51.5 q-5 32 -11 70.5t-12.5 78t-11.5 78t-8 70.5q-2 24 13.5 37.5t34.5 15.5t35.5 -8.5t15.5 -34.5q-2 -20 2 -49t9 -59.5t10 -58.5t7 -46q47 48 78.5 107t52.5 114q26 68 26 131v7q-2 66 -25 124.5t-63 108t-89.5 88t-105 66t-109 41.5t-101 14t-81.5 -16q-11 -8 -21 -2t-26 6 q-52 -18 -108 -71t-107.5 -123t-95 -148.5t-70.5 -147.5q-58 -147 -73 -268z" />
<glyph unicode="R" horiz-adv-x="1571" d="M199 -61q14 72 31.5 163.5t37.5 193t41 209.5t42 213.5t40 204t35.5 182t28.5 147.5t18 100q-40 -5 -79.5 -10.5t-65.5 -16.5q-23 -8 -41.5 3.5t-25.5 29.5t-0.5 37t32.5 26q63 17 144 25t170.5 8t184.5 -8t186.5 -23.5t175.5 -38.5t153 -53q77 -34 120.5 -81t50.5 -100 q1 -10 1 -20q-1 -44 -25 -90q-30 -56 -100 -108q-61 -45 -149 -89.5t-192 -85.5t-217.5 -77t-224.5 -64q57 -16 130.5 -39t153 -51.5t159.5 -61.5t151 -68t127.5 -70.5t87.5 -69.5q32 9 47.5 3t30.5 -26q6 -8 14 -23t15.5 -33.5t13.5 -38t10 -36.5q1 -5 1 -10q0 -12 -8 -24 q-12 -16 -31.5 -21.5t-41 -0.5t-36.5 28q-41 60 -74 96.5t-64 56.5q-50 33 -112 65t-131 62.5t-141.5 58t-142 51.5t-133 43t-114.5 32q-14 2 -30.5 7.5t-28.5 16.5q-16 -81 -31 -157.5t-30 -155.5t-31.5 -163t-36.5 -179q-5 -25 -23 -32q-9 -4 -18 -4q-8 0 -17 3 q-19 6 -31 23q-9 12 -8 28q0 6 1 13zM440 672q66 15 140.5 35t150.5 44.5t152 52.5t145 57.5t128.5 61t103.5 62.5q52 37 77.5 73t25.5 69t-24.5 62t-72.5 52q-63 30 -147.5 52.5t-176.5 37.5t-186 21q-81 6 -154 6h-22q-13 -73 -30.5 -159t-36.5 -176.5t-38 -180 t-35 -170.5z" />
<glyph unicode="S" d="M146 164v6q0 42 20 94q7 19 23 26t32 3t26 -19.5t5 -40.5q-6 -27 -5 -57.5t17 -56.5t51 -44t97 -22q26 -2 53 -1q61 0 124 8q91 12 179.5 38.5t169.5 68t147 97.5q37 31 53 60t13 57.5t-24 56t-58 54.5q-36 25 -89 54.5t-113.5 60t-123.5 60t-118.5 55t-98.5 45.5t-63 30 q-62 30 -100 73q-39 42 -45 94q-1 10 -1 19q0 43 24 91q29 58 101 120q69 58 153.5 100.5t173.5 72.5t176 47.5t161 25.5q19 2 36 3q14 -1 26 -3q26 -4 45.5 -10.5t30.5 -16t16 -18.5q12 -24 12 -51q0 -30 -17 -50q-20 -17 -50.5 -20.5t-55.5 8.5q-16 9 -26 26.5t-5 34.5h-9 q-39 0 -85 -7q-52 -8 -109.5 -23.5t-116.5 -36t-113.5 -46t-100.5 -53.5t-78 -57q-76 -66 -76 -125v-7q6 -62 98 -111q71 -37 148.5 -73t155.5 -73t155 -76.5t146 -83.5q59 -38 93 -83q36 -44 40 -94q1 -7 0 -13q0 -44 -26 -91q-30 -54 -99 -110q-69 -54 -154 -96.5 t-179 -71.5q-96 -28 -196 -42q-88 -12 -174 -11h-26q-32 0 -68 7.5t-70.5 23t-63 39.5t-45.5 57.5t-19 77.5z" />
<glyph unicode="T" horiz-adv-x="911" d="M211 1278q-1 4 -1 7q0 14 10 28q12 17 44 22q93 13 181.5 23t166.5 24q8 36 12.5 67t12.5 60q4 21 20.5 33t34.5 14h4q15 0 27 -10q14 -10 14 -35q0 -24 -6 -53.5t-12 -60.5q32 4 74.5 9.5t88.5 12.5t93.5 15.5t89.5 17.5q24 5 42 -6q19 -12 23 -28q1 -5 1 -9 q-1 -11 -9 -23q-12 -16 -45 -24q-97 -20 -192 -36t-183 -32q-10 -57 -25 -148.5t-32.5 -203.5t-37 -236.5t-39 -248.5t-38 -240.5t-34.5 -210.5q-4 -21 -22.5 -34t-37.5 -13t-32 14.5t-7 49.5q16 96 35 211.5t38 237.5t37.5 244t35.5 230t31 195.5t24 140.5 q-72 -12 -157.5 -22.5t-170.5 -22.5q-24 -3 -40 10t-19 31z" />
<glyph unicode="U" horiz-adv-x="1440" d="M245 225q5 83 21 175t40.5 188.5t53.5 191.5t59 184t56 166t46.5 138.5t29.5 99.5q0 15 9 24t22 11.5t27.5 -0.5t26 -10.5t17.5 -19t2 -25.5q-25 -85 -60 -188t-72.5 -215.5t-73 -228.5t-61.5 -228q-26 -111 -36 -213q-5 -48 -4 -91q0 -50 6 -94q6 -33 23 -53t42 -27 t56 -0.5t64 27.5q54 33 113.5 91t120 130t118.5 154.5t108 164.5t89.5 159.5t62.5 140.5q13 90 28 164t31.5 133.5t35.5 106t40 81.5t43 48q14 8 26 8q7 0 13 -2q16 -7 24 -31q5 -15 5 -35q0 -13 -2 -27q-7 -51 -23 -114.5t-37 -130t-44 -132t-44 -119.5q-18 -119 -25 -225 q-6 -108 -8 -202q-1 -40 0 -78q0 -51 1 -99q2 -83 2 -155q0 -28 -15.5 -42t-34 -14t-34 14t-15.5 42q0 58 -2 109q-1 31 -1 65v48q1 62 5.5 142t16.5 197q-23 -38 -57 -91.5t-76.5 -115t-91.5 -126.5t-102 -126t-108.5 -114t-109.5 -89q-68 -45 -126 -52q-16 -2 -31 -2 q-40 0 -73 14q-45 19 -73.5 58.5t-36.5 88.5q-8 48 -8 103q0 24 1 48z" />
<glyph unicode="V" horiz-adv-x="1237" d="M283 1311q-1 4 -1 8q0 19 13 32q15 16 35 20.5t38.5 -5t22.5 -35.5q12 -99 23.5 -210t23 -225t22.5 -227t22.5 -217.5t23 -196t24.5 -161.5q6 -30 12 -49.5t14.5 -24.5t22 6t35.5 42q46 63 99 147.5t108 181.5t110.5 201.5t106 208t94.5 200.5t76 178t50 143q17 58 16 89 q0 29 14 43q16 14 34 14q2 0 5 1q16 1 30 -9q17 -11 17 -39q0 -43 -16 -109q-18 -70 -51 -156t-78 -185.5t-98.5 -205t-112 -213t-117.5 -210t-117 -196t-110 -170.5q-37 -56 -75 -78q-31 -18 -58 -18q-6 0 -12 1q-32 5 -56 37t-33 86q-15 91 -29 196t-27 217.5t-25.5 229.5 t-25 231t-25 222.5t-25.5 204.5z" />
<glyph unicode="W" horiz-adv-x="1841" d="M312 1364q4 18 20.5 35t48.5 22q8 2 16 2q26 1 44 -19q23 -24 26 -69q2 -29 2 -63q1 -46 -3 -100q-6 -92 -14.5 -197.5t-18 -218t-13.5 -220.5q-2 -54 -2 -106q0 -53 2 -102q4 -99 22 -178q5 -20 16 -31.5t25.5 -14t30.5 4.5t31 24q41 46 83.5 115.5t84 153t81.5 176 t76 184t67 177t56 155.5q10 27 30.5 40.5t42.5 14t39.5 -12t22.5 -36.5q18 -110 23.5 -230t11.5 -238t19 -228.5t47 -200.5q9 -26 22.5 -41.5t29.5 -18.5t33.5 8.5t35.5 38.5q58 91 112.5 199t104 223t93.5 232t82 224.5t69 201t55 162.5q7 19 26 25q11 3 22 3q8 0 16 -2 q18 -4 30 -19q7 -9 7 -21q0 -8 -3 -17q-27 -78 -63.5 -182.5t-79.5 -222t-91 -241t-97.5 -238t-100 -214.5t-98.5 -170q-36 -53 -78 -77q-41 -24 -80 -24h-2q-40 0 -73 24t-54 69q-26 56 -42.5 127t-26 149t-14.5 158t-7.5 153.5t-5 135.5t-7.5 104q-23 -59 -52.5 -134.5 t-63.5 -159t-72 -169t-78.5 -164.5t-83 -145.5t-84.5 -111.5q-39 -42 -80 -58q-29 -12 -56 -11q-11 -1 -21 1q-36 6 -64 36t-41 81q-22 79 -28 172q-5 67 -5 138q1 27 1 55q2 100 10.5 203.5t18 205.5t16.5 199q6 85 6 161v21q0 12 -6 23t-21 14q-16 4 -24 20q-5 10 -5 22 q0 7 1 13z" />
<glyph unicode="X" horiz-adv-x="1169" d="M150 -57q-3 7 -3 15q0 12 7 24q46 82 103.5 170t118.5 176.5t121.5 174t112.5 163.5q-44 84 -89 176t-88.5 184t-82.5 179.5t-69 162.5q-8 21 3 39q11 19 29 27q11 5 23 5q8 -1 15 -3q20 -6 30 -31q35 -93 70.5 -177t72 -162.5t74.5 -154t78 -151.5q32 43 67 97t71.5 113 t72.5 120t69 119t62 111t51 95q9 18 27 21q5 1 10 1q13 0 25 -6q16 -8 24.5 -25.5t-0.5 -41.5q-18 -43 -47 -97.5t-64.5 -116t-75.5 -127.5t-80.5 -130.5t-79 -124.5t-71.5 -111q79 -143 165 -282.5t188 -290.5q12 3 27.5 1.5t25.5 -9.5q15 -14 21 -37q3 -10 3 -20 q0 -12 -4 -25q-2 -8 -7 -16t-13.5 -13.5t-19.5 -7.5t-23 2q-28 8 -47 25t-39 45q-39 52 -83.5 117t-90 135.5t-90 144t-84.5 143.5q-41 -57 -91.5 -129t-106 -154t-113.5 -171.5t-113 -182.5q-12 -22 -32 -24q-4 -1 -8 0q-15 0 -28 8q-16 10 -24 27z" />
<glyph unicode="Y" horiz-adv-x="1098" d="M190 1290q9 17 27 26t39 7.5t33 -20.5q67 -111 119.5 -231.5t97 -239t84 -228t78.5 -198.5q33 80 73 174.5t83.5 198t89.5 213t91 218t88 213t81 199.5q9 24 28 27q5 1 9 1q14 0 27 -8q17 -9 27 -28q5 -10 5 -20t-4 -19q-39 -88 -75.5 -173t-74 -174.5t-78.5 -187 t-88 -211t-102 -245t-121 -289.5q9 -20 20 -31t25 -22q19 -13 22.5 -29t-3 -30t-19.5 -23.5t-27 -9.5q-15 0 -34.5 11.5t-30.5 22.5q-29 -78 -64.5 -162t-72 -166.5t-73.5 -161t-69 -147.5q-13 -28 -33 -33q-7 -3 -14 -3q-11 0 -21 6q-16 9 -23.5 29t3.5 42 q82 153 158.5 333t151.5 364q-35 50 -67 123t-64.5 159t-65.5 179.5t-69.5 185t-77 175.5t-86.5 150q-7 10 -7 19q0 7 4 14z" />
<glyph unicode="Z" horiz-adv-x="1208" d="M154 125q103 147 215 299t221 296.5t207.5 276.5t173.5 240q10 15 10 24q0 14 -23 14q-8 0 -18 -1q-41 -7 -106 -16.5t-147 -19t-177 -17.5t-197 -13q-25 -1 -38.5 14.5t-14 34.5t12.5 35t40 17q109 3 201.5 11t178 18t168.5 21t173 19q8 1 15 0q25 0 41 -8 q20 -11 28.5 -29t4.5 -40t-17 -41q-45 -67 -109.5 -155.5t-140 -188t-155.5 -205.5t-155.5 -207t-141 -193t-111.5 -164q-17 -26 -8 -39.5t41 -11.5q66 5 144.5 11t159.5 13.5t160.5 16.5t149 20t123.5 23.5t84 26.5q21 10 40 -1q19 -12 29 -30q7 -14 6 -27v-11 q-4 -20 -28 -27q-30 -10 -81 -20t-115 -20t-137.5 -20t-149 -18.5t-149.5 -15.5t-138.5 -12.5t-116.5 -9t-84 -3.5q-20 0 -44.5 4t-40.5 18t-16 38q0 27 32 73z" />
<glyph unicode="[" horiz-adv-x="766" d="M192 -208q2 19 5 38q27 160 56 324t57 324.5t55.5 315.5t53 296.5t47.5 267.5t40 229q2 12 4.5 25.5t7.5 24.5t14 18.5t25 9.5q22 2 56.5 5t71.5 6.5t72.5 7.5t59.5 8q16 2 28.5 -11t12.5 -30q0 -16 -11 -27.5t-34 -13.5q-24 -1 -52.5 -3t-58.5 -5t-58 -6t-50 -5 q-18 -106 -40.5 -233t-48 -270t-53 -299t-56 -318.5t-57.5 -328.5t-56 -330q21 -2 49.5 -1t60 3t63.5 5t60 5q8 1 16.5 -2.5t15 -8.5t11 -12t4.5 -14q0 -20 -12 -33.5t-31 -15.5q-22 -2 -60 -5t-77.5 -6t-73 -5t-47.5 -3q-38 -2 -51.5 9.5t-15.5 25.5q-5 19 -3 38z" />
<glyph unicode="\" horiz-adv-x="883" d="M-34 1421.5q0 9.5 3 19t9 18.5t14 14q21 12 43 4.5t45 -39.5q107 -147 228.5 -325t246.5 -374t248.5 -401t234.5 -406q6 -11 0 -22.5t-17 -18t-23.5 -5.5t-18.5 14q-33 62 -81.5 147t-107 184t-125 207.5t-136 219t-139 218t-135 203.5t-124 177t-104.5 137 q-16 -5 -32.5 0t-23.5 14q-5 5 -5 14.5z" />
<glyph unicode="]" horiz-adv-x="766" d="M63 -242q0 16 12 27.5t34 13.5q24 3 52.5 5.5t58 5t57.5 5t51 5.5q19 106 41.5 234t48 271.5t53.5 299.5t57 318.5t58 328.5t57 330q-19 -1 -49.5 -2t-63.5 -2.5t-65.5 -3.5t-56.5 -5q-7 -1 -15 2t-15 8.5t-11.5 12t-4.5 12.5q0 20 12 32.5t29 14.5q27 1 67.5 3.5t80 4.5 t71.5 4.5t42 4.5q22 4 35.5 -0.5t21 -14t9.5 -24t1 -31.5q-2 -11 -3 -19.5t-3 -17.5q-28 -160 -56.5 -323t-56.5 -323t-55.5 -314t-52.5 -296.5t-47.5 -269.5t-40.5 -233q-2 -12 -4 -25t-7 -24t-14 -19.5t-24 -9.5q-22 -2 -55.5 -5.5t-70.5 -7.5t-73.5 -7t-63.5 -5 q-15 -2 -28 10t-13 29z" />
<glyph unicode="^" horiz-adv-x="860" d="M76 895q11 37 36 84t56 98q49 79 105.5 155.5t107.5 135.5q22 25 49.5 38t55 13.5t52 -11.5t40.5 -36q34 -48 68 -107t68.5 -120.5t68.5 -121.5t67 -112q7 -11 7 -21.5t-4.5 -19.5t-12 -15.5t-15.5 -10.5q-20 -11 -41.5 -1t-33.5 31q-32 54 -67 116t-67 122 q-34 62 -65.5 116t-58.5 91q-8 11 -13 11t-14 -9q-51 -54 -100.5 -124.5t-94.5 -147.5q-14 -24 -27.5 -49t-24.5 -48t-20 -42t-14 -31q-9 -25 -29.5 -32.5t-40 -3t-32 18.5t-6.5 33z" />
<glyph unicode="_" horiz-adv-x="1198" d="M-48 -199q0 14 8.5 25.5t23.5 11.5h1228q15 0 23 -11.5t8 -25.5t-8 -25.5t-23 -11.5h-1224q-18 0 -27 11.5t-9 25.5z" />
<glyph unicode="`" horiz-adv-x="592" d="M250.5 1220q2.5 15 11.5 29t22 22.5t23 2.5q46 -29 86 -56.5t78 -55t75.5 -56t78.5 -59.5q10 -7 6.5 -21t-14 -26t-24.5 -18.5t-26 1.5q-47 31 -83.5 56.5t-71 50t-70.5 50.5t-82 58q-12 7 -9.5 22z" />
<glyph unicode="a" horiz-adv-x="995" d="M52 146q-2 18 -2 37q0 60 20 134q20 75 54 139.5t79 121.5q75 96 159.5 170t190.5 116q14 6 32 6q4 0 7 1q14 0 28 -2q18 -2 33 -7t23 -10q50 -47 53 -86q2 -16 -9.5 -30t-27 -21.5t-30.5 -5.5t-19 18q-2 8 -4.5 16.5t-7.5 14.5q-13 9 -32 12t-36 -2q-32 -9 -67.5 -31 t-72.5 -55t-75 -75.5t-76 -92.5q-31 -40 -62 -93.5t-48 -119.5q-16 -58 -16 -101v-7q2 -45 18 -70q15 -26 42.5 -29t59.5 17q55 33 118.5 93t128 136t124.5 163t108 175q13 20 36 24.5t40 -6.5q12 -8 15.5 -18.5t3 -23t-4.5 -25t-8 -23.5q-40 -118 -61 -230.5t-21 -203.5 q0 -62 30 -74q7 -3 15 -2q26 0 60 29q40 34 87 87t94 114t90.5 124.5t76.5 118.5q12 20 28 23.5t29 -4.5t17 -25l2 -10q0 -13 -8 -27q-37 -68 -86.5 -140t-103 -138.5t-108 -122.5t-102.5 -90q-38 -26 -76 -33q-12 -2 -23 -2q-24 0 -45 10q-31 14 -51 51.5t-22 100.5 q-2 27 1.5 61t10 71t15 74.5t18.5 71.5q-38 -56 -81 -112t-91.5 -108.5t-102.5 -99.5t-112 -85q-65 -42 -118 -42h-5q-55 2 -89.5 41t-42.5 112z" />
<glyph unicode="b" horiz-adv-x="989" d="M182 361q1 47 6 96.5t13 97.5q17 110 59.5 236t102 253.5t132 248.5t150.5 220q14 18 30 35t32.5 30.5t32.5 22.5t30 11q8 1 16 1q20 1 32 -7q18 -10 24 -28.5t2.5 -41t-15.5 -43.5q-14 -28 -48.5 -45.5t-82.5 -24.5q-42 -47 -84.5 -110.5t-83.5 -138t-79 -155.5 t-69 -163.5t-54 -162t-35 -150.5q-15 -88 -19 -141q-3 -37 -2 -63v-22q0 -32 5 -51t8 -41q4 -41 23.5 -69t46.5 -40t59 -8t63 29q33 26 70 72.5t70.5 100.5t59 110.5t34.5 103.5q-51 42 -88.5 91t-59.5 96q-15 34 -14.5 59.5t15.5 39.5q16 14 44 14q1 0 1 1q28 0 67 -18 q12 -5 30 -18.5t36.5 -30.5t33.5 -35t21 -33q7 -13 12.5 -29t9 -34t3.5 -36t-3 -36q22 -21 48.5 -36.5t52.5 -25t49.5 -14t40.5 -4.5q51 0 99 24.5t79 69.5q12 18 29.5 20t31.5 -5.5t19 -23.5q1 -4 1 -9q0 -12 -9 -25q-105 -135 -250 -135q-32 0 -62.5 6.5t-58.5 17.5 t-52 25t-44 29q-16 -45 -41.5 -98.5t-59 -107.5t-74.5 -104t-88 -87q-52 -42 -105 -55q-24 -6 -46 -6q-28 0 -53 9q-46 16 -81 61t-52 120q-7 31 -9 72q-2 29 -2 62v26z" />
<glyph unicode="c" horiz-adv-x="954" d="M150 379q3 72 27.5 141t64 131t90.5 113.5t107 87.5q55 36 113 56q48 16 92 17q9 0 18 -1q43 -3 78 -19t46 -47q19 3 28.5 -4.5t11.5 -21t-3 -31t-14 -33.5q0 -42 -2.5 -81t-13.5 -71q-6 -18 -21.5 -26.5t-31 -7.5t-28.5 11t-14 30v12q0 25 6 53q8 36 17 66v5 q0 63 -70 77q-10 2 -22 2q-27 0 -57 -10q-44 -14 -88 -44t-86.5 -74t-76 -97t-54 -112t-21.5 -120v-9q0 -130 55 -205q57 -77 174 -77q47 0 92.5 11.5t77.5 23.5q67 28 140 77.5t142 110t128.5 127.5t99.5 129q14 22 31 25t30 -6q14 -8 18 -26q1 -5 1 -11q0 -13 -8 -25 q-37 -58 -91.5 -123t-123.5 -128.5t-151 -121.5t-175 -102q-18 -8 -45 -17t-57 -16.5t-58.5 -12.5t-48.5 -5q-167 6 -251 101q-76 87 -77 247q0 15 1 31z" />
<glyph unicode="d" horiz-adv-x="1106" d="M80 254q8 98 48 189t100 170t135 143t155 108t158 66q62 17 116 17q15 0 29 -1q18 80 39.5 163.5t46 160.5t50 142.5t51.5 109.5q15 26 31 35q10 5 18 5q7 0 11 -2q12 -6 18.5 -26t0.5 -53q-14 -97 -38 -213.5t-55 -238t-68 -241.5t-76 -223q-12 -58 -17 -117 q-5 -60 -5 -112q0 -7 -1 -12q-1 -46 3 -82q4 -42 8 -64q4 -29 13.5 -44t22.5 -19.5t28.5 0t33.5 16.5q32 20 66.5 51t69 68.5t68 79.5t63.5 84t55.5 82t44.5 73q10 19 27.5 21.5t31.5 -6.5q12 -8 18 -24q2 -5 2 -10q0 -11 -8 -24q-40 -58 -80.5 -121t-87.5 -124 q-46 -62 -99.5 -119.5t-119.5 -104.5q-47 -31 -87 -39q-14 -3 -27 -3q-25 -1 -46 9q-32 14 -53 49.5t-29 86.5q-3 24 -4.5 52t-1.5 57.5t1.5 58.5t4.5 55q-29 -50 -72 -104.5t-92 -104t-99 -90t-93 -61.5q-34 -17 -72 -25q-28 -6 -54 -6q-10 0 -20 1q-36 3 -68.5 19 t-54.5 47t-34 79q-8 32 -8 72q0 21 2 44zM174 250q-3 -20 -3 -39q-1 -25 5 -47q10 -38 33 -59t58 -23q4 0 8 -1q32 0 71 19q54 25 109.5 73.5t108.5 110.5t102 135t88 148q10 74 22 143t29 146q-65 0 -134 -22t-135.5 -62t-127.5 -95.5t-109.5 -123t-81 -144.5t-43.5 -159z " />
<glyph unicode="e" horiz-adv-x="776" d="M150 270q-4 29 -4 59q0 60 15 121q22 92 65 176.5t101 156t119 118.5q36 28 73 39q34 10 64 10h5q32 -1 58.5 -12t41.5 -27q20 -22 29 -49.5t10 -56.5t-4.5 -59t-15.5 -58q-24 -70 -68 -127.5t-104 -101.5t-133.5 -75t-157.5 -48q-2 -13 -2 -21t-2 -14v-15q0 -6 2 -14 q7 -48 26 -83.5t46.5 -58t61.5 -30.5q17 -4 34.5 -4t35.5 4q45 10 92 35.5t94.5 62.5t94.5 82t90 94t81.5 99t70.5 96q12 18 29 19.5t30 -6.5q12 -8 18 -24q2 -5 2 -10q0 -11 -8 -22q-47 -66 -108.5 -144.5t-134 -151.5t-154 -131t-166.5 -83q-36 -11 -74 -11q-15 0 -31 2 q-54 6 -99.5 35.5t-79 85.5t-43.5 142zM246 420q78 21 138 45.5t105 58.5t77 80t55 111q12 31 12 60q-1 5 -1 10q-2 33 -16 55q-16 23 -43 23q-4 -1 -8 -1q-33 -4 -65 -24q-21 -14 -45.5 -38.5t-50.5 -56.5t-51.5 -70t-46.5 -80t-37 -85.5t-23 -87.5z" />
<glyph unicode="f" horiz-adv-x="580" d="M-32 -419.5q0 131.5 22 267.5q6 37 11 68.5t11 63t14.5 64.5t20.5 73q-14 16 -17.5 33t1 32t15 26.5t24.5 16.5q29 92 67.5 188.5t83 192t92.5 187t95.5 174t93 152.5t84.5 122q14 19 33 41.5t36 36.5q8 5 18 9.5t19 6.5q4 1 8 1q6 0 10 -2q8 -2 17 -11 q15 -12 18.5 -29.5t1.5 -37t-8 -39.5t-10 -35q-11 -35 -43 -48q-14 -6 -28 -6q-18 0 -37 9q-29 -40 -67 -99t-80 -132t-86 -156.5t-85 -171.5t-77.5 -178.5t-63.5 -176.5q19 -2 44.5 0.5t55 8.5t61.5 15.5t64 22.5q45 18 101 49.5t111 71.5t102 85.5t75 92.5q9 15 26 17 t31 -5.5t21 -22.5q2 -5 2 -10q0 -10 -8 -22q-44 -67 -99 -119t-112.5 -92t-112 -68t-96.5 -46q-23 -10 -50.5 -20t-56.5 -18t-59.5 -13t-58.5 -5q-23 0 -27 -16t8 -29q97 -117 143 -226.5t57 -205.5q3 -35 3 -67q0 -60 -12 -113q-19 -83 -53 -147q-39 -75 -90 -113.5 t-100 -39.5h-2q-47 0 -85 37q-39 38 -55 116q-22 108 -22 239.5zM56 -391q-1 -26 -1 -51q0 -33 1 -64q3 -58 12 -112q8 -47 27 -72.5t44 -27.5h3q24 0 50 24q28 24 54 78q41 88 46 176q2 19 2 37q0 70 -17 137q-21 84 -64 161.5t-100 143.5q-6 -22 -12 -48.5t-10.5 -53.5 t-8.5 -53t-6 -48q-6 -54 -12 -111.5t-8 -115.5z" />
<glyph unicode="g" horiz-adv-x="1120" d="M92 283q8 63 32 127t58 125.5t76.5 118.5t88.5 106t93 87.5t90 63.5q21 12 44.5 18.5t45.5 6.5q2 1 5 1q19 0 35 -4q17 -4 26 -11q28 -22 48.5 -55t25.5 -64q3 -23 -10 -40.5t-30.5 -25t-34.5 -3.5t-21 24q-4 15 -10.5 29.5t-12.5 25.5q-15 17 -39 19t-47 -9 q-62 -40 -124.5 -102.5t-114 -137.5t-86.5 -156t-44 -157q-4 -32 -4 -58q0 -79 35 -104q17 -13 41 -13q40 0 96 34q78 48 148.5 118.5t129.5 151t105 163t76 153.5q5 51 29 79q22 27 54 27h5q31 -2 40 -18.5t9 -36.5q0 -16 -8 -35.5t-22 -36.5q4 -36 8.5 -95.5t8.5 -129.5 t7.5 -144t7.5 -139q59 46 113 95.5t101 99t86.5 97.5t70.5 91q11 15 27 16t29.5 -7.5t19.5 -22.5q2 -5 2 -11q0 -9 -6 -18q-42 -60 -97.5 -121.5t-114.5 -119t-117.5 -109t-104.5 -90.5q0 -48 -1 -99t-5 -101t-10.5 -96t-16.5 -83q-22 -76 -63.5 -146.5t-97 -130.5 t-122 -107t-137.5 -75q-55 -21 -108 -30q-35 -7 -68 -7q-15 0 -30 1q-46 5 -83 25t-61 58q-16 25 -22 62q-3 15 -3 31q0 24 5 50q10 44 40.5 92.5t87.5 96.5q59 48 135 108.5t157 125t160.5 129t145.5 121.5q-2 74 -4.5 133.5t-5.5 112t-7.5 102.5t-10.5 104 q-29 -61 -75.5 -133t-103.5 -142.5t-121 -132.5t-128 -102q-83 -51 -147 -55q-8 -1 -15 -1q-54 0 -90 29q-42 33 -59 99q-10 39 -10 86q0 34 5 72zM230 -612q2 -32 24 -60q16 -19 41 -26q22 -7 48 -7h7q30 1 62 10t63 23q51 23 104.5 56.5t101.5 81t88 111.5t65 149 q20 66 26 134t8 148q-29 -26 -70 -60.5t-89 -74t-100 -81.5t-102 -82t-96 -76t-81 -64q-29 -23 -53 -53.5t-37 -62.5q-10 -29 -10 -57v-9z" />
<glyph unicode="h" horiz-adv-x="1100" d="M158 46q-2 9 -2 19.5t2 21.5q4 23 20 50q-2 43 -2 86q0 96 10 191q14 137 39.5 266t62 246.5t78 219.5t84.5 185.5t82 143.5q17 24 39 36.5t37 12.5q22 0 36.5 -17t21.5 -43q2 -13 2 -26q0 -22 -6 -44q-10 -36 -31 -59q-13 -11 -34 -14.5t-44 2.5q-58 -92 -108 -213 t-88.5 -259.5t-62.5 -289t-30 -301.5q48 91 98 172t99 148.5t96 120t90 85.5q59 46 112 55q14 2 27 2q36 1 64 -17q38 -24 54 -82q10 -33 10 -75q0 -30 -5 -65q-5 -43 -13.5 -88.5t-16.5 -93.5q-9 -50 -13 -102q-3 -36 -3 -72q0 -16 1 -33q1 -24 10 -38.5t22 -20.5t28 -4 t30 14q50 36 102 88t99 108t85 111t60 96q9 16 25 18t30 -5q15 -8 21 -23q3 -6 2 -12q0 -10 -6 -21q-32 -57 -80.5 -125.5t-103.5 -133t-110.5 -117t-100.5 -78.5q-43 -26 -80 -28q-5 0 -9 -1q-31 -1 -56 15q-28 18 -45 55t-21 92q-1 14 -1 29q0 30 3 66q4 54 11 109 t16.5 108.5t17.5 94.5q5 25 5 45q0 13 -2 25q-6 28 -22 42t-39 12.5t-50 -21.5q-32 -24 -70 -64.5t-78.5 -92t-82 -111.5t-79 -121.5t-70 -122t-55.5 -113.5q2 -21 -1.5 -41t-12 -33.5t-22.5 -19.5q-7 -3 -14.5 -3t-16.5 3q-16 5 -28.5 18.5t-16.5 31.5z" />
<glyph unicode="i" horiz-adv-x="535" d="M143 195q-1 12 -1 25q0 22 2 48q4 40 11.5 82t19.5 82.5t28 73.5q-14 5 -16.5 20t14.5 43q5 11 11.5 20.5t12.5 20.5q5 10 10 18.5t7 16.5q5 17 10.5 28t17.5 23q18 16 38.5 18t36 -7t23 -27.5t-0.5 -42.5q-3 -18 -19 -37q-6 -11 -13.5 -21t-17.5 -22q-19 -37 -34.5 -85 t-26.5 -98q-10 -48 -15 -94q-4 -32 -4 -58q0 -10 1 -19q3 -36 11.5 -60t24 -34t38.5 -4t55 30q25 18 56.5 48t65.5 66.5t69.5 78.5t68 84.5t60.5 82.5t48 74q12 18 29 20.5t30.5 -5.5t19.5 -24q2 -5 1 -10q0 -11 -8 -24q-19 -33 -46 -74t-59 -85t-68.5 -89.5t-74.5 -87 t-76.5 -77t-74.5 -60.5q-52 -35 -98 -45q-17 -4 -33 -4q-27 0 -50 12q-36 18 -58.5 62t-25.5 117zM352 971q0 32 12.5 61t47.5 66q20 20 42 22h5q19 0 35 -9q18 -10 28 -28q6 -11 6 -23q0 -7 -2 -13q-3 -13 -8.5 -24t-13.5 -24q-6 -11 -13 -22.5t-10 -22.5q-17 -40 -39 -50 q-12 -6 -24 -6q-9 0 -18 4q-20 8 -34 28t-14 41z" />
<glyph unicode="j" horiz-adv-x="809" d="M-67 -662q-2 14 -2 28q0 59 26 140q25 79 86 156t141 152q79 72 166 138.5t164 123.5q0 120 -9.5 219.5t-22 175.5t-24.5 127t-16 74q-5 32 -26.5 37t-42.5 -27q-12 -18 -26.5 -39t-29 -42.5t-28 -41t-23.5 -33.5q-15 -21 -32 -24t-29.5 5t-16 25t8.5 37q12 19 27.5 45 t31.5 52t31 49.5t26 38.5q26 38 57 56.5t60.5 18.5t53.5 -19t36 -56q12 -38 26.5 -106.5t27.5 -152.5t22 -177q8 -84 8 -162v-17q69 52 125.5 103.5t105 104t91 107.5t84.5 115q9 14 24 14.5t27 -7t17 -21.5q3 -5 3 -11q0 -9 -6 -18q-45 -79 -104 -151.5t-122 -135 t-124 -113t-109 -85.5q-2 -15 -4 -38.5t-5 -49.5t-6 -53.5t-7 -51.5q-11 -74 -36 -144.5t-58.5 -134.5t-73.5 -119.5t-82 -99t-82.5 -74.5t-75.5 -46q-60 -27 -112 -27h-8q-55 2 -90 35.5t-43 99.5zM16 -621.5q0 -43.5 17 -67t48 -25.5q3 -1 6 -1q29 0 63 21 q91 54 154.5 125.5t105.5 146.5t65 146.5t33 125.5q5 28 10 63q3 22 3 41q0 12 -1 23q-31 -23 -63 -47t-66 -49q-53 -41 -104.5 -85t-97.5 -93t-84.5 -104t-63.5 -117q-25 -60 -25 -103.5zM492 1221q-1 5 -1 11q0 11 3 22q3 19 11.5 37t22.5 32.5t33 19.5q9 3 29 5q7 1 13 1 q13 0 25 -3q18 -5 26 -18q4 -6 4 -12q0 -12 -9 -28q-5 -11 -13.5 -21.5t-19.5 -23.5q-5 -6 -9 -11.5t-9 -10.5q-3 -7 -7 -11.5t-7 -9.5q-11 -18 -26 -27q-12 -7 -23 -7h-6q-14 3 -24.5 16t-12.5 39z" />
<glyph unicode="k" horiz-adv-x="1018" d="M56 24q9 19 24 37q22 110 49.5 222.5t57.5 220.5t59.5 209t56 187t47 154t31.5 111q-17 8 -27.5 28t-5.5 52q2 17 10 34.5t18.5 34.5t22.5 33t23 29q21 24 42 32q10 4 20 4q9 0 17 -4q16 -8 22 -29t-3 -54q-27 -93 -66 -220.5t-83 -271t-88 -294t-80 -289.5 q52 86 109 171t122.5 164t141 150t165.5 129q56 36 111 40q6 0 11 1q47 -1 80 -27q36 -30 46 -90q2 -14 2 -30q0 -53 -26 -125q-12 -33 -33 -66.5t-50 -65t-64.5 -60t-74.5 -50.5q-27 -15 -63 -29.5t-75 -25.5t-78 -19t-72 -10q0 -25 6.5 -52t18 -51.5t26 -45.5t29.5 -35 q21 -18 44 -27t46.5 -11.5t45 -0.5t38.5 6q32 6 73 30t86.5 60.5t93.5 83t93.5 98t86 104.5t70.5 103q12 19 29.5 23t30.5 -4q12 -8 18 -24q2 -5 2 -11q0 -12 -8 -27q-22 -38 -56.5 -86.5t-78 -100.5t-94 -104t-103.5 -97.5t-106.5 -80t-104.5 -51.5q-52 -18 -102 -18 q-21 0 -43 4q-70 10 -129 61q-21 18 -40 47.5t-34.5 65.5t-26 75.5t-12.5 77.5q-3 0 -14 -13t-26.5 -34.5t-34 -49t-37.5 -56.5t-36 -57.5t-30 -51.5q-9 -66 -30 -96q-16 -23 -45 -23q-10 0 -21 3q-19 4 -27 17q-7 12 -7 26q0 19 10 40zM418 418q6 -13 10 -18t4 -19 q30 2 65.5 9.5t71.5 19t69.5 25t59.5 28.5q39 22 68.5 47.5t51 51.5t36.5 52.5t25 51.5q16 40 16 70q-1 4 -1 8q-2 32 -18 46q-15 14 -39 14h-5q-26 -2 -54 -22q-29 -21 -74.5 -57t-96.5 -84t-101 -105t-88 -118z" />
<glyph unicode="l" horiz-adv-x="639" d="M190 360q0 48 2.5 93t4.5 86q6 97 28.5 199t57 202t80 195.5t97 178.5t107.5 150.5t113 112.5q84 65 155 72q9 1 18 1q58 0 95 -40q20 -23 32 -58q10 -31 10 -72v-10q-2 -48 -16.5 -106.5t-45.5 -128.5q-38 -84 -100.5 -173.5t-145 -179t-182.5 -175.5t-213 -162 q-9 -46 -11 -95q0 -16 -1 -32q0 -32 2 -62q3 -45 9.5 -83t12.5 -62q9 -38 27 -59.5t40.5 -28.5t49 -1t53.5 23q61 37 116 92.5t102.5 115.5t84.5 117.5t62 98.5q11 20 27.5 23t29.5 -5.5t18.5 -25.5t-4.5 -35q-16 -29 -39 -67.5t-51.5 -81.5t-63 -88t-73 -87t-81 -78 t-87.5 -61q-71 -39 -129 -39q-31 0 -57 10q-78 32 -111 146q-12 42 -17.5 87t-5.5 93zM295 643q105 77 191.5 157t155 159.5t119.5 157t85 149.5q48 102 56 170q2 17 2 32q0 44 -17 68q-18 25 -50 25q-7 0 -15 -1q-44 -7 -95 -51q-60 -53 -122 -135t-119 -191t-106.5 -244.5 t-84.5 -295.5z" />
<glyph unicode="m" horiz-adv-x="1606" d="M128 90q0 22 22 53q10 35 20.5 82.5t20 98t17.5 99t15 85.5q-20 0 -29.5 17.5t7.5 43.5q5 11 11.5 21.5t12.5 19.5q5 11 10 20t7 17q3 14 6.5 29.5t11.5 28.5q12 20 35 23.5t45 -7.5q17 -8 22.5 -22.5t2.5 -31.5t-12.5 -35.5t-22.5 -33.5q-8 -25 -16 -60t-16.5 -73.5 t-16 -77.5t-13.5 -72q32 62 71.5 126.5t80 123t79 106.5t70.5 77q41 38 81 52q27 10 51 9q11 1 21 -1q32 -6 53 -32.5t26 -70.5q6 -70 9 -173q1 -28 1 -58q0 -81 -6 -179q81 131 172.5 247t191.5 201q48 41 96 55q28 8 51 8q17 0 33 -4q36 -10 54 -41q11 -19 11 -43 q0 -16 -5 -36q-6 -24 -12.5 -60.5t-13 -79.5t-11.5 -89.5t-8.5 -89.5t-3.5 -80t4 -60q8 -43 32 -45h4q24 0 58 23q38 26 82.5 65.5t90.5 88.5t91 103.5t84 110.5q12 18 29.5 20.5t31 -5t17.5 -23.5l2 -8q0 -12 -10 -27q-44 -63 -91.5 -121.5t-95.5 -109.5t-95 -93t-89 -73 q-61 -45 -105 -51q-12 -2 -23 -2q-29 0 -49 12q-28 18 -42 51t-18 66q-5 37 -5 83q1 12 1 24q2 60 7.5 122.5t15.5 120t20 98.5q4 16 -1.5 26.5t-17.5 14t-28 0t-31 -15.5q-23 -18 -55.5 -51.5t-70 -77.5t-78.5 -96t-80.5 -105t-75 -105.5t-62.5 -97.5q0 -16 -0.5 -32.5 t-4.5 -30.5t-13 -24t-25 -13q-19 -5 -38 2t-32 21q-7 9 -8.5 21t1 25.5t8.5 26.5t14 25q2 48 4.5 119t2.5 145.5t-2 141t-9 104.5q-3 12 -11.5 18t-19.5 6.5t-24 -4.5t-23 -14q-42 -38 -89.5 -98.5t-97 -135.5t-98 -160.5t-90.5 -172.5q-3 -14 -7 -30t-9 -30 q-5 -12 -11.5 -20.5t-17.5 -11.5q-11 -4 -20 -4q-5 0 -10 1q-13 4 -25 17q-4 5 -6 8t-5 6q-13 17 -13 39z" />
<glyph unicode="n" horiz-adv-x="1100" d="M188 131q0 36 3 89.5t7.5 108.5t10.5 103t12 74q-17 6 -27 21.5t7 41.5q5 11 11.5 21.5t12.5 19.5q5 11 10 20t7 17q5 19 8.5 33.5t15.5 28.5q17 20 42 21t46 -11q17 -13 20 -26t1 -27q-3 -11 -9 -20.5t-14 -18.5q-8 -11 -16.5 -22t-16.5 -25q-8 -34 -15 -75.5t-13 -85 t-10 -87.5t-5 -84q44 82 95 161t104.5 147t106 122.5t98.5 87.5q45 32 84 44q26 8 48 8q10 0 20 -2q30 -6 49 -26.5t26 -52.5q4 -17 6.5 -31t1.5 -33t-4 -46.5t-10 -71.5q-11 -60 -19.5 -109.5t-11.5 -93.5q-1 -20 -2 -38q0 -22 2 -42q4 -36 17 -71q13 -37 47 -41h7 q31 0 65 28q30 25 70 70t81 98.5t78.5 109.5t64.5 103q12 20 28 22.5t29 -5.5q13 -10 19 -26q2 -6 2 -12q0 -11 -6 -22q-27 -50 -66.5 -108t-82.5 -113.5t-85.5 -103.5t-74.5 -76q-43 -39 -83 -53q-30 -11 -57 -10q-9 0 -19 1q-34 5 -61 29.5t-44 65.5q-13 31 -18 79 q-4 37 -4 79q1 13 1 26q2 57 8.5 117.5t18.5 115.5q9 47 9 76v10q-2 31 -14 42.5t-33 5.5t-48 -27q-42 -32 -97 -91.5t-112.5 -137.5t-113 -168t-99.5 -181q-7 -14 -16.5 -20.5t-20.5 -8.5t-21.5 -0.5t-19.5 3.5q-14 5 -22.5 18t-8.5 35z" />
<glyph unicode="o" horiz-adv-x="874" d="M106 310q6 80 32.5 152.5t71.5 136t99 112.5q5 5 9.5 6.5t9.5 3.5q6 2 11.5 3.5t14.5 4.5q-13 40 -13 74.5t10.5 62t29 48t41.5 32.5q20 11 48 13h12q23 0 49 -6q32 -8 64.5 -28.5t59.5 -54.5q41 -50 64 -99.5t33 -100.5q12 -52 12 -104v-11q0 -47 -4 -96q12 -8 31 -10 t30 0q90 11 148 43t100 77q15 16 34 18t32 -5.5t17 -22.5q1 -3 1 -6q0 -12 -12 -27q-50 -60 -130.5 -103t-181.5 -54q-20 -2 -44 -0.5t-46 6.5q-6 -39 -23.5 -82.5t-45.5 -86.5t-65.5 -83.5t-82.5 -71.5q-62 -43 -124 -57q-31 -7 -60.5 -6.5t-56.5 6.5q-54 14 -95.5 53.5 t-60.5 102.5q-20 66 -20 132q0 14 1 28zM200 298q-1 -17 0 -32q0 -47 11 -90q12 -41 39.5 -65t63.5 -31q15 -3 30 -3q22 1 48 7q42 10 83 39q31 22 59.5 54t51 68.5t39 75t24.5 74.5q-85 38 -155 105t-115 159q-50 -46 -88.5 -105.5t-61.5 -124.5t-29 -131zM442 820 q-2 -13 -3 -26q0 -19 5 -40q11 -48 34 -89t53.5 -73.5t65.5 -57.5t69 -42q5 33 5 62q0 22 -3 43q-6 48 -20 88t-32.5 71t-35.5 53q-9 13 -22 24.5t-27 19t-29 9.5q-5 1 -10 1q-10 0 -19 -3q-25 -9 -31 -40z" />
<glyph unicode="p" horiz-adv-x="1155" d="M-29 -694v14q0 45 5 103q7 67 19 145.5t28 165t34.5 174t38.5 173.5t39 164t37 145t33 116q-14 6 -22 21.5t7 41.5q7 11 13 21.5t12 19.5q5 11 10 20t8 17q3 16 9.5 36.5t14 40t15.5 35.5t15 23q11 13 26.5 18t30.5 -3q23 -11 30.5 -21t4.5 -22q-2 -22 -16 -46.5 t-29 -45.5q-8 -19 -18 -46.5t-19 -62.5q36 40 87 82.5t109 80t119.5 65.5t118.5 38q38 6 72 6q56 0 97 -17q67 -29 98 -87q28 -52 28 -122v-15q-4 -80 -41 -166q-11 -26 -30 -58.5t-45 -65.5t-58.5 -64.5t-71.5 -53.5q43 12 95.5 36.5t108 57t111 71t104 78t87.5 78.5t62 72 q11 18 27 18t29 -9.5t18 -24.5q3 -6 3 -11q0 -9 -6 -16q-40 -53 -103 -112.5t-139 -116.5t-159.5 -106.5t-163.5 -81.5q-94 -39 -198 -62q-91 -20 -185 -20h-25q-34 1 -71 6t-71.5 15t-63 25t-43.5 36q-17 -60 -36.5 -145t-37 -180.5t-31 -194t-18.5 -185.5q11 -28 18 -56.5 t4 -49.5q-6 -28 -22.5 -52t-44.5 -32q-7 -2 -14 -2q-9 0 -15 4q-12 7 -18 21.5t-8 32.5t-3 36zM221 217q1 -32 38 -55t93 -35q53 -12 114 -12q2 0 5 1q64 0 119 17q53 16 98.5 48t84.5 75t70.5 94t55.5 105q23 51 29 103q2 14 2 27q0 37 -13 67q-17 41 -59 63q-30 15 -73 15 q-19 0 -42 -3q-42 -6 -89 -24.5t-95 -46.5t-93.5 -62.5t-84.5 -71t-69 -72.5t-46 -67q-6 -12 -12.5 -33.5t-11.5 -46.5q-7 -23 -12.5 -46t-8.5 -40z" />
<glyph unicode="q" horiz-adv-x="1278" d="M90 202q-3 19 -3 41q0 65 28 152q18 57 49 112.5t70.5 106t85 95t92.5 81.5t93 64t87 43q53 20 105.5 32.5t99.5 12.5q94 -2 139 -46q41 -39 41 -103v-15q-1 -24 -18.5 -37.5t-38 -15t-37.5 11t-17 41.5q0 28 -20 44t-51 18q-17 2 -34 2q-29 0 -55 -6q-43 -8 -83 -25 q-71 -32 -136.5 -80.5t-120 -106.5t-95.5 -123t-62 -130q-22 -66 -22 -112q0 -8 1 -15q4 -51 33 -77.5t78 -29.5h14q44 0 97 15q50 15 104.5 41.5t109 61t107.5 75.5t100.5 83.5t87.5 86t68 82.5q8 21 15 44.5t10 39.5q4 13 11 24t16 18.5t21 9.5t27 -3q15 -6 26 -23 t12.5 -39.5t-8 -49t-34.5 -52.5q-7 -31 -18.5 -76.5t-25.5 -95.5t-29 -100t-29 -89q73 26 145 68.5t137 93.5t119.5 107t92.5 110q11 16 27 18t29 -5.5t19 -22.5q2 -6 2 -12q0 -10 -6 -21q-32 -60 -91.5 -122.5t-135 -119.5t-159.5 -103t-165 -72q-13 -3 -22 -10.5 t-13 -16.5t-2.5 -18.5t9.5 -18.5q62 -70 97.5 -144t49.5 -147q12 -59 12 -115v-27q-4 -69 -19.5 -130t-39.5 -111.5t-51 -85.5q-46 -57 -94 -79q-31 -15 -59 -15q-15 0 -29 4q-41 12 -70 58t-37 126q-3 32 -3 68q0 41 4 87q8 86 24.5 175t39.5 172.5t46 147.5 q-15 15 -23.5 35.5t-5.5 40.5t19.5 37.5t52.5 27.5q11 22 21 51.5t20 61.5q9 32 17 66.5t17 68.5q-44 -56 -108 -111t-134.5 -103t-142 -85t-131.5 -56q-74 -23 -140 -23q-12 0 -24 1q-76 5 -124.5 44.5t-61.5 116.5zM814 -473q-3 -37 -3 -71q0 -39 4 -74q4 -39 17 -63 t31 -31q7 -3 14 -3q13 0 27 7q23 12 48 46q26 35 45.5 83t29.5 102.5t10 113.5t-13.5 117t-41.5 112t-73 99q-17 -52 -37 -125t-35.5 -153t-22.5 -160z" />
<glyph unicode="r" horiz-adv-x="758" d="M193 549q0 9 8 20q11 20 22 40.5t19 37.5q3 19 5 37t11 35q12 21 29.5 28t33 2t26 -21t7.5 -40q-3 -15 -9.5 -28t-14.5 -27q-3 -21 -6.5 -53.5t-6.5 -73t-5 -84.5q-1 -30 -1 -60v-30q19 82 48.5 161.5t66 147.5t80 121t91 83.5t97.5 34.5h12q45 0 91 -26q18 -11 22 -33 q1 -7 1 -14q0 -14 -5 -27q-8 -18 -23.5 -26t-35.5 8q-26 21 -55 21t-59 -17.5t-60 -51t-58 -79.5q-57 -93 -105.5 -228t-76.5 -294q2 -11 4 -30t-2 -32q-2 -18 -7.5 -29t-14.5 -26q-4 -8 -16 -10q-4 -1 -9 -1q-7 1 -15 3q-12 4 -22.5 12.5t-13.5 22.5q-3 11 -4.5 34t4.5 47 q-9 56 -12 116.5t-3 115.5t2 99.5t3 70.5q-9 3 -18.5 8.5t-15.5 13.5q-8 10 -9 21z" />
<glyph unicode="s" horiz-adv-x="797" d="M133 35q-1 8 -1 17q0 12 2 26q3 24 9.5 46.5t14 42.5t14.5 32q12 20 29 26.5t31 2t19.5 -19.5t-5.5 -38q-10 -19 -13.5 -50t-3.5 -59q0 -13 4 -24t14.5 -18t29 -9t47.5 4q57 12 112 33.5t102 49.5t83.5 60.5t54.5 65.5q7 12 9 27.5t-2.5 32t-17 32t-34.5 27.5 q-29 15 -69.5 31.5t-83 32.5t-80.5 29.5t-62 21.5q-79 26 -122.5 64t-52.5 82q-2 12 -2 23q0 34 18 68q25 46 83 88q31 23 70 42.5t81.5 33.5t88.5 21.5t92 7.5q22 0 54.5 -4t64 -15t55.5 -29.5t29 -47.5q1 -4 1 -8q0 -17 -11 -32q-13 -18 -31 -26q-19 -8 -37.5 -1.5 t-26.5 32.5q-3 14 -13 22t-24.5 11.5t-32.5 4.5t-36 1q-29 0 -62.5 -4.5t-68 -14t-68 -25t-61.5 -36.5q-50 -38 -49 -75q1 -12 5 -24q22 -48 123 -86q28 -9 67 -23t79 -30q40 -14 75 -28t54 -25q45 -26 72.5 -57t37.5 -65q5 -18 5 -37q0 -17 -4 -34q-9 -36 -39 -73 q-36 -44 -84 -82t-102 -68t-111 -51t-111 -31q-42 -8 -78 -8q-2 0 -4 -1q-35 -1 -61 11q-28 12 -45 37.5t-21 69.5z" />
<glyph unicode="t" horiz-adv-x="506" d="M74 948q2 18 20 37q11 9 33.5 17t48.5 8q25 0 63.5 -1t75.5 -1q16 48 34.5 101.5t37 102.5t37.5 90.5t37 65.5q12 19 28.5 40.5t34.5 31.5q13 7 28 7q3 -1 5 -1q17 -2 29 -13t16 -33t-6 -54q-6 -25 -30.5 -49.5t-55.5 -41.5q-13 -21 -27.5 -50.5t-28 -63.5t-26 -70.5 t-22.5 -69.5q26 -2 59 -2.5t68 -0.5t69 0.5t62 0.5q31 1 44 -13q11 -12 11 -26q-1 -18 -17 -34q-14 -14 -38 -13q-72 0 -144 2q-36 1 -70 1t-65 -1q-20 -49 -39 -122.5t-35.5 -157t-28.5 -170.5t-18 -162q-3 -34 -6 -75.5t-4.5 -83t-1.5 -78t4 -60.5q4 -22 -8 -36t-28 -18 q-5 -1 -10 -1q-12 0 -23 6q-16 9 -21 33q-8 26 -9 65v27q0 27 1 57q3 45 6 88.5t6 77.5q5 71 17 153t28 164t35 158t39 135h-29q-13 0 -27 -2q-5 -8 -16.5 -13.5t-25.5 -9.5t-27.5 -6t-22.5 -1q-20 2 -37 11q-16 8 -24 22q-7 10 -7 24q0 4 1 8z" />
<glyph unicode="u" horiz-adv-x="1090" d="M168 182q-2 29 -2 58q0 54 6 110q10 84 39 156q-16 6 -21.5 21.5t11.5 41.5q5 11 11.5 21.5t12.5 19.5q5 11 10 20t7 17q8 33 34 66q17 17 38 18.5t36 -10.5q19 -14 17 -31.5t-7 -36.5q-5 -15 -14.5 -30.5t-23.5 -32.5q-17 -32 -30.5 -85t-21.5 -111t-12 -114 q-2 -36 -3 -65q0 -16 1 -31q5 -72 44 -89q12 -5 27 -5q32 0 74 25q32 19 72 52.5t80.5 76t77.5 91t63 97.5q8 50 20 99.5t28.5 93.5t36 80t42.5 59q27 26 49 35q13 5 23 5q7 0 13 -2q14 -6 20.5 -27t-0.5 -52q-9 -38 -21 -73.5t-29.5 -72.5t-40 -77.5t-51.5 -87.5 q-4 -27 -3 -58.5t4.5 -62t11 -57.5t18.5 -46q8 -12 22 -18t30.5 -8t33 1.5t29.5 10.5q48 26 95 67.5t92 93t88.5 111.5t84.5 123q12 18 28.5 20.5t29.5 -5.5q12 -8 18 -24q2 -6 2 -12q0 -11 -6 -22q-42 -71 -90.5 -136.5t-98 -120t-98 -96.5t-92.5 -67q-75 -43 -130 -43 q-13 0 -25 3q-62 13 -97 75q-13 21 -25 61q-8 26 -8 55q0 15 2 30q-52 -73 -112.5 -134t-145.5 -114q-54 -34 -102 -42q-15 -2 -28 -2q-31 0 -57 12q-37 18 -60 61.5t-27 113.5z" />
<glyph unicode="v" horiz-adv-x="1018" d="M187 551q0 8 6 18q12 20 24 41.5t19 36.5q3 9 4.5 19.5t3.5 21.5t3 20t3 17q14 32 32 46.5t52 6.5q31 -6 38.5 -25t-1.5 -48q-4 -12 -7.5 -22t-7.5 -20t-9.5 -21.5t-14.5 -27.5q-6 -51 -8 -112q-2 -38 -1 -76q0 -22 1 -46q2 -62 7 -119.5t17 -100.5q15 -54 47 -54h2 q33 2 82 62q22 26 50.5 66.5t56 90t51.5 105.5t39 113q-6 29 -10 65q-4 32 -4 66v8q0 38 7 74.5t21 66.5q19 38 47.5 59t53.5 21h2q23 0 38 -21q11 -15 11 -44q0 -12 -2 -27q-4 -27 -11 -60.5t-16 -68t-19.5 -67.5t-21.5 -60q4 -19 17 -40.5t32 -41t42 -35t46 -22.5 q23 -8 55 -9t60 9q25 9 51.5 24.5t51 36t46.5 44t39 48.5q11 17 27 18.5t29 -6.5t19 -23q2 -6 2 -12q0 -9 -5 -20q-16 -29 -40.5 -56.5t-52.5 -51.5t-58 -43.5t-58 -32.5q-50 -25 -101 -25q0 1 -2 1q-52 0 -104 16q-16 5 -35.5 15.5t-38.5 24.5t-35.5 31t-25.5 35 q-18 -43 -41.5 -90t-48.5 -91.5t-49 -83t-45 -62.5q-51 -62 -97 -90q-42 -26 -76 -26q-2 1 -6 1q-38 2 -66 34t-46 91q-12 38 -19.5 90t-10.5 106q-2 36 -2 70v33q2 50 7 84q-8 3 -18.5 8.5t-18.5 13.5q-10 12 -9 23z" />
<glyph unicode="w" horiz-adv-x="1489" d="M175 220q1 55 7.5 108t17 99.5t21.5 78.5q-15 6 -24 21.5t8 41.5q6 11 13 21l13 20q14 24 17 37q10 25 16 43q5 9 9.5 18t9.5 17q10 15 22.5 22t24.5 8t23 -2t20 -8q7 -4 13 -12t10 -18t5 -20t-2 -17q-5 -12 -12 -24.5t-16 -26.5q-10 -14 -21 -28t-20 -30 q-16 -37 -29.5 -93.5t-21.5 -117.5q-8 -62 -10 -120v-25q0 -42 5 -74q8 -52 44 -68q11 -5 24 -5q29 0 68 26q48 32 94.5 84t87 108t71.5 108.5t46 86.5q2 40 6 74t16 61q5 16 15 29t22.5 22t25.5 12.5t25 0.5q31 -6 41 -20t10 -35q0 -12 -4.5 -30t-12 -39t-17.5 -43t-21 -40 q-7 -29 -7 -68.5t5 -80t14.5 -75.5t22.5 -54q22 -29 52 -38q12 -4 26 -3q21 0 47 8q44 15 83.5 51.5t71.5 82t55.5 95.5t35.5 94q-20 25 -34.5 57t-23.5 66.5t-11 70.5q-1 14 -1 28q0 22 2 43q4 35 21 56q16 21 38 25q5 1 10 1q16 0 34 -12q22 -14 38 -48q9 -22 16 -53 t10 -65q3 -30 3 -60q-1 -5 -1 -10q0 -35 -5 -66q4 -14 14 -25.5t23 -21t26.5 -16.5t24.5 -11q23 -6 53 -9q6 -1 12 -1q26 0 58 10q22 8 45 22t44.5 31t39 36.5t29.5 37.5q12 19 28.5 22.5t29.5 -5.5q12 -8 18 -24q2 -6 2 -12q0 -12 -7 -24q-31 -54 -81.5 -93t-102.5 -60 q-42 -19 -92 -25q-13 -1 -27 -1q-37 0 -76 11q-23 8 -45 18.5t-47 29.5q-12 -36 -33.5 -81.5t-54 -91t-76.5 -86t-102 -65.5q-29 -13 -63 -18q-16 -2 -32 -2q-17 0 -35 2q-34 6 -65 23.5t-55 49.5q-9 13 -18.5 35t-16.5 47.5t-11.5 52.5t-4.5 50q-23 -36 -52 -76.5 t-62.5 -80t-71 -75.5t-76.5 -63q-49 -37 -95 -48q-21 -5 -41 -5q-21 0 -41 6q-36 12 -62 47t-36 90q-7 43 -7 91v12z" />
<glyph unicode="x" horiz-adv-x="881" d="M195 551q0 8 6 18q5 11 11.5 21.5t12.5 19.5q5 11 10 20t7 17q0 28 5 53t17 37q9 11 26 18.5t36 2.5q10 -1 18.5 -7t15 -15t9.5 -18.5t2 -17.5q-3 -12 -12.5 -32t-24.5 -43q-5 -49 -7 -103q-1 -16 -1 -31q0 -39 4 -78q5 -55 20.5 -108.5t46.5 -99.5q39 93 89 202t98 218 q23 54 44 105.5t38.5 97.5t30 85t18.5 68q4 25 20 33q11 6 22 5q5 0 11 -1q17 -4 29 -18t8 -35q-8 -35 -22.5 -78t-33.5 -92.5t-42 -103t-48 -109.5q-49 -113 -101.5 -228t-94.5 -215q18 -20 42.5 -27.5t50.5 -7.5t50 6t41 13q58 21 116 69.5t113 110.5t105.5 131.5 t95.5 134.5q12 18 29 20.5t30 -5.5q12 -8 18 -24q2 -6 1 -12q0 -11 -6 -22q-47 -78 -96.5 -150.5t-104.5 -134.5t-117.5 -113t-134.5 -87q-25 -12 -59 -21q-35 -8 -71 -8q-2 0 -4 -1q-34 0 -68 8q-36 8 -64 28q-7 -13 -13.5 -30t-12.5 -34.5t-10.5 -33t-6.5 -25.5 q4 -19 8.5 -40.5t5.5 -42.5t-2 -40.5t-12 -33.5q-12 -19 -27 -28q-16 -9 -30 -11h-5q-12 0 -22 6q-13 6 -20 18q-10 15 -14.5 34t-4.5 40t4 41.5t11 38.5q-9 14 -8 26t7 21t16 15.5t21 8.5q3 11 8 27t11 33l12 34q6 17 12 31q-38 41 -61 89.5t-36.5 101t-18 107t-4.5 106.5 q-8 3 -17.5 8.5t-16.5 13.5q-9 12 -9 23z" />
<glyph unicode="y" horiz-adv-x="1188" d="M172 270v23q0 45 6 93q8 61 27 120q-6 3 -11.5 8.5t-7.5 13.5t0 18t11 23q13 25 24 41q5 11 10 20t7 17q4 15 11.5 32.5t15.5 34t16.5 31.5t15.5 25q6 8 17.5 13t25 6.5t27 -1.5t22.5 -12q16 -15 19.5 -26.5t1.5 -28.5q-7 -17 -19.5 -37t-34.5 -39q-27 -45 -44.5 -96 t-27.5 -101t-13 -96q-2 -28 -2 -52q0 -16 1 -30q3 -38 13 -58.5t25.5 -27t36.5 -1.5t46 20q32 18 70.5 49t79 70.5t81.5 87t77.5 98t67.5 103.5t52 104q-5 12 -10 26.5t-8 28.5t-3.5 27t5.5 22q14 17 30 29.5t44 17.5q5 1 10 1q13 0 25 -6q15 -8 23 -24.5t7 -40.5t-16 -53 q22 -57 42 -119t37 -124t31.5 -123.5t26.5 -118.5q105 78 185.5 157.5t135.5 153.5q15 19 32 20.5t29 -7.5t16 -25q1 -4 1 -8q0 -12 -8 -23q-34 -49 -73.5 -93t-84.5 -87q-46 -43 -99 -87.5t-116 -98.5q9 -45 11 -96v-28q0 -37 -3 -76q-4 -52 -13 -104t-21 -100 q-26 -101 -74.5 -186.5t-107 -152.5t-120.5 -113t-114 -68q-63 -26 -118 -32q-18 -2 -35 -2q-34 0 -64 8q-43 12 -73 41t-41 73q-7 25 -7 54q0 23 4 48q9 58 43 128q20 42 57.5 93t86.5 106t108.5 112.5t122.5 114t128.5 110t127.5 100.5q-19 127 -52.5 234.5t-64.5 193.5 q-26 -60 -71.5 -128.5t-103 -135.5t-123 -126t-130.5 -99q-77 -48 -135 -48q-27 0 -51 11q-70 35 -76 178zM392 -606q0 -48 25 -75t73 -29q3 -1 7 -1q45 0 105 27q55 24 110.5 67.5t105 102.5t88.5 131.5t61 153.5q9 34 16.5 75t11.5 84q3 34 3 68v17q-1 42 -9 77 q-78 -59 -164.5 -134.5t-166 -155t-142.5 -157t-94 -141.5q-30 -62 -30 -110z" />
<glyph unicode="z" horiz-adv-x="954" d="M112 -618q-2 17 -2 36q0 49 17 107q12 40 33 79.5t48.5 79t61 78t70.5 76.5q74 75 155.5 144t153.5 131q-11 30 -34 48t-51.5 26t-57.5 7t-51 -10q-19 -24 -42 -46t-46 -32q-17 -8 -36.5 -3.5t-33 17t-16.5 31.5t12 42q7 12 20.5 24.5t31 24t37 20t40.5 12.5 q25 26 54 59.5t59 70.5t59 76t53.5 77t44 72.5t29.5 62.5q5 14 8.5 29.5t1 28.5t-12 21t-30.5 7q-18 -2 -62.5 -13.5t-98 -33t-108.5 -53t-95 -72.5q-7 -15 -13 -29.5t-13.5 -27t-18 -24t-25.5 -21.5q-20 -12 -40 -9.5t-34.5 15.5t-19 34t7.5 44q19 38 74 71q11 23 20 44 t12 32t14 16.5t24 5.5t24.5 -6t13.5 -18q41 28 86.5 50.5t90 39t86 27t73.5 14.5q21 3 39 3q24 0 45 -5q36 -8 54 -32q15 -21 15 -56q-1 -8 -1 -14q-4 -44 -33 -111q-15 -34 -45.5 -83t-68 -101.5t-78.5 -102.5t-76 -86q14 2 27 2q46 0 85 -20q51 -24 80 -80q51 39 113 92.5 t121 109t108.5 106t75.5 83.5q13 16 30 17.5t30 -6.5t18 -23q2 -5 2 -9q0 -11 -8 -22q-29 -43 -79 -95t-110.5 -108t-127 -113.5t-128.5 -109.5q36 -100 38 -205q0 -10 1 -20q0 -95 -22 -185q-24 -100 -71 -186.5t-110 -150.5q-66 -67 -134 -102t-129 -43q-18 -2 -34 -2 q-41 0 -78 14q-51 18 -83 59t-40 103zM206 -635q20 -53 73 -67q16 -4 34 -4q11 0 23 2q32 4 66 17.5t70.5 38.5t72.5 62q55 55 94 132.5t59 162.5q19 81 18 162v9q-1 86 -26 157q-65 -54 -138 -117.5t-142 -132.5q-69 -68 -122.5 -139.5t-76.5 -143.5q-15 -48 -15 -86 q1 -30 10 -53z" />
<glyph unicode="{" horiz-adv-x="766" d="M166 715q-2 18 11 35t36 26q7 3 19 8.5t24 12t22 12t15 8.5q25 16 39.5 35t29.5 47q13 26 20 56.5t15 64.5q6 27 12.5 58t12 62t10 59.5t8.5 49.5q7 34 15.5 65t17.5 60q14 45 30 84t32 62q32 49 70 85t89 64q34 17 68 14t57 -8q20 -5 33.5 -16.5t11.5 -30.5 q-2 -26 -21 -36.5t-50 -12.5q-19 0 -34 4t-32 2q-12 0 -27 -8q-31 -16 -51.5 -40.5t-36.5 -49.5q-20 -31 -33 -65t-24 -76q-6 -23 -12 -46.5t-11 -48.5q-5 -24 -10 -53.5t-10 -60.5t-10.5 -61t-9.5 -54q-13 -57 -28.5 -104.5t-29.5 -73.5q-21 -37 -46 -65t-54 -42 q25 -15 38 -36t21 -58q2 -13 1.5 -33.5t-3.5 -45.5t-6.5 -53.5t-7.5 -57.5q-4 -26 -8.5 -59.5t-10 -68t-10 -67t-8.5 -57.5q-2 -12 -3.5 -28t-3.5 -32.5t-4 -31.5t-3 -27q-3 -40 -4.5 -77.5t6.5 -67.5q5 -16 9.5 -30t12.5 -30q8 -15 21 -28t35 -21q21 3 41 2t32 -4 q55 -12 49 -53q-3 -16 -19.5 -28.5t-41.5 -14.5q-12 -2 -28 -1t-32.5 4.5t-33 9.5t-29.5 15q-40 26 -63 62t-37 84q-8 25 -9 62.5t3 82.5q1 15 2.5 33.5t3.5 39t4.5 40.5t5.5 37l8 53q4 31 9 65.5t9.5 69.5t8.5 64q2 18 5 38t5.5 39.5t3.5 37.5t0 30q-3 28 -11.5 49 t-25.5 35q-4 2 -10 6q-4 2 -6 4q-2 -1 -8 -3t-14 -4.5t-16.5 -4t-14.5 -0.5q-13 3 -22 14.5t-9 22.5z" />
<glyph unicode="|" horiz-adv-x="1192" d="M532.5 438.5q0.5 129.5 3 258t6 251t8 228t9 187t8.5 128.5q4 42 22 60.5t36.5 16.5t32.5 -24t10 -59q-5 -45 -9.5 -125.5t-8.5 -184.5t-7 -226t-5 -250t-2.5 -256t1 -244.5t4.5 -215.5t8 -169q1 -23 -13.5 -37.5t-33 -18t-35 6t-18.5 34.5q-7 73 -11 174t-5 218.5 t-0.5 247z" />
<glyph unicode="}" horiz-adv-x="766" d="M25 -225q5 20 23 30t46 13q16 3 35 5.5t41 8.5q18 9 35 21.5t31 26.5t25.5 28t19.5 26q18 31 31 68.5t24 77.5q6 23 10.5 46t9.5 48q4 25 9 57t10 65.5t10 65.5t10 56q6 28 12.5 57.5t14 56t15.5 48t16 34.5q20 38 45.5 59.5t54.5 35.5q-25 15 -38 38t-19 60q-7 28 -4 80 t12 110q4 24 8 53.5t8.5 60.5t9 60.5t9.5 53.5q3 24 6 48.5t6 47.5q3 40 4 77t-8 68q-8 25 -19 51t-39 42q-8 5 -16 6.5t-16 1.5q-20 0 -37.5 -0.5t-36.5 4.5q-29 6 -39.5 21.5t-5.5 35.5q3 19 20.5 32t44.5 13q22 0 57.5 -6t63.5 -25q41 -26 65 -60.5t40 -84.5 q6 -23 7.5 -60.5t-1.5 -82.5q-2 -29 -4 -61t-8 -66q-4 -21 -8.5 -49t-8.5 -59l-8 -62q-4 -31 -8 -58q-5 -35 -8 -73t0 -64q3 -28 11 -47t28 -35q4 -3 12.5 -8.5t19 -11.5t20.5 -12t17 -9q17 -9 24 -24.5t-1 -34.5q-5 -12 -18.5 -24t-28.5 -15q-7 -2 -15.5 -0.5t-16 3 t-12.5 3.5t-6 2l-10 -4q-10 -4 -12 -6q-22 -12 -41 -32.5t-33 -49.5q-12 -25 -21 -63.5t-16 -73.5q-5 -27 -11 -60l-10 -68q-6 -33 -11 -63t-9 -51q-5 -34 -13 -66t-17 -61q-7 -21 -13 -43.5t-14 -42.5q-6 -20 -13.5 -37t-15.5 -28q-31 -50 -64 -88t-83 -64 q-17 -9 -36.5 -15t-38.5 -9.5t-36 -4.5t-28 0q-23 4 -36 22t-9 34z" />
<glyph unicode="~" horiz-adv-x="698" d="M92 602q9 31 28.5 59.5t47.5 49.5t64 32.5t79 10.5q26 -1 48 -10t41.5 -23t37 -31t35.5 -33q7 -6 15 -13t17 -13t18.5 -10t19.5 -3q34 2 58 22.5t30 51.5q5 23 20.5 30.5t31 2t26.5 -23t8 -44.5q-3 -23 -17 -47t-37.5 -43.5t-55.5 -32t-70 -10.5q-28 1 -49.5 9t-40.5 21 t-35.5 29t-34.5 33q-16 14 -34 27.5t-40 13.5q-42 0 -74.5 -20t-54.5 -70q-11 -25 -27.5 -31.5t-31 0.5t-22.5 24.5t-1 41.5z" />
<glyph unicode="&#xa1;" horiz-adv-x="530" d="M221 -238q9 98 20 211t24.5 228.5t28.5 227.5t30 208q4 21 20 29.5t33 6t29.5 -15t9.5 -34.5q-14 -97 -27.5 -210t-25.5 -229t-21.5 -228t-13.5 -206q-2 -23 -19 -33t-37.5 -7.5t-36.5 15.5t-14 37zM362 946q0 15 2.5 34t11 37t24 31.5t42.5 16.5q12 1 25.5 -1.5 t25 -10.5t18.5 -22t7 -34q0 -14 -3 -31.5t-11 -34t-23 -30.5t-39 -20q-18 -6 -33 -2.5t-25.5 13t-16 24t-5.5 30.5z" />
<glyph unicode="&#xa2;" horiz-adv-x="956" d="M163 532q5 69 56 156q63 110 159 199t224 162q7 29 13.5 59.5t12.5 60.5t12.5 57t14.5 48q9 21 26.5 29.5t34.5 5.5t27.5 -16.5t4.5 -35.5q-13 -38 -22 -76.5t-17 -78.5q16 9 36.5 17.5t41.5 15.5t39 10t30 2q17 -2 35.5 -5.5t28.5 -19.5q15 -23 13 -46.5t-11 -39.5 q-13 -17 -31 -26.5t-35 -1.5q-8 8 -17.5 16.5t-15.5 22.5q-31 -8 -66 -23t-69 -37q-16 -52 -30 -119.5t-24.5 -141.5t-18 -149.5t-11.5 -142.5q31 6 68.5 16.5t74 23.5t70.5 25.5t60 22.5q19 8 33 0.5t19.5 -22t0.5 -31t-23 -27.5q-24 -14 -62 -29t-80 -29t-84.5 -26.5 t-76.5 -19.5q-9 -40 -8.5 -83t6.5 -81q0 -24 -14 -38t-31 -16.5t-32 8t-17 34.5q-6 78 0 157q-12 -3 -28 -5t-32 -3.5t-31 -2t-26 0.5q-69 3 -123.5 30t-82 75.5t-22.5 117.5zM270.5 564q-9.5 -41 0.5 -76t43 -59t96 -28q24 -3 51 2t49 11q3 53 8.5 117.5t13.5 133t20 135.5 t28 126q-35 -25 -72.5 -55.5t-74.5 -66.5t-70.5 -76.5t-59.5 -84.5q-23 -38 -32.5 -79z" />
<glyph unicode="&#xa3;" horiz-adv-x="1126" d="M39.5 49.5q-3.5 20.5 5 38t27.5 29t47 10.5h77q38 0 78 -2q11 51 22 105t22 106t21 98.5t19 81.5q-38 -6 -84 -11t-88 -3q-25 1 -38.5 16t-15.5 32.5t8 31.5t32 14q23 0 49.5 0.5t54 2t54.5 3.5t51 6q39 117 85.5 224t100.5 200t114.5 169.5t127.5 131.5q25 21 55 32 t59 12t56 -8.5t47 -29.5q6 -6 14 -16.5t15 -23t11 -25.5t3 -25q-1 -21 -10 -36.5t-21.5 -21.5t-25.5 -0.5t-21 26.5q-6 11 -9 24.5t-11 24.5q-22 26 -52.5 21.5t-62.5 -27.5q-46 -35 -96.5 -99.5t-99.5 -148.5t-93.5 -183.5t-79.5 -203.5q27 1 57.5 4.5t61.5 8t60 9.5t53 10 q23 5 37.5 -7t18 -29.5t-5.5 -34t-32 -21.5t-58 -10t-74 -10.5t-76.5 -9.5t-65.5 -7q-15 -46 -29 -97.5t-26.5 -104t-22 -104t-14.5 -97.5q47 0 106 0.5t124.5 2.5t135 7t138 13t133 20.5t120.5 30.5q21 7 36 -4t21 -27.5t0.5 -33.5t-26.5 -23q-93 -26 -200.5 -40.5 t-214.5 -22t-206.5 -9.5t-177.5 -2q-5 -17 -12 -33t-20.5 -28t-33.5 -19.5t-50 -7.5q-20 0 -45 4.5t-50.5 13t-48.5 20.5t-39 27q-18 15 -21.5 35.5z" />
<glyph unicode="&#xa4;" horiz-adv-x="1087" d="M37 1130l59 60l168 -168q59 49 131.5 76.5t151.5 27.5q78 0 150.5 -26t129.5 -74l164 164l58 -62l-162 -161q51 -59 77.5 -131.5t26.5 -149.5q0 -78 -26.5 -150.5t-77.5 -132.5l162 -159l-58 -60l-164 162q-57 -48 -128.5 -75t-151.5 -27q-79 0 -150.5 27t-130.5 75 l-162 -162l-59 60l162 159q-101 125 -101 283q0 75 25.5 146.5t75.5 130.5zM193 686q0 -75 27.5 -140t75.5 -113t112.5 -75.5t138.5 -27.5t139 27.5t113 75.5t76 113t28 140t-28 139.5t-76 112t-113 75t-139 27.5t-138.5 -27.5t-112.5 -75t-75.5 -112t-27.5 -139.5z" />
<glyph unicode="&#xa5;" horiz-adv-x="1102" d="M23 1409h129l397 -690l399 690h129l-424 -709h361v-77h-410v-191h410v-80h-410v-352h-110v352h-408v80h408v191h-408v77h360z" />
<glyph unicode="&#xa6;" horiz-adv-x="1192" d="M531.5 260.5q-0.5 95.5 0.5 206.5q0 29 16.5 46.5t36 19t35.5 -14t15 -51.5q0 -98 0.5 -190.5t2 -176t4 -156t7.5 -130.5q1 -26 -13.5 -40.5t-33 -17.5t-35 7.5t-18.5 35.5q-6 61 -10 131t-5.5 152.5t-2 178zM539 856q2 84 5.5 178.5t7 183t7.5 161.5t8 112q4 42 22 60.5 t36.5 16.5t32.5 -24t10 -59q-5 -39 -9 -107t-7 -152.5t-5.5 -180t-3.5 -189.5q-1 -31 -17.5 -48t-36 -18t-35.5 15t-15 51z" />
<glyph unicode="&#xa7;" horiz-adv-x="1018" d="M72 57l104 23q15 -61 45 -99.5t72.5 -60t95.5 -29.5t115 -8q64 0 119 12t96 37.5t64.5 64.5t23.5 93q0 55 -23 94t-67 67.5t-108.5 49.5t-147.5 41q-62 15 -125 37.5t-113.5 58.5t-82 87.5t-31.5 125.5q0 46 16 89.5t46 79.5t73.5 63t99.5 41q-44 13 -83.5 35t-69.5 53.5 t-48 71t-18 87.5q0 134 98 208.5t285 74.5q74 0 138 -14.5t114 -45t83.5 -78t45.5 -114.5l-107 -16q-8 51 -33.5 86t-62.5 56.5t-83 30.5t-95 9q-70 0 -122 -13.5t-87 -38t-52.5 -58.5t-17.5 -74q0 -56 29.5 -92.5t77.5 -61.5t109.5 -42.5t125.5 -35t125.5 -39.5t109.5 -56 t77.5 -84t29.5 -124q0 -47 -14.5 -91.5t-44 -81t-73.5 -64t-103 -39.5q54 -19 97 -44t73 -58t46.5 -75.5t16.5 -95.5q0 -70 -27 -126t-79 -95.5t-128 -60.5t-173 -21q-88 0 -159.5 13t-126.5 43.5t-91.5 80t-54.5 123.5zM211 655q0 -52 22.5 -90t62.5 -65.5t94.5 -46 t119.5 -31.5q63 0 119 12q81 22 130.5 72t49.5 131q0 51 -21.5 89.5t-63 66.5t-101 48.5t-134.5 35.5q-32 0 -62 -5.5t-56 -13.5q-78 -25 -119 -79t-41 -124z" />
<glyph unicode="&#xa8;" horiz-adv-x="838" d="M290 1028.5q-2 14.5 4 29.5t17.5 28t22.5 18q14 7 30.5 13.5t32.5 7.5t30.5 -4.5t23.5 -20.5q13 -23 3 -50t-32 -42q-9 -3 -23.5 -7t-31 -5.5t-32.5 0t-28 8.5q-15 10 -17 24.5zM641 1054.5q3 12.5 13 24.5t25.5 21t31.5 14q10 4 23 7t25.5 2t23.5 -6t18 -15 q17 -26 8 -51t-41 -37q-34 -14 -68 -11.5t-53 27.5q-9 12 -6 24.5z" />
<glyph unicode="&#xa9;" horiz-adv-x="1882" d="M184 518q-4 117 25 235t87.5 228t145.5 205.5t199 167.5t247.5 115t291.5 47q93 1 181.5 -25.5t166.5 -76.5t143 -119t112 -152.5t73 -177.5t26 -193q0 -154 -46 -277.5t-122.5 -219t-176.5 -163.5t-208.5 -111t-218 -62t-205.5 -17q-160 4 -290.5 42t-224 111t-147 183 t-59.5 260zM283 528q1 -104 28.5 -182t74 -134.5t107.5 -93.5t129.5 -58.5t141 -30.5t141.5 -9q135 0 253.5 28.5t217.5 79t176.5 120.5t130.5 153t79.5 176.5t23.5 190.5q-4 117 -33 211t-76 167t-108 126t-127 87t-133.5 49.5t-128.5 14.5q-140 -4 -261 -41t-221.5 -100.5 t-178.5 -148t-131 -183t-80 -206t-25 -216.5zM547 683.5q11 75.5 45 144.5t88 129t119 108q88 63 188.5 99t196.5 36q43 0 89.5 -9.5t74.5 -23.5q33 -16 42 -36.5t2.5 -39.5t-24 -33.5t-37.5 -17.5q-12 -2 -21 2.5t-16 11.5l-14 14q-7 7 -16 11q-14 6 -21 8.5t-13 4t-13 2 t-21 2.5q-29 3 -67 -3.5t-79.5 -21t-85 -37t-83.5 -51.5q-55 -38 -102.5 -87.5t-78.5 -105t-42 -115t8 -118.5q18 -59 54.5 -100.5t82.5 -67.5t95 -38.5t91 -12.5q39 0 82.5 9.5t85 26.5t78 40.5t63.5 52.5q21 21 44 18t38 -19t15.5 -41.5t-23.5 -49.5q-20 -21 -60 -47 t-92 -48.5t-112 -37.5t-121 -15q-73 0 -142.5 20t-127 58.5t-100 95t-60.5 129.5q-21 78 -10 153.5z" />
<glyph unicode="&#xaa;" horiz-adv-x="881" d="M102 856q0 63 23 105.5t63 69t93 40t114 19t126 6t128 0.5v51q0 91 -51 143.5t-162 52.5q-187 0 -221 -155l-80 10q9 46 31.5 86.5t60.5 71t92.5 48t126.5 17.5q144 0 221.5 -67.5t77.5 -200.5v-313q0 -63 16 -94t58 -31q14 0 26 2.5t23 5.5v-74q-17 -6 -36.5 -8 t-34.5 -2q-78 0 -112 46t-36 126h-4q-43 -78 -117.5 -128t-179.5 -50q-115 0 -180.5 59t-65.5 164zM203 862q0 -74 41 -114.5t123 -40.5q66 0 118.5 25.5t88.5 64.5t55.5 85t19.5 87v59q-101 0 -183 -2.5t-140.5 -18t-90.5 -49.5t-32 -96z" />
<glyph unicode="&#xab;" horiz-adv-x="719" d="M266 457q5 24 34 63.5t69.5 82t85 83t80.5 66.5q11 7 25.5 3t25.5 -14t14.5 -22t-6.5 -21q-35 -29 -75 -65.5t-74.5 -71t-58 -63.5t-24.5 -43q-2 -18 10.5 -49t32.5 -68.5t45.5 -78.5t51.5 -79q7 -10 -0.5 -21.5t-21 -20t-28.5 -9.5t-24 10q-24 35 -52 80t-52.5 90 t-41 84.5t-16.5 63.5zM549 457q3 16 18 39.5t37 50.5t49.5 55.5t56 56t56.5 52t51 41.5q12 7 26 3.5t24.5 -13.5t14 -22.5t-7.5 -21.5q-34 -28 -73.5 -64.5t-73.5 -71.5t-57.5 -64t-24.5 -43q-2 -18 10.5 -49t33 -68.5t46.5 -78.5t51 -79q7 -10 -0.5 -21.5t-21 -20 t-28.5 -9.5t-23 10q-24 35 -52.5 80t-53.5 90t-41.5 84.5t-16.5 63.5z" />
<glyph unicode="&#xac;" horiz-adv-x="1090" d="M72 635v92h944v-520h-90v428h-854z" />
<glyph unicode="&#xad;" horiz-adv-x="899" d="M389 503.5q-6 19.5 3.5 37.5t41.5 22q52 6 109.5 6.5t112.5 -2t104.5 -6t85.5 -6.5q23 -2 33 -18.5t8.5 -35t-14 -32.5t-35.5 -12q-36 4 -82.5 7.5t-97.5 5t-102.5 -0.5t-98.5 -10q-25 -4 -43.5 10.5t-24.5 34z" />
<glyph unicode="&#xae;" horiz-adv-x="1882" d="M184 518q-4 117 25 235t87.5 228t145.5 205.5t199 167.5t247.5 115t291.5 47q93 1 181.5 -25.5t166.5 -76.5t143 -119t112 -152.5t73 -177.5t26 -193q0 -154 -46 -277.5t-122.5 -219t-176.5 -163.5t-208.5 -111t-218 -62t-205.5 -17q-160 4 -290.5 42t-224 111t-147 183 t-59.5 260zM283 528q1 -104 28.5 -182t74 -134.5t107.5 -93.5t129.5 -58.5t141 -30.5t141.5 -9q135 0 253.5 28.5t217.5 79t176.5 120.5t130.5 153t79.5 176.5t23.5 190.5q-4 117 -33 211t-76 167t-108 126t-127 87t-133.5 49.5t-128.5 14.5q-140 -4 -261 -41t-221.5 -100.5 t-178.5 -148t-131 -183t-80 -206t-25 -216.5zM653 213q11 58 25.5 134.5t31.5 161t34 171t32 165t27.5 142.5t19.5 103q-15 -2 -32 -5t-31 -8q-24 -9 -42 2t-25 29t-0.5 37t32.5 26q41 11 94 17t111 6t120 -5.5t121 -15.5t113.5 -25.5t99.5 -35.5q53 -23 83.5 -56.5t36 -72 t-15.5 -79t-71 -77.5q-35 -26 -84.5 -51.5t-108 -49.5t-123 -45.5t-128.5 -39.5q56 -18 123 -41.5t131 -51t118 -57.5t85 -59q20 3 32 -3.5t25 -20.5q4 -6 9.5 -17t11 -24t10 -26t6.5 -24q5 -23 -6.5 -37t-30 -18t-38.5 1.5t-32 21.5q-25 38 -45 59.5t-37 34.5 q-47 30 -110.5 60t-131 56t-132 46.5t-113.5 31.5q-5 2 -10.5 2.5t-12.5 4.5q-9 -48 -17.5 -94t-17.5 -93.5t-19 -98.5t-21 -108q-6 -24 -23.5 -32t-35.5 -2.5t-30.5 21.5t-7.5 40zM848 700q62 15 131.5 36.5t136 46.5t124 52.5t95.5 55.5q61 43 58.5 75.5t-50.5 55.5 q-38 18 -88 32t-105.5 23.5t-113 14t-108.5 4.5q-8 -43 -18 -92.5t-21 -101t-21.5 -103t-19.5 -99.5z" />
<glyph unicode="&#xaf;" horiz-adv-x="1024" d="M-20 1378v76h1064v-76h-1064z" />
<glyph unicode="&#xb0;" horiz-adv-x="705" d="M178 1143q0 61 23.5 115.5t64.5 95.5t95 64.5t116 23.5q61 0 115.5 -23.5t95.5 -64.5t64.5 -95.5t23.5 -115.5q0 -62 -23.5 -116t-64.5 -95t-95.5 -64.5t-115.5 -23.5q-62 0 -116 23.5t-95 64.5t-64.5 95t-23.5 116zM270 1143q0 -43 16 -81t44 -66t66 -44t81 -16t80.5 16 t65 44t43.5 66t16 81h2q0 43 -16 80.5t-44 65.5t-66 44.5t-81 16.5t-81 -16.5t-66 -44.5t-44 -65.5t-16 -80.5z" />
<glyph unicode="&#xb1;" horiz-adv-x="1090" d="M72 0v92h944v-92h-944zM72 659v93h426v415h92v-415h426v-93h-426v-415h-92v415h-426z" />
<glyph unicode="&#xb2;" horiz-adv-x="737" d="M84 563v76q24 59 66.5 107t92.5 90.5t101 82t93 80.5t68.5 86.5t26.5 100.5q0 72 -39 113.5t-124 41.5q-79 0 -127.5 -39.5t-55.5 -113.5l-92 4q6 50 27.5 92t57 72.5t84 47.5t110.5 17q124 0 190 -60.5t66 -168.5q0 -61 -27 -112.5t-69 -97t-93.5 -87t-100 -81.5 t-89 -81t-60.5 -86h451v-84h-557z" />
<glyph unicode="&#xb3;" horiz-adv-x="737" d="M70 770l90 10q11 -75 61 -113t144 -38q88 0 135 40.5t47 127.5q0 51 -21 81.5t-52 47.5t-67 22.5t-67 5.5h-59v80h57q30 0 63 8.5t61 27.5t46 50t18 76q0 68 -42.5 106.5t-123.5 38.5q-78 0 -127 -40t-55 -111l-92 8q7 56 30.5 98t59.5 69.5t83 41.5t101 14 q66 0 114.5 -16.5t80.5 -46t47.5 -69t15.5 -85.5q0 -74 -42 -129t-130 -74v-4q51 -5 88 -23.5t60.5 -46t35 -62.5t11.5 -72q0 -116 -73 -179t-203 -63q-80 0 -134 18.5t-88 49t-51 70t-22 81.5z" />
<glyph unicode="&#xb4;" horiz-adv-x="592" d="M265.5 1035.5q-2.5 14.5 10.5 23.5q39 27 80 56t82 57.5t80 55.5t74 50q9 6 22.5 -1t24 -20t14.5 -27t-6 -22q-35 -24 -73.5 -51.5t-80 -56t-83.5 -57.5t-82 -56q-11 -5 -25 2t-24.5 19.5t-13 27z" />
<glyph unicode="&#xb5;" horiz-adv-x="1221" d="M172 -455v1471h111v-606q0 -73 15.5 -135.5t50.5 -108t91 -71t138 -25.5q73 0 135 28.5t107.5 78t71.5 116t26 143.5v580h110v-766q0 -87 15.5 -128.5t60.5 -41.5q24 0 51 6v-86q-17 -6 -42 -8t-44 -2q-81 0 -114 58.5t-33 166.5h-4q-57 -119 -145.5 -177t-215.5 -58 q-94 0 -165.5 38t-108.5 109h-4q6 -60 5 -114t-1 -103v-365h-111z" />
<glyph unicode="&#xb6;" horiz-adv-x="1053" d="M74 1057q0 175 102 263.5t287 88.5h500v-74h-132v-1599h-77v1599h-236v-1599h-80v958q-81 0 -148 23.5t-115 69.5t-74.5 113.5t-26.5 156.5z" />
<glyph unicode="&#xb7;" horiz-adv-x="453" d="M129 764q0 15 2.5 33t11 36t23.5 33.5t41 26.5q14 0 28 -4t25 -12.5t18 -20.5t7 -28q0 -14 -1.5 -32t-9 -35t-23.5 -31t-44 -19q-9 0 -22.5 1t-26 6t-21 15.5t-8.5 30.5z" />
<glyph unicode="&#xb8;" horiz-adv-x="899" d="M305.5 -340.5q-3.5 11.5 3 22.5t25.5 15q14 2 34 10t39 18.5t33.5 23t16.5 24.5t-9.5 25t-27 28.5t-30.5 33.5t-19 40q-2 10 -0.5 23t5 26.5t8 27t7.5 25.5q9 31 21.5 45t38.5 14q24 0 32 -17.5t-6 -43.5q-15 -31 -19.5 -55t3.5 -45q4 -13 17 -25.5t27 -26.5t25 -31 t13 -38q1 -28 -20.5 -54t-53 -46.5t-66 -33.5t-57.5 -14q-15 -1 -26 8t-14.5 20.5z" />
<glyph unicode="&#xb9;" horiz-adv-x="737" d="M109 563v80h227v672l-205 -127v84l213 137h82v-766h207v-80h-524z" />
<glyph unicode="&#xba;" horiz-adv-x="958" d="M113 1028q0 84 22.5 156t68 124.5t114.5 82.5t163 30q97 0 166 -29.5t113 -82t65 -124.5t21 -157q0 -87 -23 -159.5t-69.5 -125t-116 -81.5t-162.5 -29q-87 0 -154.5 29t-113.5 81t-70 125t-24 160zM211 1028q0 -84 19 -144.5t53.5 -99.5t82.5 -57t107 -18q65 0 116 18 t86.5 57t54 99.5t18.5 144.5q0 166 -68 242t-197 76q-132 0 -202 -77t-70 -241z" />
<glyph unicode="&#xbb;" horiz-adv-x="719" d="M198 168.5q-4 12.5 7 21.5q34 29 74.5 65.5t75 71t58 63.5t25.5 44q1 17 -12 47.5t-33.5 68t-46 79t-49.5 80.5q-8 8 -0.5 19.5t21 19t29 8.5t24.5 -11q24 -34 52.5 -78t52.5 -88.5t40 -85t16 -65.5q-5 -24 -34 -63t-69.5 -81.5t-84.5 -82t-78 -64.5q-11 -8 -26 -4.5 t-26.5 13.5t-15.5 22.5zM482 169q-4 12 7 21q35 29 75.5 65.5t75 71t57.5 63.5t24 44q1 17 -11.5 47.5t-33 68t-46.5 79t-52 80.5q-6 8 1.5 19t21 18.5t28 9t22.5 -10.5q25 -34 54.5 -78t54 -88.5t41 -85t16.5 -65.5q-3 -16 -18 -39t-37 -49.5t-50 -55t-57 -55.5t-57 -51 t-51 -41q-11 -8 -25.5 -4t-25 14t-14.5 22z" />
<glyph unicode="&#xbc;" horiz-adv-x="1688" d="M119 563v80h227v672l-205 -127v84l213 137h82v-766h207v-80h-524zM389 0l868 1409h97l-867 -1409h-98zM897 205v63l422 578h88v-565h129v-76h-129v-205h-90v205h-420zM989 281h328v211v104q0 19 0.5 40t1 41t1 38.5t1.5 32.5q-9 -14 -21.5 -34.5t-27 -43t-28.5 -44 t-25 -36.5l-56 -76q-43 -60 -87.5 -117.5t-86.5 -115.5z" />
<glyph unicode="&#xbd;" horiz-adv-x="1688" d="M119 563v80h227v672l-205 -127v84l213 137h82v-766h207v-80h-524zM371 0l868 1409h96l-866 -1409h-98zM969 0v76q24 59 67 107t93 90.5t101.5 81.5t93.5 80.5t68.5 87t26.5 100.5q0 72 -39.5 113.5t-126.5 41.5q-78 0 -127 -39.5t-55 -113.5l-90 4q5 50 26.5 92 t56.5 72.5t84 47.5t109 17q124 0 190 -61.5t66 -167.5q0 -61 -27 -112.5t-69 -97t-93 -87t-100 -81.5t-89 -81t-60 -86h451v-84h-557z" />
<glyph unicode="&#xbe;" horiz-adv-x="1688" d="M63 770l91 10q12 -75 61 -113t143 -38q90 0 137.5 40.5t47.5 127.5q0 51 -21 81.5t-52 47.5t-68 22.5t-68 5.5h-58v80h56q30 0 63.5 8.5t61.5 27.5t46.5 50t18.5 76q0 68 -43 106.5t-125 38.5q-78 0 -126 -40t-54 -111l-92 8q6 56 29 98t59.5 69.5t84 41.5t101.5 14 q64 0 112.5 -16.5t81 -46t48.5 -69t16 -85.5q0 -74 -43 -129t-131 -74v-4q52 -5 89 -23.5t61 -46t35.5 -62.5t11.5 -72q0 -58 -19.5 -103t-55.5 -76t-88 -47t-116 -16q-80 0 -134 18.5t-88 49t-50.5 70t-22.5 81.5zM393 0l869 1409h96l-866 -1409h-99zM897 205v63l422 578 h88v-565h129v-76h-129v-205h-90v205h-420zM989 281h328v211v104q0 19 0.5 40t1 41t1 38.5t1.5 32.5q-9 -14 -21.5 -34.5t-27 -43t-28.5 -44t-25 -36.5l-56 -76q-43 -60 -87.5 -117.5t-86.5 -115.5z" />
<glyph unicode="&#xbf;" horiz-adv-x="1008" d="M129 -47q-16 86 10.5 154.5t77.5 122.5t119.5 97t136.5 78t127.5 65.5t93.5 59.5q5 4 12 14t12.5 22t6 25.5t-7.5 24.5q-11 15 -16 20t-7 6.5t-3 2t-3 6.5q-9 21 -2 38t22.5 26.5t35.5 9.5t36 -14q19 -16 32.5 -45t23.5 -54q12 -31 0 -59.5t-33 -52.5q-20 -22 -58 -45.5 t-86 -49t-101 -53.5t-104 -59.5t-95.5 -66.5t-75 -75.5t-43 -86t1.5 -97.5q9 -35 31.5 -60.5t53.5 -43.5t67.5 -29.5t74.5 -18t74.5 -9.5t66.5 -3q38 -1 82 1.5t90 11.5t90.5 25.5t83.5 43.5q19 12 33.5 8t22 -17t7 -31.5t-12.5 -34.5q-24 -29 -73.5 -49.5t-107.5 -33 t-116.5 -18t-100.5 -4.5q-44 1 -94 5.5t-100 15.5t-97.5 28.5t-86 45t-65.5 65t-36 88.5zM653 924q0 14 1.5 32t9 35t23 30.5t44.5 18.5q9 0 22.5 -1t26 -6t21 -16t8.5 -32q0 -15 -2.5 -32.5t-11 -35t-24 -33.5t-40.5 -28q-14 0 -28 4.5t-25 13.5t-18 21.5t-7 28.5z" />
<glyph unicode="&#xc0;" horiz-adv-x="1425" d="M66 -86q-4 8 -5 17q0 9 5 18q30 63 64 131t67 133.5t63 125t53 105.5q-23 5 -39.5 15.5t-31.5 21.5q-13 11 -18.5 24.5t-3 25.5t13.5 21t30 11q22 2 52.5 4t62.5 4q34 66 76.5 145.5t87 163.5t88.5 166.5t81.5 155t65.5 128.5t41 87q6 12 25 23q20 10 42 12q6 1 11 1 q17 1 31 -5q20 -8 26 -31q22 -77 45 -178t46 -212t45 -224.5t43 -216.5q46 0 96.5 3t101.5 9q23 3 32 -9q6 -8 6 -19q0 -6 -1 -10q-4 -16 -18.5 -31t-38.5 -19q-20 -3 -39 -5.5t-38.5 -4t-40.5 -2.5t-46 -2q10 -55 20.5 -127.5t20.5 -148t19 -147.5t16 -126q4 -26 -11 -39 t-34.5 -14.5t-37.5 9.5t-20 34q-5 62 -14 132.5t-20 143.5t-22.5 145.5t-21.5 137.5q-54 -3 -126.5 -6t-153.5 -5t-165 -3.5t-161 -2.5q-28 -60 -62 -130.5t-70.5 -144.5t-74.5 -149t-73 -145q-12 -24 -31 -28q-6 -1 -11 -1q-13 0 -24 6q-16 9 -24 27zM487 573q53 0 118 1 t135.5 2.5t143.5 4t142 5.5q-12 65 -26 140t-28.5 150t-29 146t-26 129t-20 97.5t-11.5 51.5q-51 -75 -100.5 -165t-98.5 -185t-98.5 -192t-100.5 -185zM596.5 1787q2.5 15 11.5 29t22 22.5t23 2.5q46 -29 86 -56.5t78 -55t75.5 -56t78.5 -59.5q10 -7 6.5 -21t-14 -26 t-24.5 -18.5t-26 1.5q-47 31 -83.5 56.5t-71 50t-70.5 50.5t-82 58q-12 7 -9.5 22z" />
<glyph unicode="&#xc1;" horiz-adv-x="1366" d="M66 -86q-4 8 -5 17q0 9 5 18q30 63 64 131t67 133.5t63 125t53 105.5q-23 5 -39.5 15.5t-31.5 21.5q-13 11 -18.5 24.5t-3 25.5t13.5 21t30 11q22 2 52.5 4t62.5 4q34 66 76.5 145.5t87 163.5t88.5 166.5t81.5 155t65.5 128.5t41 87q6 12 25 23q20 10 42 12q6 1 11 1 q17 1 31 -5q20 -8 26 -31q22 -77 45 -178t46 -212t45 -224.5t43 -216.5q46 0 96.5 3t101.5 9q23 3 32 -9q6 -8 6 -19q0 -6 -1 -10q-4 -16 -18.5 -31t-38.5 -19q-20 -3 -39 -5.5t-38.5 -4t-40.5 -2.5t-46 -2q10 -55 20.5 -127.5t20.5 -148t19 -147.5t16 -126q4 -26 -11 -39 t-34.5 -14.5t-37.5 9.5t-20 34q-5 62 -14 132.5t-20 143.5t-22.5 145.5t-21.5 137.5q-54 -3 -126.5 -6t-153.5 -5t-165 -3.5t-161 -2.5q-28 -60 -62 -130.5t-70.5 -144.5t-74.5 -149t-73 -145q-12 -24 -31 -28q-6 -1 -11 -1q-13 0 -24 6q-16 9 -24 27zM487 573q53 0 118 1 t135.5 2.5t143.5 4t142 5.5q-12 65 -26 140t-28.5 150t-29 146t-26 129t-20 97.5t-11.5 51.5q-51 -75 -100.5 -165t-98.5 -185t-98.5 -192t-100.5 -185zM806.5 1602.5q-2.5 14.5 10.5 23.5q39 27 80 56t82 57.5t80 55.5t74 50q9 6 22.5 -1t24 -20t14.5 -27t-6 -22 q-35 -24 -73.5 -51.5t-80 -56t-83.5 -57.5t-82 -56q-11 -5 -25 2t-24.5 19.5t-13 27z" />
<glyph unicode="&#xc2;" horiz-adv-x="1425" d="M66 -86q-4 8 -5 17q0 9 5 18q30 63 64 131t67 133.5t63 125t53 105.5q-23 5 -39.5 15.5t-31.5 21.5q-13 11 -18.5 24.5t-3 25.5t13.5 21t30 11q22 2 52.5 4t62.5 4q34 66 76.5 145.5t87 163.5t88.5 166.5t81.5 155t65.5 128.5t41 87q6 12 25 23q20 10 42 12q6 1 11 1 q17 1 31 -5q20 -8 26 -31q22 -77 45 -178t46 -212t45 -224.5t43 -216.5q46 0 96.5 3t101.5 9q23 3 32 -9q6 -8 6 -19q0 -6 -1 -10q-4 -16 -18.5 -31t-38.5 -19q-20 -3 -39 -5.5t-38.5 -4t-40.5 -2.5t-46 -2q10 -55 20.5 -127.5t20.5 -148t19 -147.5t16 -126q4 -26 -11 -39 t-34.5 -14.5t-37.5 9.5t-20 34q-5 62 -14 132.5t-20 143.5t-22.5 145.5t-21.5 137.5q-54 -3 -126.5 -6t-153.5 -5t-165 -3.5t-161 -2.5q-28 -60 -62 -130.5t-70.5 -144.5t-74.5 -149t-73 -145q-12 -24 -31 -28q-6 -1 -11 -1q-13 0 -24 6q-16 9 -24 27zM487 573q53 0 118 1 t135.5 2.5t143.5 4t142 5.5q-12 65 -26 140t-28.5 150t-29 146t-26 129t-20 97.5t-11.5 51.5q-51 -75 -100.5 -165t-98.5 -185t-98.5 -192t-100.5 -185zM607.5 1521q-2.5 14 8.5 23q14 12 38 30.5t52.5 39.5t59 42.5t58.5 38.5t50 27t33 10q22 0 50.5 -22t58 -52t55.5 -62 t43 -52q9 -10 5 -24.5t-15 -25t-25 -14.5t-24 7q-21 23 -44 48t-44 45.5t-38 34t-26 13.5t-37 -13.5t-64 -34t-73.5 -45.5t-65.5 -48q-10 -10 -22.5 -6t-21.5 15t-11.5 25z" />
<glyph unicode="&#xc3;" horiz-adv-x="1425" d="M66 -86q-4 8 -5 17q0 9 5 18q30 63 64 131t67 133.5t63 125t53 105.5q-23 5 -39.5 15.5t-31.5 21.5q-13 11 -18.5 24.5t-3 25.5t13.5 21t30 11q22 2 52.5 4t62.5 4q34 66 76.5 145.5t87 163.5t88.5 166.5t81.5 155t65.5 128.5t41 87q6 12 25 23q20 10 42 12q6 1 11 1 q17 1 31 -5q20 -8 26 -31q22 -77 45 -178t46 -212t45 -224.5t43 -216.5q46 0 96.5 3t101.5 9q23 3 32 -9q6 -8 6 -19q0 -6 -1 -10q-4 -16 -18.5 -31t-38.5 -19q-20 -3 -39 -5.5t-38.5 -4t-40.5 -2.5t-46 -2q10 -55 20.5 -127.5t20.5 -148t19 -147.5t16 -126q4 -26 -11 -39 t-34.5 -14.5t-37.5 9.5t-20 34q-5 62 -14 132.5t-20 143.5t-22.5 145.5t-21.5 137.5q-54 -3 -126.5 -6t-153.5 -5t-165 -3.5t-161 -2.5q-28 -60 -62 -130.5t-70.5 -144.5t-74.5 -149t-73 -145q-12 -24 -31 -28q-6 -1 -11 -1q-13 0 -24 6q-16 9 -24 27zM487 573q53 0 118 1 t135.5 2.5t143.5 4t142 5.5q-12 65 -26 140t-28.5 150t-29 146t-26 129t-20 97.5t-11.5 51.5q-51 -75 -100.5 -165t-98.5 -185t-98.5 -192t-100.5 -185zM588 1606q7 29 24.5 55t43.5 45t60 29.5t75 9.5q39 -1 69 -21.5t55.5 -44.5t48.5 -44t48 -19q35 2 59.5 23.5t30.5 52.5 q4 19 17 25.5t26 1.5t22 -20.5t7 -39.5q-2 -22 -15 -44.5t-35 -40.5t-51.5 -29t-64.5 -9q-43 2 -73 22t-54 43.5t-46.5 42.5t-49.5 19q-44 0 -75 -20t-52 -68q-9 -23 -23.5 -29t-27 0t-19 22.5t-0.5 37.5z" />
<glyph unicode="&#xc4;" horiz-adv-x="1425" d="M66 -86q-4 8 -5 17q0 9 5 18q30 63 64 131t67 133.5t63 125t53 105.5q-23 5 -39.5 15.5t-31.5 21.5q-13 11 -18.5 24.5t-3 25.5t13.5 21t30 11q22 2 52.5 4t62.5 4q34 66 76.5 145.5t87 163.5t88.5 166.5t81.5 155t65.5 128.5t41 87q6 12 25 23q20 10 42 12q6 1 11 1 q17 1 31 -5q20 -8 26 -31q22 -77 45 -178t46 -212t45 -224.5t43 -216.5q46 0 96.5 3t101.5 9q23 3 32 -9q6 -8 6 -19q0 -6 -1 -10q-4 -16 -18.5 -31t-38.5 -19q-20 -3 -39 -5.5t-38.5 -4t-40.5 -2.5t-46 -2q10 -55 20.5 -127.5t20.5 -148t19 -147.5t16 -126q4 -26 -11 -39 t-34.5 -14.5t-37.5 9.5t-20 34q-5 62 -14 132.5t-20 143.5t-22.5 145.5t-21.5 137.5q-54 -3 -126.5 -6t-153.5 -5t-165 -3.5t-161 -2.5q-28 -60 -62 -130.5t-70.5 -144.5t-74.5 -149t-73 -145q-12 -24 -31 -28q-6 -1 -11 -1q-13 0 -24 6q-16 9 -24 27zM487 573q53 0 118 1 t135.5 2.5t143.5 4t142 5.5q-12 65 -26 140t-28.5 150t-29 146t-26 129t-20 97.5t-11.5 51.5q-51 -75 -100.5 -165t-98.5 -185t-98.5 -192t-100.5 -185zM607 1595.5q-2 14.5 4 29.5t17.5 28t22.5 18q14 7 30.5 13.5t32.5 7.5t30.5 -4.5t23.5 -20.5q13 -23 3 -50t-32 -42 q-9 -3 -23.5 -7t-31 -5.5t-32.5 0t-28 8.5q-15 10 -17 24.5zM958 1621.5q3 12.5 13 24.5t25.5 21t31.5 14q10 4 23 7t25.5 2t23.5 -6t18 -15q17 -26 8 -51t-41 -37q-34 -14 -68 -11.5t-53 27.5q-9 12 -6 24.5z" />
<glyph unicode="&#xc5;" horiz-adv-x="1425" d="M66 -86q-4 8 -5 17q0 9 5 18q30 63 64 131t67 133.5t63 125t53 105.5q-23 5 -39.5 15.5t-31.5 21.5q-13 11 -18.5 24.5t-3 25.5t13.5 21t30 11q22 2 52.5 4t62.5 4q34 66 76.5 145.5t87 163.5t88.5 166.5t81.5 155t65.5 128.5t41 87q6 12 25 23q20 10 42 12q6 1 11 1 q17 1 31 -5q20 -8 26 -31q22 -77 45 -178t46 -212t45 -224.5t43 -216.5q46 0 96.5 3t101.5 9q23 3 32 -9q6 -8 6 -19q0 -6 -1 -10q-4 -16 -18.5 -31t-38.5 -19q-20 -3 -39 -5.5t-38.5 -4t-40.5 -2.5t-46 -2q10 -55 20.5 -127.5t20.5 -148t19 -147.5t16 -126q4 -26 -11 -39 t-34.5 -14.5t-37.5 9.5t-20 34q-5 62 -14 132.5t-20 143.5t-22.5 145.5t-21.5 137.5q-54 -3 -126.5 -6t-153.5 -5t-165 -3.5t-161 -2.5q-28 -60 -62 -130.5t-70.5 -144.5t-74.5 -149t-73 -145q-12 -24 -31 -28q-6 -1 -11 -1q-13 0 -24 6q-16 9 -24 27zM487 573q53 0 118 1 t135.5 2.5t143.5 4t142 5.5q-12 65 -26 140t-28.5 150t-29 146t-26 129t-20 97.5t-11.5 51.5q-51 -75 -100.5 -165t-98.5 -185t-98.5 -192t-100.5 -185zM686 1702q0 37 13.5 69.5t37.5 57t56.5 39t70.5 14.5q37 0 69 -14.5t56 -39t37.5 -57t13.5 -69.5q0 -38 -13.5 -70.5 t-37.5 -56.5t-56 -37.5t-69 -13.5q-38 0 -70.5 13.5t-56.5 37.5t-37.5 56.5t-13.5 70.5zM745 1702q0 -26 8.5 -48t24.5 -38t38 -25.5t48 -9.5q25 0 46.5 9.5t37.5 25.5t24.5 38t8.5 48q0 25 -8.5 47t-24.5 38t-37.5 25t-46.5 9q-26 0 -48 -9t-38 -25t-24.5 -38t-8.5 -47z " />
<glyph unicode="&#xc6;" horiz-adv-x="1978" d="M-44 -52.5q-7 19.5 3 42.5q24 53 62.5 121t81 138t83.5 134t70 109q-17 5 -35 12t-31 16q-15 12 -19 26t1.5 26.5t19 21t33.5 8.5q22 0 53.5 5.5t63.5 8.5q52 76 120.5 164t146 178t159.5 177t161.5 160t152.5 127.5t132 80.5q19 21 38 25t32.5 -4.5t18.5 -25.5t-3 -38 q-5 -15 -11.5 -32.5t-12.5 -34.5t-11.5 -33t-9.5 -29q56 16 125.5 32t147 29.5t161 25t169.5 18.5q24 2 37 -13.5t15.5 -35t-7.5 -36t-33 -16.5q-52 0 -130.5 -8.5t-167 -23.5t-179.5 -36t-168 -46q-17 -56 -34 -120t-32.5 -128.5t-27.5 -126.5t-19 -113q85 19 184.5 42 t204.5 51t210.5 60t203.5 70q21 9 37.5 -1t23.5 -26.5t2 -34.5t-26 -26q-111 -43 -228 -79.5t-228.5 -66.5t-213.5 -53.5t-184 -39.5q-23 -134 -32 -248t-11 -205q-1 -36 6.5 -61t21 -41t31.5 -24t39 -9q38 -2 90.5 6.5t111 24.5t120 37.5t116.5 45t100 47t72 44.5 q18 13 37.5 8t32 -18.5t14 -30.5t-15.5 -29q-29 -21 -74 -46t-100.5 -50.5t-119 -50.5t-129 -44.5t-130.5 -32t-125 -13.5q-52 -1 -88.5 13.5t-60 44t-35 74.5t-13.5 105q-1 45 2 101.5t8 116t12 116.5t15 102q-32 -5 -77 -12.5t-97.5 -15.5t-109.5 -17t-112.5 -17.5 t-106.5 -15.5t-91 -12q-25 -31 -55.5 -75t-63.5 -95t-66.5 -106t-64.5 -108.5t-58 -102.5t-46 -88q-13 -27 -32 -32t-34.5 4t-22.5 28.5zM467 627q26 2 67.5 7t90.5 11.5t102.5 15t105 17t96.5 17t77 16.5q14 78 32.5 168t39.5 179t44 171.5t47 144.5q-54 -38 -129 -103.5 t-166 -158.5t-194 -214t-213 -271z" />
<glyph unicode="&#xc7;" horiz-adv-x="1343" d="M231 465q1 100 21.5 210.5t57 217.5t87.5 205.5t113 175.5q50 63 99.5 103.5t95 64t83.5 31.5q31 6 56 6h12q61 -6 96 -35q6 14 9 22t4.5 13.5t2.5 10t5 11.5q12 21 28 27q9 4 18 3q6 1 12 -1q14 -4 22.5 -19t5.5 -38q-5 -32 -12.5 -67t-18.5 -67q12 -53 12 -116v-5 q0 -66 -11 -136t-31.5 -137.5t-49.5 -125.5q-12 -24 -28.5 -34.5t-31 -8t-24.5 17t-10 40.5v14q0 51 6 111q8 68 19 136t25 130t26 106q-9 26 -36 35.5t-56 9.5q-35 0 -67 -13.5t-61.5 -35t-57 -49.5t-52.5 -57q-28 -32 -58.5 -79.5t-59.5 -106t-55 -126t-46 -140.5 t-32 -150t-13 -154v-19q0 -33 2 -70q4 -48 16.5 -96.5t36 -93.5t63.5 -80q40 -34 100 -54q57 -19 136 -19h8q90 1 168.5 24t143.5 64t116.5 97t87.5 122q10 19 27.5 23t33.5 -3q17 -6 25 -22q4 -8 4 -17q0 -8 -4 -18q-33 -81 -96 -149.5t-144 -118t-173 -77.5t-182 -28 q-125 0 -215.5 36t-148.5 104t-85 168q-25 93 -25 210v17zM524.5 -421.5q-3.5 11.5 3 22.5t25.5 15q14 2 34 10t39 18.5t33.5 23t16.5 24.5t-9.5 25t-27 28.5t-30.5 33.5t-19 40q-2 10 -0.5 23t5 26.5t8 27t7.5 25.5q9 31 21.5 45t38.5 14q24 0 32 -17.5t-6 -43.5 q-15 -31 -19.5 -55t3.5 -45q4 -13 17 -25.5t27 -26.5t25 -31t13 -38q1 -28 -20.5 -54t-53 -46.5t-66 -33.5t-57.5 -14q-15 -1 -26 8t-14.5 20.5z" />
<glyph unicode="&#xc8;" d="M225 626q3 20 18 38.5t38 21.5q15 3 32.5 4.5t34.5 9.5q8 45 19.5 102.5t25 119.5t29 124.5t31.5 116.5q-17 -5 -30 -9t-24 -9q-16 -8 -30.5 1.5t-21.5 26.5t-2.5 35.5t26.5 28.5q11 6 26.5 12.5t31.5 12.5t31.5 11t26.5 9l16 48q9 27 18.5 54t18 52t15.5 43q9 21 27 25 q6 1 11 1q11 -1 22 -5q16 -8 25.5 -23.5t0.5 -36.5q-12 -29 -26.5 -65t-20.5 -64q57 16 126.5 32t146.5 30.5t160 25.5t167 18q25 1 38.5 -14t15.5 -33.5t-8.5 -34.5t-33.5 -16q-51 0 -129 -10t-166.5 -26.5t-179 -38.5t-168.5 -46q-18 -57 -34.5 -120t-31.5 -127t-27 -125 t-19 -113q84 18 183 41.5t204 52t211.5 62t205.5 71.5q20 8 36.5 -2.5t23.5 -27.5q4 -10 4 -20q0 -8 -2 -16q-5 -18 -27 -26q-112 -42 -228.5 -79.5t-228.5 -68t-213.5 -54.5t-183.5 -40q-23 -136 -31.5 -246t-11.5 -200q-2 -36 5.5 -61.5t21.5 -42t33 -24.5t41 -9h15 q32 1 74 7q52 8 111 23.5t120 37t116 44.5t100 46.5t72 43.5q19 15 38.5 10.5t31.5 -17.5t13.5 -30t-14.5 -28q-29 -21 -74 -46.5t-100.5 -51.5t-119 -51t-129 -44.5t-130.5 -32.5t-124 -14h-10q-98 0 -142 58q-46 62 -47 182v22q0 34 2 76q3 54 8.5 111t12.5 112.5 t14 102.5q-19 -5 -33.5 -8t-28.5 -3q-28 1 -38 17q-8 13 -8 28q0 3 1 8zM590.5 1734q2.5 15 11.5 29t22 22.5t23 2.5q46 -29 86 -56.5t78 -55t75.5 -56t78.5 -59.5q10 -7 6.5 -21t-14 -26t-24.5 -18.5t-26 1.5q-47 31 -83.5 56.5t-71 50t-70.5 50.5t-82 58q-12 7 -9.5 22z " />
<glyph unicode="&#xc9;" d="M225 626q3 20 18 38.5t38 21.5q15 3 32.5 4.5t34.5 9.5q8 45 19.5 102.5t25 119.5t29 124.5t31.5 116.5q-17 -5 -30 -9t-24 -9q-16 -8 -30.5 1.5t-21.5 26.5t-2.5 35.5t26.5 28.5q11 6 26.5 12.5t31.5 12.5t31.5 11t26.5 9l16 48q9 27 18.5 54t18 52t15.5 43q9 21 27 25 q6 1 11 1q11 -1 22 -5q16 -8 25.5 -23.5t0.5 -36.5q-12 -29 -26.5 -65t-20.5 -64q57 16 126.5 32t146.5 30.5t160 25.5t167 18q25 1 38.5 -14t15.5 -33.5t-8.5 -34.5t-33.5 -16q-51 0 -129 -10t-166.5 -26.5t-179 -38.5t-168.5 -46q-18 -57 -34.5 -120t-31.5 -127t-27 -125 t-19 -113q84 18 183 41.5t204 52t211.5 62t205.5 71.5q20 8 36.5 -2.5t23.5 -27.5q4 -10 4 -20q0 -8 -2 -16q-5 -18 -27 -26q-112 -42 -228.5 -79.5t-228.5 -68t-213.5 -54.5t-183.5 -40q-23 -136 -31.5 -246t-11.5 -200q-2 -36 5.5 -61.5t21.5 -42t33 -24.5t41 -9h15 q32 1 74 7q52 8 111 23.5t120 37t116 44.5t100 46.5t72 43.5q19 15 38.5 10.5t31.5 -17.5t13.5 -30t-14.5 -28q-29 -21 -74 -46.5t-100.5 -51.5t-119 -51t-129 -44.5t-130.5 -32.5t-124 -14h-10q-98 0 -142 58q-46 62 -47 182v22q0 34 2 76q3 54 8.5 111t12.5 112.5 t14 102.5q-19 -5 -33.5 -8t-28.5 -3q-28 1 -38 17q-8 13 -8 28q0 3 1 8zM763.5 1537.5q-2.5 14.5 10.5 23.5q39 27 80 56t82 57.5t80 55.5t74 50q9 6 22.5 -1t24 -20t14.5 -27t-6 -22q-35 -24 -73.5 -51.5t-80 -56t-83.5 -57.5t-82 -56q-11 -5 -25 2t-24.5 19.5t-13 27z" />
<glyph unicode="&#xca;" d="M225 626q3 20 18 38.5t38 21.5q15 3 32.5 4.5t34.5 9.5q8 45 19.5 102.5t25 119.5t29 124.5t31.5 116.5q-17 -5 -30 -9t-24 -9q-16 -8 -30.5 1.5t-21.5 26.5t-2.5 35.5t26.5 28.5q11 6 26.5 12.5t31.5 12.5t31.5 11t26.5 9l16 48q9 27 18.5 54t18 52t15.5 43q9 21 27 25 q6 1 11 1q11 -1 22 -5q16 -8 25.5 -23.5t0.5 -36.5q-12 -29 -26.5 -65t-20.5 -64q57 16 126.5 32t146.5 30.5t160 25.5t167 18q25 1 38.5 -14t15.5 -33.5t-8.5 -34.5t-33.5 -16q-51 0 -129 -10t-166.5 -26.5t-179 -38.5t-168.5 -46q-18 -57 -34.5 -120t-31.5 -127t-27 -125 t-19 -113q84 18 183 41.5t204 52t211.5 62t205.5 71.5q20 8 36.5 -2.5t23.5 -27.5q4 -10 4 -20q0 -8 -2 -16q-5 -18 -27 -26q-112 -42 -228.5 -79.5t-228.5 -68t-213.5 -54.5t-183.5 -40q-23 -136 -31.5 -246t-11.5 -200q-2 -36 5.5 -61.5t21.5 -42t33 -24.5t41 -9h15 q32 1 74 7q52 8 111 23.5t120 37t116 44.5t100 46.5t72 43.5q19 15 38.5 10.5t31.5 -17.5t13.5 -30t-14.5 -28q-29 -21 -74 -46.5t-100.5 -51.5t-119 -51t-129 -44.5t-130.5 -32.5t-124 -14h-10q-98 0 -142 58q-46 62 -47 182v22q0 34 2 76q3 54 8.5 111t12.5 112.5 t14 102.5q-19 -5 -33.5 -8t-28.5 -3q-28 1 -38 17q-8 13 -8 28q0 3 1 8zM642.5 1591q-2.5 14 8.5 23q14 12 38 30.5t52.5 39.5t59 42.5t58.5 38.5t50 27t33 10q22 0 50.5 -22t58 -52t55.5 -62t43 -52q9 -10 5 -24.5t-15 -25t-25 -14.5t-24 7q-21 23 -44 48t-44 45.5t-38 34 t-26 13.5t-37 -13.5t-64 -34t-73.5 -45.5t-65.5 -48q-10 -10 -22.5 -6t-21.5 15t-11.5 25z" />
<glyph unicode="&#xcb;" d="M225 626q3 20 18 38.5t38 21.5q15 3 32.5 4.5t34.5 9.5q8 45 19.5 102.5t25 119.5t29 124.5t31.5 116.5q-17 -5 -30 -9t-24 -9q-16 -8 -30.5 1.5t-21.5 26.5t-2.5 35.5t26.5 28.5q11 6 26.5 12.5t31.5 12.5t31.5 11t26.5 9l16 48q9 27 18.5 54t18 52t15.5 43q9 21 27 25 q6 1 11 1q11 -1 22 -5q16 -8 25.5 -23.5t0.5 -36.5q-12 -29 -26.5 -65t-20.5 -64q57 16 126.5 32t146.5 30.5t160 25.5t167 18q25 1 38.5 -14t15.5 -33.5t-8.5 -34.5t-33.5 -16q-51 0 -129 -10t-166.5 -26.5t-179 -38.5t-168.5 -46q-18 -57 -34.5 -120t-31.5 -127t-27 -125 t-19 -113q84 18 183 41.5t204 52t211.5 62t205.5 71.5q20 8 36.5 -2.5t23.5 -27.5q4 -10 4 -20q0 -8 -2 -16q-5 -18 -27 -26q-112 -42 -228.5 -79.5t-228.5 -68t-213.5 -54.5t-183.5 -40q-23 -136 -31.5 -246t-11.5 -200q-2 -36 5.5 -61.5t21.5 -42t33 -24.5t41 -9h15 q32 1 74 7q52 8 111 23.5t120 37t116 44.5t100 46.5t72 43.5q19 15 38.5 10.5t31.5 -17.5t13.5 -30t-14.5 -28q-29 -21 -74 -46.5t-100.5 -51.5t-119 -51t-129 -44.5t-130.5 -32.5t-124 -14h-10q-98 0 -142 58q-46 62 -47 182v22q0 34 2 76q3 54 8.5 111t12.5 112.5 t14 102.5q-19 -5 -33.5 -8t-28.5 -3q-28 1 -38 17q-8 13 -8 28q0 3 1 8zM657 1587.5q-2 14.5 4 29.5t17.5 28t22.5 18q14 7 30.5 13.5t32.5 7.5t30.5 -4.5t23.5 -20.5q13 -23 3 -50t-32 -42q-9 -3 -23.5 -7t-31 -5.5t-32.5 0t-28 8.5q-15 10 -17 24.5zM1008 1613.5 q3 12.5 13 24.5t25.5 21t31.5 14q10 4 23 7t25.5 2t23.5 -6t18 -15q17 -26 8 -51t-41 -37q-34 -14 -68 -11.5t-53 27.5q-9 12 -6 24.5z" />
<glyph unicode="&#xcc;" horiz-adv-x="868" d="M76 -22q0 3 -1 6q1 14 11 28q12 16 41 21q60 6 123 13t112 20q29 151 60 303t59.5 307.5t54 316t44.5 328.5q-27 -3 -46 -5.5t-35.5 -5t-32.5 -4.5t-37.5 -4.5t-51 -5.5t-72.5 -6q-24 -2 -39.5 12t-18.5 31.5t7.5 32.5t38.5 16q67 3 143.5 12t153 20t149.5 24t133 24 q8 2 14 2q16 0 28 -8q18 -12 23 -30q2 -6 2 -12q-1 -11 -7 -22q-10 -17 -37 -24q-48 -11 -103 -18.5t-108 -18.5q-16 -152 -42 -316.5t-56.5 -328t-62 -318.5t-58.5 -288l231 59q28 8 44 -3t18.5 -29t-10 -36.5t-39.5 -25.5q-30 -8 -73 -17.5t-92.5 -19.5t-104 -20 t-107.5 -19.5t-103 -17t-90 -12.5q-6 -1 -11 -1q-21 0 -34 10q-16 12 -18 30zM354.5 1734q2.5 15 11.5 29t22 22.5t23 2.5q46 -29 86 -56.5t78 -55t75.5 -56t78.5 -59.5q10 -7 6.5 -21t-14 -26t-24.5 -18.5t-26 1.5q-47 31 -83.5 56.5t-71 50t-70.5 50.5t-82 58 q-12 7 -9.5 22z" />
<glyph unicode="&#xcd;" horiz-adv-x="868" d="M76 -22q0 3 -1 6q1 14 11 28q12 16 41 21q60 6 123 13t112 20q29 151 60 303t59.5 307.5t54 316t44.5 328.5q-27 -3 -46 -5.5t-35.5 -5t-32.5 -4.5t-37.5 -4.5t-51 -5.5t-72.5 -6q-24 -2 -39.5 12t-18.5 31.5t7.5 32.5t38.5 16q67 3 143.5 12t153 20t149.5 24t133 24 q8 2 14 2q16 0 28 -8q18 -12 23 -30q2 -6 2 -12q-1 -11 -7 -22q-10 -17 -37 -24q-48 -11 -103 -18.5t-108 -18.5q-16 -152 -42 -316.5t-56.5 -328t-62 -318.5t-58.5 -288l231 59q28 8 44 -3t18.5 -29t-10 -36.5t-39.5 -25.5q-30 -8 -73 -17.5t-92.5 -19.5t-104 -20 t-107.5 -19.5t-103 -17t-90 -12.5q-6 -1 -11 -1q-21 0 -34 10q-16 12 -18 30zM529.5 1574.5q-2.5 14.5 10.5 23.5q39 27 80 56t82 57.5t80 55.5t74 50q9 6 22.5 -1t24 -20t14.5 -27t-6 -22q-35 -24 -73.5 -51.5t-80 -56t-83.5 -57.5t-82 -56q-11 -5 -25 2t-24.5 19.5t-13 27 z" />
<glyph unicode="&#xce;" horiz-adv-x="868" d="M76 -22q0 3 -1 6q1 14 11 28q12 16 41 21q60 6 123 13t112 20q29 151 60 303t59.5 307.5t54 316t44.5 328.5q-27 -3 -46 -5.5t-35.5 -5t-32.5 -4.5t-37.5 -4.5t-51 -5.5t-72.5 -6q-24 -2 -39.5 12t-18.5 31.5t7.5 32.5t38.5 16q67 3 143.5 12t153 20t149.5 24t133 24 q8 2 14 2q16 0 28 -8q18 -12 23 -30q2 -6 2 -12q-1 -11 -7 -22q-10 -17 -37 -24q-48 -11 -103 -18.5t-108 -18.5q-16 -152 -42 -316.5t-56.5 -328t-62 -318.5t-58.5 -288l231 59q28 8 44 -3t18.5 -29t-10 -36.5t-39.5 -25.5q-30 -8 -73 -17.5t-92.5 -19.5t-104 -20 t-107.5 -19.5t-103 -17t-90 -12.5q-6 -1 -11 -1q-21 0 -34 10q-16 12 -18 30zM372.5 1579q-2.5 14 8.5 23q14 12 38 30.5t52.5 39.5t59 42.5t58.5 38.5t50 27t33 10q22 0 50.5 -22t58 -52t55.5 -62t43 -52q9 -10 5 -24.5t-15 -25t-25 -14.5t-24 7q-21 23 -44 48t-44 45.5 t-38 34t-26 13.5t-37 -13.5t-64 -34t-73.5 -45.5t-65.5 -48q-10 -10 -22.5 -6t-21.5 15t-11.5 25z" />
<glyph unicode="&#xcf;" horiz-adv-x="868" d="M76 -22q0 3 -1 6q1 14 11 28q12 16 41 21q60 6 123 13t112 20q29 151 60 303t59.5 307.5t54 316t44.5 328.5q-27 -3 -46 -5.5t-35.5 -5t-32.5 -4.5t-37.5 -4.5t-51 -5.5t-72.5 -6q-24 -2 -39.5 12t-18.5 31.5t7.5 32.5t38.5 16q67 3 143.5 12t153 20t149.5 24t133 24 q8 2 14 2q16 0 28 -8q18 -12 23 -30q2 -6 2 -12q-1 -11 -7 -22q-10 -17 -37 -24q-48 -11 -103 -18.5t-108 -18.5q-16 -152 -42 -316.5t-56.5 -328t-62 -318.5t-58.5 -288l231 59q28 8 44 -3t18.5 -29t-10 -36.5t-39.5 -25.5q-30 -8 -73 -17.5t-92.5 -19.5t-104 -20 t-107.5 -19.5t-103 -17t-90 -12.5q-6 -1 -11 -1q-21 0 -34 10q-16 12 -18 30zM353 1558.5q-2 14.5 4 29.5t17.5 28t22.5 18q14 7 30.5 13.5t32.5 7.5t30.5 -4.5t23.5 -20.5q13 -23 3 -50t-32 -42q-9 -3 -23.5 -7t-31 -5.5t-32.5 0t-28 8.5q-15 10 -17 24.5zM704 1584.5 q3 12.5 13 24.5t25.5 21t31.5 14q10 4 23 7t25.5 2t23.5 -6t18 -15q17 -26 8 -51t-41 -37q-34 -14 -68 -11.5t-53 27.5q-9 12 -6 24.5z" />
<glyph unicode="&#xd0;" horiz-adv-x="1608" d="M150 96q4 27 20 40t34 13t32 -12t14 -35q0 -18 15 -36.5t44 -18.5q5 140 21.5 298.5t38.5 313.5q-26 -2 -50 -4.5t-47 -5.5q-24 -4 -42.5 10.5t-24.5 34t3.5 38t41.5 22.5q61 6 133 6q13 87 26.5 169t26.5 154t24.5 132t20.5 104q-45 -6 -93.5 -9t-82.5 -5 q-24 -2 -35.5 13.5t-11.5 34.5t11.5 35.5t35.5 16.5q13 0 64.5 5t128.5 10t172.5 8t196 -0.5t199 -15.5t181.5 -38q105 -32 177.5 -85t113.5 -119.5t52 -144t-6 -159.5t-62.5 -165.5t-116.5 -161.5q-89 -98 -193.5 -184t-227 -160t-265.5 -135t-309 -107q-9 -21 -24.5 -31 t-31.5 -10t-30 9t-19 26q-32 2 -62 13t-52.5 30t-34 45.5t-6.5 60.5zM412 49q70 15 150 43.5t162.5 67t166 87t161.5 103.5t147.5 116.5t125.5 127.5q90 104 129.5 205.5t27.5 191.5t-76.5 164t-182.5 125q-39 17 -92 28t-113 17t-122.5 8t-120 1t-106.5 -4t-81 -7 q-10 -46 -22 -107.5t-25.5 -134.5t-27.5 -154.5t-28 -168.5l177 -13q23 -2 33 -18.5t8.5 -35t-14.5 -32.5t-36 -12q-37 3 -84 6.5t-98 5.5q-12 -78 -22 -157.5t-17.5 -157.5t-13 -152.5t-6.5 -142.5z" />
<glyph unicode="&#xd1;" horiz-adv-x="1477" d="M94 4q27 95 49.5 174t43 155.5t41.5 156t45.5 175t55 213t70.5 269.5q-9 17 -15.5 30t-14.5 27q-15 28 -11.5 48t15.5 30t29.5 10t31.5 -12q5 11 7.5 20t9.5 21q6 24 22 30t32 -2t26.5 -28t5.5 -47q-5 -23 -15 -51t-16 -62q79 -157 151.5 -299.5t139 -268.5t129 -233 t121.5 -192q21 -31 37.5 -34.5t31.5 34.5q26 69 57 168.5t63 216t63.5 243t59.5 250.5t50.5 239t36.5 208q-1 11 -3 21t-2.5 20.5t1 21.5t8.5 23q15 28 30 42q16 15 30 17q3 1 7 0q11 0 19 -6q12 -8 18 -24q14 -24 13 -44q0 -19 -6 -53q-10 -48 -24.5 -117t-33 -153 t-40.5 -180t-46.5 -197t-51.5 -205t-55.5 -203t-58.5 -191.5t-61 -170.5q-13 -34 -37.5 -53.5t-54 -22.5t-59.5 11t-54 47q-36 49 -77 115t-84 142t-88.5 161t-91.5 172.5t-91 176t-88 171.5q-35 -133 -69 -261t-69 -255t-71.5 -255.5t-77.5 -262.5q-8 -28 -24 -38 q-11 -7 -22 -7q-5 -1 -9 1q-15 4 -25 22q-6 11 -6 27q0 9 2 19zM674 1618q7 29 24.5 55t43.5 45t60 29.5t75 9.5q39 -1 69 -21.5t55.5 -44.5t48.5 -44t48 -19q35 2 59.5 23.5t30.5 52.5q4 19 17 25.5t26 1.5t22 -20.5t7 -39.5q-2 -22 -15 -44.5t-35 -40.5t-51.5 -29 t-64.5 -9q-43 2 -73 22t-54 43.5t-46.5 42.5t-49.5 19q-44 0 -75 -20t-52 -68q-9 -23 -23.5 -29t-27 0t-19 22.5t-0.5 37.5z" />
<glyph unicode="&#xd2;" horiz-adv-x="1468" d="M199 438q6 119 31.5 229t60.5 206.5t73 177t70 141.5q-14 5 -17.5 17t-1.5 25.5t8.5 25.5t12.5 18q30 31 83.5 68t124 67.5t154.5 50.5q70 16 144 16q15 0 31 -1q57 -2 123.5 -20t130.5 -55t120 -94.5t93 -138.5q36 -81 48 -188q4 -34 4 -70q0 -79 -17 -172 q-19 -98 -61.5 -193t-103 -181t-135 -160t-156 -129t-167 -88t-168.5 -37q-19 -1 -37 -1q-101 0 -181 28q-94 34 -155 98.5t-89 156.5q-24 76 -24 165q0 19 1 38zM305 438q-1 -15 -1 -29q0 -89 27 -155q31 -76 84.5 -123.5t123.5 -66.5q49 -13 101 -13q22 0 44 2 q67 8 138 36t140 73.5t132.5 107t117 137t93 163t59.5 184.5q17 82 17 153q0 25 -2 47q-8 90 -36.5 159.5t-74 119.5t-97 82.5t-104.5 48.5t-98 18h-12q-31 0 -69 -4q-46 -5 -96 -20t-101.5 -41t-96.5 -66q-29 -42 -61 -97.5t-63 -120.5t-59.5 -138t-51 -149t-37 -154 t-17.5 -154zM731.5 1800q2.5 15 11.5 29t22 22.5t23 2.5q46 -29 86 -56.5t78 -55t75.5 -56t78.5 -59.5q10 -7 6.5 -21t-14 -26t-24.5 -18.5t-26 1.5q-47 31 -83.5 56.5t-71 50t-70.5 50.5t-82 58q-12 7 -9.5 22z" />
<glyph unicode="&#xd3;" horiz-adv-x="1468" d="M199 438q6 119 31.5 229t60.5 206.5t73 177t70 141.5q-14 5 -17.5 17t-1.5 25.5t8.5 25.5t12.5 18q30 31 83.5 68t124 67.5t154.5 50.5q70 16 144 16q15 0 31 -1q57 -2 123.5 -20t130.5 -55t120 -94.5t93 -138.5q36 -81 48 -188q4 -34 4 -70q0 -79 -17 -172 q-19 -98 -61.5 -193t-103 -181t-135 -160t-156 -129t-167 -88t-168.5 -37q-19 -1 -37 -1q-101 0 -181 28q-94 34 -155 98.5t-89 156.5q-24 76 -24 165q0 19 1 38zM305 438q-1 -15 -1 -29q0 -89 27 -155q31 -76 84.5 -123.5t123.5 -66.5q49 -13 101 -13q22 0 44 2 q67 8 138 36t140 73.5t132.5 107t117 137t93 163t59.5 184.5q17 82 17 153q0 25 -2 47q-8 90 -36.5 159.5t-74 119.5t-97 82.5t-104.5 48.5t-98 18h-12q-31 0 -69 -4q-46 -5 -96 -20t-101.5 -41t-96.5 -66q-29 -42 -61 -97.5t-63 -120.5t-59.5 -138t-51 -149t-37 -154 t-17.5 -154zM851.5 1608.5q-2.5 14.5 10.5 23.5q39 27 80 56t82 57.5t80 55.5t74 50q9 6 22.5 -1t24 -20t14.5 -27t-6 -22q-35 -24 -73.5 -51.5t-80 -56t-83.5 -57.5t-82 -56q-11 -5 -25 2t-24.5 19.5t-13 27z" />
<glyph unicode="&#xd4;" horiz-adv-x="1468" d="M199 438q6 119 31.5 229t60.5 206.5t73 177t70 141.5q-14 5 -17.5 17t-1.5 25.5t8.5 25.5t12.5 18q30 31 83.5 68t124 67.5t154.5 50.5q70 16 144 16q15 0 31 -1q57 -2 123.5 -20t130.5 -55t120 -94.5t93 -138.5q36 -81 48 -188q4 -34 4 -70q0 -79 -17 -172 q-19 -98 -61.5 -193t-103 -181t-135 -160t-156 -129t-167 -88t-168.5 -37q-19 -1 -37 -1q-101 0 -181 28q-94 34 -155 98.5t-89 156.5q-24 76 -24 165q0 19 1 38zM305 438q-1 -15 -1 -29q0 -89 27 -155q31 -76 84.5 -123.5t123.5 -66.5q49 -13 101 -13q22 0 44 2 q67 8 138 36t140 73.5t132.5 107t117 137t93 163t59.5 184.5q17 82 17 153q0 25 -2 47q-8 90 -36.5 159.5t-74 119.5t-97 82.5t-104.5 48.5t-98 18h-12q-31 0 -69 -4q-46 -5 -96 -20t-101.5 -41t-96.5 -66q-29 -42 -61 -97.5t-63 -120.5t-59.5 -138t-51 -149t-37 -154 t-17.5 -154zM755.5 1587q-2.5 14 8.5 23q14 12 38 30.5t52.5 39.5t59 42.5t58.5 38.5t50 27t33 10q22 0 50.5 -22t58 -52t55.5 -62t43 -52q9 -10 5 -24.5t-15 -25t-25 -14.5t-24 7q-21 23 -44 48t-44 45.5t-38 34t-26 13.5t-37 -13.5t-64 -34t-73.5 -45.5t-65.5 -48 q-10 -10 -22.5 -6t-21.5 15t-11.5 25z" />
<glyph unicode="&#xd5;" horiz-adv-x="1468" d="M199 438q6 119 31.5 229t60.5 206.5t73 177t70 141.5q-14 5 -17.5 17t-1.5 25.5t8.5 25.5t12.5 18q30 31 83.5 68t124 67.5t154.5 50.5q70 16 144 16q15 0 31 -1q57 -2 123.5 -20t130.5 -55t120 -94.5t93 -138.5q36 -81 48 -188q4 -34 4 -70q0 -79 -17 -172 q-19 -98 -61.5 -193t-103 -181t-135 -160t-156 -129t-167 -88t-168.5 -37q-19 -1 -37 -1q-101 0 -181 28q-94 34 -155 98.5t-89 156.5q-24 76 -24 165q0 19 1 38zM305 438q-1 -15 -1 -29q0 -89 27 -155q31 -76 84.5 -123.5t123.5 -66.5q49 -13 101 -13q22 0 44 2 q67 8 138 36t140 73.5t132.5 107t117 137t93 163t59.5 184.5q17 82 17 153q0 25 -2 47q-8 90 -36.5 159.5t-74 119.5t-97 82.5t-104.5 48.5t-98 18h-12q-31 0 -69 -4q-46 -5 -96 -20t-101.5 -41t-96.5 -66q-29 -42 -61 -97.5t-63 -120.5t-59.5 -138t-51 -149t-37 -154 t-17.5 -154zM723 1622q7 29 24.5 55t43.5 45t60 29.5t75 9.5q39 -1 69 -21.5t55.5 -44.5t48.5 -44t48 -19q35 2 59.5 23.5t30.5 52.5q4 19 17 25.5t26 1.5t22 -20.5t7 -39.5q-2 -22 -15 -44.5t-35 -40.5t-51.5 -29t-64.5 -9q-43 2 -73 22t-54 43.5t-46.5 42.5t-49.5 19 q-44 0 -75 -20t-52 -68q-9 -23 -23.5 -29t-27 0t-19 22.5t-0.5 37.5z" />
<glyph unicode="&#xd6;" horiz-adv-x="1608" d="M199 438q6 119 31.5 229t60.5 206.5t73 177t70 141.5q-14 5 -17.5 17t-1.5 25.5t8.5 25.5t12.5 18q30 31 83.5 68t124 67.5t154.5 50.5q70 16 144 16q15 0 31 -1q57 -2 123.5 -20t130.5 -55t120 -94.5t93 -138.5q36 -81 48 -188q4 -34 4 -70q0 -79 -17 -172 q-19 -98 -61.5 -193t-103 -181t-135 -160t-156 -129t-167 -88t-168.5 -37q-19 -1 -37 -1q-101 0 -181 28q-94 34 -155 98.5t-89 156.5q-24 76 -24 165q0 19 1 38zM305 438q-1 -15 -1 -29q0 -89 27 -155q31 -76 84.5 -123.5t123.5 -66.5q49 -13 101 -13q22 0 44 2 q67 8 138 36t140 73.5t132.5 107t117 137t93 163t59.5 184.5q17 82 17 153q0 25 -2 47q-8 90 -36.5 159.5t-74 119.5t-97 82.5t-104.5 48.5t-98 18h-12q-31 0 -69 -4q-46 -5 -96 -20t-101.5 -41t-96.5 -66q-29 -42 -61 -97.5t-63 -120.5t-59.5 -138t-51 -149t-37 -154 t-17.5 -154zM718 1640.5q-2 14.5 4 29.5t17.5 28t22.5 18q14 7 30.5 13.5t32.5 7.5t30.5 -4.5t23.5 -20.5q13 -23 3 -50t-32 -42q-9 -3 -23.5 -7t-31 -5.5t-32.5 0t-28 8.5q-15 10 -17 24.5zM1069 1666.5q3 12.5 13 24.5t25.5 21t31.5 14q10 4 23 7t25.5 2t23.5 -6t18 -15 q17 -26 8 -51t-41 -37q-34 -14 -68 -11.5t-53 27.5q-9 12 -6 24.5z" />
<glyph unicode="&#xd7;" horiz-adv-x="768" d="M109 683q2 19 14.5 31.5t32 14.5t39.5 -16q32 -31 58.5 -56.5t51.5 -51t52 -53t61 -63.5q18 21 42.5 49t50.5 58.5t52.5 60.5t48.5 56q15 17 34 16t33 -12.5t19 -29t-10 -34.5l-201 -227q31 -37 59 -69.5t55 -63.5t53.5 -61.5t52.5 -63.5q13 -17 7.5 -35t-20 -29 t-33.5 -12.5t-32 14.5q-44 53 -97.5 112.5t-113.5 125.5l-203 -229q-15 -17 -34 -16t-33 12t-18 28.5t11 34.5q20 23 48 54t57 64t57 64.5t49 55.5q-32 36 -61.5 67t-57 59.5t-55 55.5t-55.5 55q-16 15 -14 34z" />
<glyph unicode="&#xd8;" horiz-adv-x="1468" d="M99.5 -36.5q-4.5 17.5 9.5 34.5q31 38 63 76.5t64 79.5q-32 58 -46.5 129.5t-11.5 154.5q6 119 32 229t61 206.5t73 177t70 141.5q-14 5 -18 17t-1.5 25.5t9 25.5t12.5 18q30 31 83.5 68t124 67.5t154.5 50t174 15.5q41 -2 87 -11t93.5 -28t93.5 -47.5t87 -67.5 q31 31 61 60.5t58 58.5q34 31 64 33.5t50 -13.5q9 -7 15.5 -18.5t9 -25t0.5 -26.5t-10 -22q-10 -9 -30 -11.5t-36 5.5q-28 -23 -58.5 -51t-64.5 -62q31 -43 53.5 -95.5t34.5 -116t11 -138.5t-17 -162q-19 -98 -61.5 -193t-103 -181t-135 -160t-156 -129t-167 -88t-167.5 -37 q-124 -6 -216.5 26t-154.5 95q-32 -41 -61 -76t-54 -66q-12 -14 -29.5 -12t-31 14t-18 29.5zM285 438q-3 -57 5 -104.5t25 -87.5q113 133 230.5 265.5t235.5 260t232.5 247.5t221.5 228q-32 34 -69 59.5t-74.5 42t-74.5 24.5t-69 9q-35 1 -80.5 -4t-96 -20t-102 -41 t-96.5 -66q-29 -42 -61 -97.5t-63 -120.5t-59 -138t-50.5 -149t-37 -154t-17.5 -154zM367 160q54 -63 133 -89.5t164 -17.5q67 8 138 36t139.5 73.5t132.5 107t117.5 137t92.5 163t59 184.5q15 69 17 129.5t-5.5 113t-24.5 97t-40 82.5q-70 -70 -147.5 -151.5t-158.5 -169 t-163.5 -178.5t-161.5 -180.5t-153.5 -175t-138.5 -161.5z" />
<glyph unicode="&#xd9;" horiz-adv-x="1440" d="M245 225q5 83 21 175t40.5 188.5t53.5 191.5t59 184t56 166t46.5 138.5t29.5 99.5q0 15 9 24t22 11.5t27.5 -0.5t26 -10.5t17.5 -19t2 -25.5q-25 -85 -60 -188t-72.5 -215.5t-73 -228.5t-61.5 -228q-26 -111 -36 -213q-5 -48 -4 -91q0 -50 6 -94q6 -33 23 -53t42 -27 t56 -0.5t64 27.5q54 33 113.5 91t120 130t118.5 154.5t108 164.5t89.5 159.5t62.5 140.5q13 90 28 164t31.5 133.5t35.5 106t40 81.5t43 48q14 8 26 8q7 0 13 -2q16 -7 24 -31q5 -15 5 -35q0 -13 -2 -27q-7 -51 -23 -114.5t-37 -130t-44 -132t-44 -119.5q-18 -119 -25 -225 q-6 -108 -8 -202q-1 -40 0 -78q0 -51 1 -99q2 -83 2 -155q0 -28 -15.5 -42t-34 -14t-34 14t-15.5 42q0 58 -2 109q-1 31 -1 65v48q1 62 5.5 142t16.5 197q-23 -38 -57 -91.5t-76.5 -115t-91.5 -126.5t-102 -126t-108.5 -114t-109.5 -89q-68 -45 -126 -52q-16 -2 -31 -2 q-40 0 -73 14q-45 19 -73.5 58.5t-36.5 88.5q-8 48 -8 103q0 24 1 48zM627.5 1673q2.5 15 11.5 29t22 22.5t23 2.5q46 -29 86 -56.5t78 -55t75.5 -56t78.5 -59.5q10 -7 6.5 -21t-14 -26t-24.5 -18.5t-26 1.5q-47 31 -83.5 56.5t-71 50t-70.5 50.5t-82 58q-12 7 -9.5 22z" />
<glyph unicode="&#xda;" horiz-adv-x="1440" d="M245 225q5 83 21 175t40.5 188.5t53.5 191.5t59 184t56 166t46.5 138.5t29.5 99.5q0 15 9 24t22 11.5t27.5 -0.5t26 -10.5t17.5 -19t2 -25.5q-25 -85 -60 -188t-72.5 -215.5t-73 -228.5t-61.5 -228q-26 -111 -36 -213q-5 -48 -4 -91q0 -50 6 -94q6 -33 23 -53t42 -27 t56 -0.5t64 27.5q54 33 113.5 91t120 130t118.5 154.5t108 164.5t89.5 159.5t62.5 140.5q13 90 28 164t31.5 133.5t35.5 106t40 81.5t43 48q14 8 26 8q7 0 13 -2q16 -7 24 -31q5 -15 5 -35q0 -13 -2 -27q-7 -51 -23 -114.5t-37 -130t-44 -132t-44 -119.5q-18 -119 -25 -225 q-6 -108 -8 -202q-1 -40 0 -78q0 -51 1 -99q2 -83 2 -155q0 -28 -15.5 -42t-34 -14t-34 14t-15.5 42q0 58 -2 109q-1 31 -1 65v48q1 62 5.5 142t16.5 197q-23 -38 -57 -91.5t-76.5 -115t-91.5 -126.5t-102 -126t-108.5 -114t-109.5 -89q-68 -45 -126 -52q-16 -2 -31 -2 q-40 0 -73 14q-45 19 -73.5 58.5t-36.5 88.5q-8 48 -8 103q0 24 1 48zM914.5 1520.5q-2.5 14.5 10.5 23.5q39 27 80 56t82 57.5t80 55.5t74 50q9 6 22.5 -1t24 -20t14.5 -27t-6 -22q-35 -24 -73.5 -51.5t-80 -56t-83.5 -57.5t-82 -56q-11 -5 -25 2t-24.5 19.5t-13 27z" />
<glyph unicode="&#xdb;" horiz-adv-x="1440" d="M245 225q5 83 21 175t40.5 188.5t53.5 191.5t59 184t56 166t46.5 138.5t29.5 99.5q0 15 9 24t22 11.5t27.5 -0.5t26 -10.5t17.5 -19t2 -25.5q-25 -85 -60 -188t-72.5 -215.5t-73 -228.5t-61.5 -228q-26 -111 -36 -213q-5 -48 -4 -91q0 -50 6 -94q6 -33 23 -53t42 -27 t56 -0.5t64 27.5q54 33 113.5 91t120 130t118.5 154.5t108 164.5t89.5 159.5t62.5 140.5q13 90 28 164t31.5 133.5t35.5 106t40 81.5t43 48q14 8 26 8q7 0 13 -2q16 -7 24 -31q5 -15 5 -35q0 -13 -2 -27q-7 -51 -23 -114.5t-37 -130t-44 -132t-44 -119.5q-18 -119 -25 -225 q-6 -108 -8 -202q-1 -40 0 -78q0 -51 1 -99q2 -83 2 -155q0 -28 -15.5 -42t-34 -14t-34 14t-15.5 42q0 58 -2 109q-1 31 -1 65v48q1 62 5.5 142t16.5 197q-23 -38 -57 -91.5t-76.5 -115t-91.5 -126.5t-102 -126t-108.5 -114t-109.5 -89q-68 -45 -126 -52q-16 -2 -31 -2 q-40 0 -73 14q-45 19 -73.5 58.5t-36.5 88.5q-8 48 -8 103q0 24 1 48zM738.5 1558q-2.5 14 8.5 23q14 12 38 30.5t52.5 39.5t59 42.5t58.5 38.5t50 27t33 10q22 0 50.5 -22t58 -52t55.5 -62t43 -52q9 -10 5 -24.5t-15 -25t-25 -14.5t-24 7q-21 23 -44 48t-44 45.5t-38 34 t-26 13.5t-37 -13.5t-64 -34t-73.5 -45.5t-65.5 -48q-10 -10 -22.5 -6t-21.5 15t-11.5 25z" />
<glyph unicode="&#xdc;" horiz-adv-x="1440" d="M245 225q5 83 21 175t40.5 188.5t53.5 191.5t59 184t56 166t46.5 138.5t29.5 99.5q0 15 9 24t22 11.5t27.5 -0.5t26 -10.5t17.5 -19t2 -25.5q-25 -85 -60 -188t-72.5 -215.5t-73 -228.5t-61.5 -228q-26 -111 -36 -213q-5 -48 -4 -91q0 -50 6 -94q6 -33 23 -53t42 -27 t56 -0.5t64 27.5q54 33 113.5 91t120 130t118.5 154.5t108 164.5t89.5 159.5t62.5 140.5q13 90 28 164t31.5 133.5t35.5 106t40 81.5t43 48q14 8 26 8q7 0 13 -2q16 -7 24 -31q5 -15 5 -35q0 -13 -2 -27q-7 -51 -23 -114.5t-37 -130t-44 -132t-44 -119.5q-18 -119 -25 -225 q-6 -108 -8 -202q-1 -40 0 -78q0 -51 1 -99q2 -83 2 -155q0 -28 -15.5 -42t-34 -14t-34 14t-15.5 42q0 58 -2 109q-1 31 -1 65v48q1 62 5.5 142t16.5 197q-23 -38 -57 -91.5t-76.5 -115t-91.5 -126.5t-102 -126t-108.5 -114t-109.5 -89q-68 -45 -126 -52q-16 -2 -31 -2 q-40 0 -73 14q-45 19 -73.5 58.5t-36.5 88.5q-8 48 -8 103q0 24 1 48zM747 1603.5q-2 14.5 4 29.5t17.5 28t22.5 18q14 7 30.5 13.5t32.5 7.5t30.5 -4.5t23.5 -20.5q13 -23 3 -50t-32 -42q-9 -3 -23.5 -7t-31 -5.5t-32.5 0t-28 8.5q-15 10 -17 24.5zM1098 1629.5 q3 12.5 13 24.5t25.5 21t31.5 14q10 4 23 7t25.5 2t23.5 -6t18 -15q17 -26 8 -51t-41 -37q-34 -14 -68 -11.5t-53 27.5q-9 12 -6 24.5z" />
<glyph unicode="&#xdd;" horiz-adv-x="1098" d="M190 1290q9 17 27 26t39 7.5t33 -20.5q67 -111 119.5 -231.5t97 -239t84 -228t78.5 -198.5q33 80 73 174.5t83.5 198t89.5 213t91 218t88 213t81 199.5q9 24 28 27q5 1 9 1q14 0 27 -8q17 -9 27 -28q5 -10 5 -20t-4 -19q-39 -88 -75.5 -173t-74 -174.5t-78.5 -187 t-88 -211t-102 -245t-121 -289.5q9 -20 20 -31t25 -22q19 -13 22.5 -29t-3 -30t-19.5 -23.5t-27 -9.5q-15 0 -34.5 11.5t-30.5 22.5q-29 -78 -64.5 -162t-72 -166.5t-73.5 -161t-69 -147.5q-13 -28 -33 -33q-7 -3 -14 -3q-11 0 -21 6q-16 9 -23.5 29t3.5 42 q82 153 158.5 333t151.5 364q-35 50 -67 123t-64.5 159t-65.5 179.5t-69.5 185t-77 175.5t-86.5 150q-7 10 -7 19q0 7 4 14zM599.5 1557.5q-2.5 14.5 10.5 23.5q39 27 80 56t82 57.5t80 55.5t74 50q9 6 22.5 -1t24 -20t14.5 -27t-6 -22q-35 -24 -73.5 -51.5t-80 -56 t-83.5 -57.5t-82 -56q-11 -5 -25 2t-24.5 19.5t-13 27z" />
<glyph unicode="&#xde;" horiz-adv-x="1343" d="M249.5 231.5q-1.5 18.5 9 33t34.5 14.5h24q13 92 29 190.5t33 194.5q15 97 31 197.5t30 203.5l-67 -23q-27 -10 -45 0.5t-24.5 29t1 38.5t31.5 29q58 22 121 41l30 213q3 21 21 31t37 8.5t33 -14.5t10 -36l-27 -180q71 14 144 22.5t141 12t129 2t108 -7.5 q104 -15 178.5 -46t122 -73.5t69 -93.5t19 -105.5t-28 -110t-71.5 -106.5q-64 -72 -163 -144.5t-218.5 -137t-250 -117t-257.5 -84.5l-75 -20q-10 -76 -14.5 -136t-6.5 -94q-1 -32 -16.5 -47t-33.5 -15t-33 13.5t-15 36.5q-2 42 2.5 99.5t13.5 125.5q-2 0 -2 1v1 q-24 3 -38 19t-15.5 34.5zM422 297l80 14q69 18 145 46t152 63t149.5 75.5t139 84t119 87.5t89.5 87q28 32 44 70t17.5 76.5t-13.5 75.5t-48 68.5t-85.5 54.5t-127.5 34q-133 18 -269 5t-267 -44q-14 -103 -29.5 -204.5t-34.5 -207.5q-18 -96 -33.5 -195t-27.5 -190z" />
<glyph unicode="&#xdf;" horiz-adv-x="911" d="M6 -285q-6 25 9 42t44 22q10 83 23 171t28 176t32 173t34.5 161.5t34.5 142.5t33 116q24 81 52 159.5t61.5 150t73.5 132t89 105.5q55 49 112.5 67t108.5 10t89 -39t53.5 -79.5t3 -111.5t-63.5 -136q-19 -28 -43.5 -53.5t-50.5 -48t-51 -42.5l-45 -36q-25 -20 -31.5 -43 t21.5 -58q23 -29 60.5 -62.5t74.5 -74t66 -91t36 -114.5q6 -57 -14 -109t-59 -95.5t-92.5 -75.5t-115 -47.5t-126 -13.5t-125.5 28q-7 3 -17 8t-19.5 13t-17 19t-10.5 25q-4 22 2.5 37t18.5 22.5t26.5 8.5t26.5 -6q7 -3 11.5 -10t9 -14.5t9.5 -14.5t13 -10q39 -17 83.5 -18 t88 10.5t82.5 34t68.5 52.5t45.5 66t13 76q-5 53 -33 98t-64.5 82.5t-74 68.5t-60.5 56q-43 48 -36 103.5t69 109.5q22 19 45.5 36.5t46.5 36t44.5 39.5t39.5 48q35 50 46.5 90.5t5 70.5t-27 47t-50 20t-64.5 -9.5t-69 -42.5q-23 -20 -51.5 -54.5t-60 -92t-66.5 -143.5 t-72 -208q-29 -93 -58.5 -213t-56.5 -263.5t-50.5 -307.5t-39.5 -344q-2 -23 -16 -32t-30 -7.5t-30 11t-16 22.5q-2 15 -2 32v37q0 20 -10.5 43.5t-14.5 40.5z" />
<glyph unicode="&#xe0;" horiz-adv-x="995" d="M52 146q-2 18 -2 37q0 60 20 134q20 75 54 139.5t79 121.5q75 96 159.5 170t190.5 116q14 6 32 6q4 0 7 1q14 0 28 -2q18 -2 33 -7t23 -10q50 -47 53 -86q2 -16 -9.5 -30t-27 -21.5t-30.5 -5.5t-19 18q-2 8 -4.5 16.5t-7.5 14.5q-13 9 -32 12t-36 -2q-32 -9 -67.5 -31 t-72.5 -55t-75 -75.5t-76 -92.5q-31 -40 -62 -93.5t-48 -119.5q-16 -58 -16 -101v-7q2 -45 18 -70q15 -26 42.5 -29t59.5 17q55 33 118.5 93t128 136t124.5 163t108 175q13 20 36 24.5t40 -6.5q12 -8 15.5 -18.5t3 -23t-4.5 -25t-8 -23.5q-40 -118 -61 -230.5t-21 -203.5 q0 -62 30 -74q7 -3 15 -2q26 0 60 29q40 34 87 87t94 114t90.5 124.5t76.5 118.5q12 20 28 23.5t29 -4.5t17 -25l2 -10q0 -13 -8 -27q-37 -68 -86.5 -140t-103 -138.5t-108 -122.5t-102.5 -90q-38 -26 -76 -33q-12 -2 -23 -2q-24 0 -45 10q-31 14 -51 51.5t-22 100.5 q-2 27 1.5 61t10 71t15 74.5t18.5 71.5q-38 -56 -81 -112t-91.5 -108.5t-102.5 -99.5t-112 -85q-65 -42 -118 -42h-5q-55 2 -89.5 41t-42.5 112zM461.5 1240q2.5 15 11.5 29t22 22.5t23 2.5q46 -29 86 -56.5t78 -55t75.5 -56t78.5 -59.5q10 -7 6.5 -21t-14 -26t-24.5 -18.5 t-26 1.5q-47 31 -83.5 56.5t-71 50t-70.5 50.5t-82 58q-12 7 -9.5 22z" />
<glyph unicode="&#xe1;" horiz-adv-x="995" d="M52 146q-2 18 -2 37q0 60 20 134q20 75 54 139.5t79 121.5q75 96 159.5 170t190.5 116q14 6 32 6q4 0 7 1q14 0 28 -2q18 -2 33 -7t23 -10q50 -47 53 -86q2 -16 -9.5 -30t-27 -21.5t-30.5 -5.5t-19 18q-2 8 -4.5 16.5t-7.5 14.5q-13 9 -32 12t-36 -2q-32 -9 -67.5 -31 t-72.5 -55t-75 -75.5t-76 -92.5q-31 -40 -62 -93.5t-48 -119.5q-16 -58 -16 -101v-7q2 -45 18 -70q15 -26 42.5 -29t59.5 17q55 33 118.5 93t128 136t124.5 163t108 175q13 20 36 24.5t40 -6.5q12 -8 15.5 -18.5t3 -23t-4.5 -25t-8 -23.5q-40 -118 -61 -230.5t-21 -203.5 q0 -62 30 -74q7 -3 15 -2q26 0 60 29q40 34 87 87t94 114t90.5 124.5t76.5 118.5q12 20 28 23.5t29 -4.5t17 -25l2 -10q0 -13 -8 -27q-37 -68 -86.5 -140t-103 -138.5t-108 -122.5t-102.5 -90q-38 -26 -76 -33q-12 -2 -23 -2q-24 0 -45 10q-31 14 -51 51.5t-22 100.5 q-2 27 1.5 61t10 71t15 74.5t18.5 71.5q-38 -56 -81 -112t-91.5 -108.5t-102.5 -99.5t-112 -85q-65 -42 -118 -42h-5q-55 2 -89.5 41t-42.5 112zM613.5 1045.5q-2.5 14.5 10.5 23.5q39 27 80 56t82 57.5t80 55.5t74 50q9 6 22.5 -1t24 -20t14.5 -27t-6 -22 q-35 -24 -73.5 -51.5t-80 -56t-83.5 -57.5t-82 -56q-11 -5 -25 2t-24.5 19.5t-13 27z" />
<glyph unicode="&#xe2;" horiz-adv-x="995" d="M52 146q-2 18 -2 37q0 60 20 134q20 75 54 139.5t79 121.5q75 96 159.5 170t190.5 116q14 6 32 6q4 0 7 1q14 0 28 -2q18 -2 33 -7t23 -10q50 -47 53 -86q2 -16 -9.5 -30t-27 -21.5t-30.5 -5.5t-19 18q-2 8 -4.5 16.5t-7.5 14.5q-13 9 -32 12t-36 -2q-32 -9 -67.5 -31 t-72.5 -55t-75 -75.5t-76 -92.5q-31 -40 -62 -93.5t-48 -119.5q-16 -58 -16 -101v-7q2 -45 18 -70q15 -26 42.5 -29t59.5 17q55 33 118.5 93t128 136t124.5 163t108 175q13 20 36 24.5t40 -6.5q12 -8 15.5 -18.5t3 -23t-4.5 -25t-8 -23.5q-40 -118 -61 -230.5t-21 -203.5 q0 -62 30 -74q7 -3 15 -2q26 0 60 29q40 34 87 87t94 114t90.5 124.5t76.5 118.5q12 20 28 23.5t29 -4.5t17 -25l2 -10q0 -13 -8 -27q-37 -68 -86.5 -140t-103 -138.5t-108 -122.5t-102.5 -90q-38 -26 -76 -33q-12 -2 -23 -2q-24 0 -45 10q-31 14 -51 51.5t-22 100.5 q-2 27 1.5 61t10 71t15 74.5t18.5 71.5q-38 -56 -81 -112t-91.5 -108.5t-102.5 -99.5t-112 -85q-65 -42 -118 -42h-5q-55 2 -89.5 41t-42.5 112zM451.5 1021q-2.5 14 8.5 23q14 12 38 30.5t52.5 39.5t59 42.5t58.5 38.5t50 27t33 10q22 0 50.5 -22t58 -52t55.5 -62t43 -52 q9 -10 5 -24.5t-15 -25t-25 -14.5t-24 7q-21 23 -44 48t-44 45.5t-38 34t-26 13.5t-37 -13.5t-64 -34t-73.5 -45.5t-65.5 -48q-10 -10 -22.5 -6t-21.5 15t-11.5 25z" />
<glyph unicode="&#xe3;" horiz-adv-x="995" d="M52 146q-2 18 -2 37q0 60 20 134q20 75 54 139.5t79 121.5q75 96 159.5 170t190.5 116q14 6 32 6q4 0 7 1q14 0 28 -2q18 -2 33 -7t23 -10q50 -47 53 -86q2 -16 -9.5 -30t-27 -21.5t-30.5 -5.5t-19 18q-2 8 -4.5 16.5t-7.5 14.5q-13 9 -32 12t-36 -2q-32 -9 -67.5 -31 t-72.5 -55t-75 -75.5t-76 -92.5q-31 -40 -62 -93.5t-48 -119.5q-16 -58 -16 -101v-7q2 -45 18 -70q15 -26 42.5 -29t59.5 17q55 33 118.5 93t128 136t124.5 163t108 175q13 20 36 24.5t40 -6.5q12 -8 15.5 -18.5t3 -23t-4.5 -25t-8 -23.5q-40 -118 -61 -230.5t-21 -203.5 q0 -62 30 -74q7 -3 15 -2q26 0 60 29q40 34 87 87t94 114t90.5 124.5t76.5 118.5q12 20 28 23.5t29 -4.5t17 -25l2 -10q0 -13 -8 -27q-37 -68 -86.5 -140t-103 -138.5t-108 -122.5t-102.5 -90q-38 -26 -76 -33q-12 -2 -23 -2q-24 0 -45 10q-31 14 -51 51.5t-22 100.5 q-2 27 1.5 61t10 71t15 74.5t18.5 71.5q-38 -56 -81 -112t-91.5 -108.5t-102.5 -99.5t-112 -85q-65 -42 -118 -42h-5q-55 2 -89.5 41t-42.5 112zM467 1044q7 29 24.5 55t43.5 45t60 29.5t75 9.5q39 -1 69 -21.5t55.5 -44.5t48.5 -44t48 -19q35 2 59.5 23.5t30.5 52.5 q4 19 17 25.5t26 1.5t22 -20.5t7 -39.5q-2 -22 -15 -44.5t-35 -40.5t-51.5 -29t-64.5 -9q-43 2 -73 22t-54 43.5t-46.5 42.5t-49.5 19q-44 0 -75 -20t-52 -68q-9 -23 -23.5 -29t-27 0t-19 22.5t-0.5 37.5z" />
<glyph unicode="&#xe4;" horiz-adv-x="995" d="M52 146q-2 18 -2 37q0 60 20 134q20 75 54 139.5t79 121.5q75 96 159.5 170t190.5 116q14 6 32 6q4 0 7 1q14 0 28 -2q18 -2 33 -7t23 -10q50 -47 53 -86q2 -16 -9.5 -30t-27 -21.5t-30.5 -5.5t-19 18q-2 8 -4.5 16.5t-7.5 14.5q-13 9 -32 12t-36 -2q-32 -9 -67.5 -31 t-72.5 -55t-75 -75.5t-76 -92.5q-31 -40 -62 -93.5t-48 -119.5q-16 -58 -16 -101v-7q2 -45 18 -70q15 -26 42.5 -29t59.5 17q55 33 118.5 93t128 136t124.5 163t108 175q13 20 36 24.5t40 -6.5q12 -8 15.5 -18.5t3 -23t-4.5 -25t-8 -23.5q-40 -118 -61 -230.5t-21 -203.5 q0 -62 30 -74q7 -3 15 -2q26 0 60 29q40 34 87 87t94 114t90.5 124.5t76.5 118.5q12 20 28 23.5t29 -4.5t17 -25l2 -10q0 -13 -8 -27q-37 -68 -86.5 -140t-103 -138.5t-108 -122.5t-102.5 -90q-38 -26 -76 -33q-12 -2 -23 -2q-24 0 -45 10q-31 14 -51 51.5t-22 100.5 q-2 27 1.5 61t10 71t15 74.5t18.5 71.5q-38 -56 -81 -112t-91.5 -108.5t-102.5 -99.5t-112 -85q-65 -42 -118 -42h-5q-55 2 -89.5 41t-42.5 112zM491 1028.5q-2 14.5 4 29.5t17.5 28t22.5 18q14 7 30.5 13.5t32.5 7.5t30.5 -4.5t23.5 -20.5q13 -23 3 -50t-32 -42 q-9 -3 -23.5 -7t-31 -5.5t-32.5 0t-28 8.5q-15 10 -17 24.5zM842 1054.5q3 12.5 13 24.5t25.5 21t31.5 14q10 4 23 7t25.5 2t23.5 -6t18 -15q17 -26 8 -51t-41 -37q-34 -14 -68 -11.5t-53 27.5q-9 12 -6 24.5z" />
<glyph unicode="&#xe5;" horiz-adv-x="995" d="M52 146q-2 18 -2 37q0 60 20 134q20 75 54 139.5t79 121.5q75 96 159.5 170t190.5 116q14 6 32 6q4 0 7 1q14 0 28 -2q18 -2 33 -7t23 -10q50 -47 53 -86q2 -16 -9.5 -30t-27 -21.5t-30.5 -5.5t-19 18q-2 8 -4.5 16.5t-7.5 14.5q-13 9 -32 12t-36 -2q-32 -9 -67.5 -31 t-72.5 -55t-75 -75.5t-76 -92.5q-31 -40 -62 -93.5t-48 -119.5q-16 -58 -16 -101v-7q2 -45 18 -70q15 -26 42.5 -29t59.5 17q55 33 118.5 93t128 136t124.5 163t108 175q13 20 36 24.5t40 -6.5q12 -8 15.5 -18.5t3 -23t-4.5 -25t-8 -23.5q-40 -118 -61 -230.5t-21 -203.5 q0 -62 30 -74q7 -3 15 -2q26 0 60 29q40 34 87 87t94 114t90.5 124.5t76.5 118.5q12 20 28 23.5t29 -4.5t17 -25l2 -10q0 -13 -8 -27q-37 -68 -86.5 -140t-103 -138.5t-108 -122.5t-102.5 -90q-38 -26 -76 -33q-12 -2 -23 -2q-24 0 -45 10q-31 14 -51 51.5t-22 100.5 q-2 27 1.5 61t10 71t15 74.5t18.5 71.5q-38 -56 -81 -112t-91.5 -108.5t-102.5 -99.5t-112 -85q-65 -42 -118 -42h-5q-55 2 -89.5 41t-42.5 112zM539 1141q0 37 13.5 69.5t37.5 57t56.5 39t70.5 14.5q37 0 69 -14.5t56 -39t37.5 -57t13.5 -69.5q0 -38 -13.5 -70.5 t-37.5 -56.5t-56 -37.5t-69 -13.5q-38 0 -70.5 13.5t-56.5 37.5t-37.5 56.5t-13.5 70.5zM598 1141q0 -26 8.5 -48t24.5 -38t38 -25.5t48 -9.5q25 0 46.5 9.5t37.5 25.5t24.5 38t8.5 48q0 25 -8.5 47t-24.5 38t-37.5 25t-46.5 9q-26 0 -48 -9t-38 -25t-24.5 -38t-8.5 -47z " />
<glyph unicode="&#xe6;" horiz-adv-x="1343" d="M6 164q7 66 36.5 137.5t73 140t96.5 131t106.5 110t103 76.5t86.5 32q44 4 85 -10.5t75 -37.5t59 -50t37 -48q22 28 41 54t29 40q7 10 18 13t23.5 1t24 -9.5t18.5 -18.5q19 18 49.5 36t64 32t66 22.5t55.5 9.5q48 1 82 -14.5t56 -38.5t32.5 -50.5t9.5 -51.5 q0 -41 -24 -77t-66.5 -67.5t-99.5 -58.5t-123 -48.5t-138 -38.5t-143 -28q-5 -39 4 -79t28.5 -75t46 -62.5t56.5 -41.5q34 -16 79 -22t94.5 -2t100 18t95.5 37q20 10 36.5 1t24 -25.5t3 -35t-26.5 -28.5q-63 -26 -125 -41t-119 -18.5t-108 3.5t-92 25q-47 19 -84 54 t-61.5 77.5t-36.5 87.5t-9 84q-43 -47 -78.5 -84t-70 -68.5t-72.5 -61t-86 -60.5q-66 -43 -128.5 -55t-109.5 5.5t-73.5 62.5t-20.5 116zM96 160q-5 -42 13 -64t48.5 -27t69 5.5t76.5 34.5q48 30 104 81t110.5 109t102 117t78.5 106q11 14 8.5 30t-10.5 30q-8 16 -29.5 39.5 t-50.5 43.5t-61.5 30.5t-60.5 0.5q-40 -15 -83.5 -48.5t-86.5 -78.5t-82 -98.5t-70 -108t-51 -107t-25 -95.5zM762 442q76 9 153.5 29.5t143 47.5t113 59.5t63.5 66.5q7 17 2 34.5t-18 31.5t-31.5 22t-38.5 6q-48 -6 -101 -31.5t-105 -65.5t-99 -91t-82 -109z" />
<glyph unicode="&#xe7;" horiz-adv-x="954" d="M150 379q3 72 27.5 141t64 131t90.5 113.5t107 87.5q55 36 113 56q48 16 92 17q9 0 18 -1q43 -3 78 -19t46 -47q19 3 28.5 -4.5t11.5 -21t-3 -31t-14 -33.5q0 -42 -2.5 -81t-13.5 -71q-6 -18 -21.5 -26.5t-31 -7.5t-28.5 11t-14 30v12q0 25 6 53q8 36 17 66v5 q0 63 -70 77q-10 2 -22 2q-27 0 -57 -10q-44 -14 -88 -44t-86.5 -74t-76 -97t-54 -112t-21.5 -120v-9q0 -130 55 -205q57 -77 174 -77q47 0 92.5 11.5t77.5 23.5q67 28 140 77.5t142 110t128.5 127.5t99.5 129q14 22 31 25t30 -6q14 -8 18 -26q1 -5 1 -11q0 -13 -8 -25 q-37 -58 -91.5 -123t-123.5 -128.5t-151 -121.5t-175 -102q-18 -8 -45 -17t-57 -16.5t-58.5 -12.5t-48.5 -5q-167 6 -251 101q-76 87 -77 247q0 15 1 31zM321.5 -347.5q-3.5 11.5 3 22.5t25.5 15q14 2 34 10t39 18.5t33.5 23t16.5 24.5t-9.5 25t-27 28.5t-30.5 33.5t-19 40 q-2 10 -0.5 23t5 26.5t8 27t7.5 25.5q9 31 21.5 45t38.5 14q24 0 32 -17.5t-6 -43.5q-15 -31 -19.5 -55t3.5 -45q4 -13 17 -25.5t27 -26.5t25 -31t13 -38q1 -28 -20.5 -54t-53 -46.5t-66 -33.5t-57.5 -14q-15 -1 -26 8t-14.5 20.5z" />
<glyph unicode="&#xe8;" horiz-adv-x="776" d="M150 270q-4 29 -4 59q0 60 15 121q22 92 65 176.5t101 156t119 118.5q36 28 73 39q34 10 64 10h5q32 -1 58.5 -12t41.5 -27q20 -22 29 -49.5t10 -56.5t-4.5 -59t-15.5 -58q-24 -70 -68 -127.5t-104 -101.5t-133.5 -75t-157.5 -48q-2 -13 -2 -21t-2 -14v-15q0 -6 2 -14 q7 -48 26 -83.5t46.5 -58t61.5 -30.5q17 -4 34.5 -4t35.5 4q45 10 92 35.5t94.5 62.5t94.5 82t90 94t81.5 99t70.5 96q12 18 29 19.5t30 -6.5q12 -8 18 -24q2 -5 2 -10q0 -11 -8 -22q-47 -66 -108.5 -144.5t-134 -151.5t-154 -131t-166.5 -83q-36 -11 -74 -11q-15 0 -31 2 q-54 6 -99.5 35.5t-79 85.5t-43.5 142zM246 420q78 21 138 45.5t105 58.5t77 80t55 111q12 31 12 60q-1 5 -1 10q-2 33 -16 55q-16 23 -43 23q-4 -1 -8 -1q-33 -4 -65 -24q-21 -14 -45.5 -38.5t-50.5 -56.5t-51.5 -70t-46.5 -80t-37 -85.5t-23 -87.5zM373.5 1300 q2.5 15 11.5 29t22 22.5t23 2.5q46 -29 86 -56.5t78 -55t75.5 -56t78.5 -59.5q10 -7 6.5 -21t-14 -26t-24.5 -18.5t-26 1.5q-47 31 -83.5 56.5t-71 50t-70.5 50.5t-82 58q-12 7 -9.5 22z" />
<glyph unicode="&#xe9;" horiz-adv-x="776" d="M150 270q-4 29 -4 59q0 60 15 121q22 92 65 176.5t101 156t119 118.5q36 28 73 39q34 10 64 10h5q32 -1 58.5 -12t41.5 -27q20 -22 29 -49.5t10 -56.5t-4.5 -59t-15.5 -58q-24 -70 -68 -127.5t-104 -101.5t-133.5 -75t-157.5 -48q-2 -13 -2 -21t-2 -14v-15q0 -6 2 -14 q7 -48 26 -83.5t46.5 -58t61.5 -30.5q17 -4 34.5 -4t35.5 4q45 10 92 35.5t94.5 62.5t94.5 82t90 94t81.5 99t70.5 96q12 18 29 19.5t30 -6.5q12 -8 18 -24q2 -5 2 -10q0 -11 -8 -22q-47 -66 -108.5 -144.5t-134 -151.5t-154 -131t-166.5 -83q-36 -11 -74 -11q-15 0 -31 2 q-54 6 -99.5 35.5t-79 85.5t-43.5 142zM246 420q78 21 138 45.5t105 58.5t77 80t55 111q12 31 12 60q-1 5 -1 10q-2 33 -16 55q-16 23 -43 23q-4 -1 -8 -1q-33 -4 -65 -24q-21 -14 -45.5 -38.5t-50.5 -56.5t-51.5 -70t-46.5 -80t-37 -85.5t-23 -87.5zM564.5 1105.5 q-2.5 14.5 10.5 23.5q39 27 80 56t82 57.5t80 55.5t74 50q9 6 22.5 -1t24 -20t14.5 -27t-6 -22q-35 -24 -73.5 -51.5t-80 -56t-83.5 -57.5t-82 -56q-11 -5 -25 2t-24.5 19.5t-13 27z" />
<glyph unicode="&#xea;" horiz-adv-x="776" d="M150 270q-4 29 -4 59q0 60 15 121q22 92 65 176.5t101 156t119 118.5q36 28 73 39q34 10 64 10h5q32 -1 58.5 -12t41.5 -27q20 -22 29 -49.5t10 -56.5t-4.5 -59t-15.5 -58q-24 -70 -68 -127.5t-104 -101.5t-133.5 -75t-157.5 -48q-2 -13 -2 -21t-2 -14v-15q0 -6 2 -14 q7 -48 26 -83.5t46.5 -58t61.5 -30.5q17 -4 34.5 -4t35.5 4q45 10 92 35.5t94.5 62.5t94.5 82t90 94t81.5 99t70.5 96q12 18 29 19.5t30 -6.5q12 -8 18 -24q2 -5 2 -10q0 -11 -8 -22q-47 -66 -108.5 -144.5t-134 -151.5t-154 -131t-166.5 -83q-36 -11 -74 -11q-15 0 -31 2 q-54 6 -99.5 35.5t-79 85.5t-43.5 142zM246 420q78 21 138 45.5t105 58.5t77 80t55 111q12 31 12 60q-1 5 -1 10q-2 33 -16 55q-16 23 -43 23q-4 -1 -8 -1q-33 -4 -65 -24q-21 -14 -45.5 -38.5t-50.5 -56.5t-51.5 -70t-46.5 -80t-37 -85.5t-23 -87.5zM369.5 1081 q-2.5 14 8.5 23q14 12 38 30.5t52.5 39.5t59 42.5t58.5 38.5t50 27t33 10q22 0 50.5 -22t58 -52t55.5 -62t43 -52q9 -10 5 -24.5t-15 -25t-25 -14.5t-24 7q-21 23 -44 48t-44 45.5t-38 34t-26 13.5t-37 -13.5t-64 -34t-73.5 -45.5t-65.5 -48q-10 -10 -22.5 -6t-21.5 15 t-11.5 25z" />
<glyph unicode="&#xeb;" horiz-adv-x="776" d="M150 270q-4 29 -4 59q0 60 15 121q22 92 65 176.5t101 156t119 118.5q36 28 73 39q34 10 64 10h5q32 -1 58.5 -12t41.5 -27q20 -22 29 -49.5t10 -56.5t-4.5 -59t-15.5 -58q-24 -70 -68 -127.5t-104 -101.5t-133.5 -75t-157.5 -48q-2 -13 -2 -21t-2 -14v-15q0 -6 2 -14 q7 -48 26 -83.5t46.5 -58t61.5 -30.5q17 -4 34.5 -4t35.5 4q45 10 92 35.5t94.5 62.5t94.5 82t90 94t81.5 99t70.5 96q12 18 29 19.5t30 -6.5q12 -8 18 -24q2 -5 2 -10q0 -11 -8 -22q-47 -66 -108.5 -144.5t-134 -151.5t-154 -131t-166.5 -83q-36 -11 -74 -11q-15 0 -31 2 q-54 6 -99.5 35.5t-79 85.5t-43.5 142zM246 420q78 21 138 45.5t105 58.5t77 80t55 111q12 31 12 60q-1 5 -1 10q-2 33 -16 55q-16 23 -43 23q-4 -1 -8 -1q-33 -4 -65 -24q-21 -14 -45.5 -38.5t-50.5 -56.5t-51.5 -70t-46.5 -80t-37 -85.5t-23 -87.5zM378 1112.5 q-2 14.5 4 29.5t17.5 28t22.5 18q14 7 30.5 13.5t32.5 7.5t30.5 -4.5t23.5 -20.5q13 -23 3 -50t-32 -42q-9 -3 -23.5 -7t-31 -5.5t-32.5 0t-28 8.5q-15 10 -17 24.5zM729 1138.5q3 12.5 13 24.5t25.5 21t31.5 14q10 4 23 7t25.5 2t23.5 -6t18 -15q17 -26 8 -51t-41 -37 q-34 -14 -68 -11.5t-53 27.5q-9 12 -6 24.5z" />
<glyph unicode="&#xec;" horiz-adv-x="535" d="M143 195q-2 33 1.5 73.5t11 82t19.5 82t28 73.5q-14 5 -16.5 20t14.5 43q5 11 11.5 20.5t12.5 20.5q5 10 10 18.5t7 16.5q5 17 10.5 28t17.5 23q18 16 38.5 18t36 -7t23 -27.5t-0.5 -42.5q-3 -18 -19 -37q-6 -11 -13.5 -21t-17.5 -22q-19 -37 -34.5 -85t-26 -97.5 t-15.5 -95t-3 -76.5q3 -36 11.5 -60t24 -34t38.5 -4t55 30q25 18 56.5 48t65.5 66.5t69.5 78.5t68 84.5t60.5 82.5t48 74q12 18 29 20.5t30.5 -5.5t19 -24t-6.5 -34q-19 -33 -46 -74t-59 -85t-68.5 -89.5t-74.5 -87t-76.5 -77t-74.5 -60.5q-52 -35 -98.5 -45t-82.5 7.5 t-58.5 62t-25.5 117.5zM101.5 1076q2.5 15 11.5 29t22 22.5t23 2.5q46 -29 86 -56.5t78 -55t75.5 -56t78.5 -59.5q10 -7 6.5 -21t-14 -26t-24.5 -18.5t-26 1.5q-47 31 -83.5 56.5t-71 50t-70.5 50.5t-82 58q-12 7 -9.5 22z" />
<glyph unicode="&#xed;" horiz-adv-x="535" d="M143 195q-2 33 1.5 73.5t11 82t19.5 82t28 73.5q-14 5 -16.5 20t14.5 43q5 11 11.5 20.5t12.5 20.5q5 10 10 18.5t7 16.5q5 17 10.5 28t17.5 23q18 16 38.5 18t36 -7t23 -27.5t-0.5 -42.5q-3 -18 -19 -37q-6 -11 -13.5 -21t-17.5 -22q-19 -37 -34.5 -85t-26 -97.5 t-15.5 -95t-3 -76.5q3 -36 11.5 -60t24 -34t38.5 -4t55 30q25 18 56.5 48t65.5 66.5t69.5 78.5t68 84.5t60.5 82.5t48 74q12 18 29 20.5t30.5 -5.5t19 -24t-6.5 -34q-19 -33 -46 -74t-59 -85t-68.5 -89.5t-74.5 -87t-76.5 -77t-74.5 -60.5q-52 -35 -98.5 -45t-82.5 7.5 t-58.5 62t-25.5 117.5zM269.5 889.5q-2.5 14.5 10.5 23.5q39 27 80 56t82 57.5t80 55.5t74 50q9 6 22.5 -1t24 -20t14.5 -27t-6 -22q-35 -24 -73.5 -51.5t-80 -56t-83.5 -57.5t-82 -56q-11 -5 -25 2t-24.5 19.5t-13 27z" />
<glyph unicode="&#xee;" horiz-adv-x="535" d="M143 195q-2 33 1.5 73.5t11 82t19.5 82t28 73.5q-14 5 -16.5 20t14.5 43q5 11 11.5 20.5t12.5 20.5q5 10 10 18.5t7 16.5q5 17 10.5 28t17.5 23q18 16 38.5 18t36 -7t23 -27.5t-0.5 -42.5q-3 -18 -19 -37q-6 -11 -13.5 -21t-17.5 -22q-19 -37 -34.5 -85t-26 -97.5 t-15.5 -95t-3 -76.5q3 -36 11.5 -60t24 -34t38.5 -4t55 30q25 18 56.5 48t65.5 66.5t69.5 78.5t68 84.5t60.5 82.5t48 74q12 18 29 20.5t30.5 -5.5t19 -24t-6.5 -34q-19 -33 -46 -74t-59 -85t-68.5 -89.5t-74.5 -87t-76.5 -77t-74.5 -60.5q-52 -35 -98.5 -45t-82.5 7.5 t-58.5 62t-25.5 117.5zM102.5 875q-2.5 14 8.5 23q14 12 38 30.5t52.5 39.5t59 42.5t58.5 38.5t50 27t33 10q22 0 50.5 -22t58 -52t55.5 -62t43 -52q9 -10 5 -24.5t-15 -25t-25 -14.5t-24 7q-21 23 -44 48t-44 45.5t-38 34t-26 13.5t-37 -13.5t-64 -34t-73.5 -45.5 t-65.5 -48q-10 -10 -22.5 -6t-21.5 15t-11.5 25z" />
<glyph unicode="&#xef;" horiz-adv-x="535" d="M143 195q-2 33 1.5 73.5t11 82t19.5 82t28 73.5q-14 5 -16.5 20t14.5 43q5 11 11.5 20.5t12.5 20.5q5 10 10 18.5t7 16.5q5 17 10.5 28t17.5 23q18 16 38.5 18t36 -7t23 -27.5t-0.5 -42.5q-3 -18 -19 -37q-6 -11 -13.5 -21t-17.5 -22q-19 -37 -34.5 -85t-26 -97.5 t-15.5 -95t-3 -76.5q3 -36 11.5 -60t24 -34t38.5 -4t55 30q25 18 56.5 48t65.5 66.5t69.5 78.5t68 84.5t60.5 82.5t48 74q12 18 29 20.5t30.5 -5.5t19 -24t-6.5 -34q-19 -33 -46 -74t-59 -85t-68.5 -89.5t-74.5 -87t-76.5 -77t-74.5 -60.5q-52 -35 -98.5 -45t-82.5 7.5 t-58.5 62t-25.5 117.5zM135 912.5q-2 14.5 4 29.5t17.5 28t22.5 18q14 7 30.5 13.5t32.5 7.5t30.5 -4.5t23.5 -20.5q13 -23 3 -50t-32 -42q-9 -3 -23.5 -7t-31 -5.5t-32.5 0t-28 8.5q-15 10 -17 24.5zM486 938.5q3 12.5 13 24.5t25.5 21t31.5 14q10 4 23 7t25.5 2t23.5 -6 t18 -15q17 -26 8 -51t-41 -37q-34 -14 -68 -11.5t-53 27.5q-9 12 -6 24.5z" />
<glyph unicode="&#xf0;" horiz-adv-x="1169" d="M205 231q0 78 38.5 149t106.5 125.5t161 87t202 32.5q50 0 99.5 -9.5t95 -26.5t84 -40.5t67.5 -52.5q2 18 3 36.5t1 36.5q0 64 -11 129t-29.5 128t-43 121t-51.5 108q-32 -19 -61.5 -38.5t-55.5 -41.5q-15 -12 -35 -12q-23 0 -42 14.5t-19 36.5q0 12 12.5 27t34.5 31.5 t50 34t60 34.5q-40 55 -79.5 87t-71.5 32q-14 0 -27 -4.5t-24 -4.5q-19 0 -29 8.5t-10 22.5q0 15 10.5 29t26.5 25t35 17.5t36 6.5q35 0 68 -15.5t59 -35.5q23 -19 50 -49t53 -68q43 22 78.5 37.5t52.5 23.5q5 3 10 3.5t10 0.5q22 0 35.5 -16.5t13.5 -36.5q0 -26 -26 -39 q-26 -12 -57.5 -26.5t-65.5 -32.5q31 -56 58 -122t47 -137t32 -146t12 -150q0 -143 -47 -254t-129 -187t-192 -115.5t-236 -39.5q-63 0 -127 16.5t-116 51t-84.5 86t-32.5 122.5zM313 231q0 -53 26.5 -87.5t66.5 -55t87 -29t89 -8.5q73 0 146 23.5t135.5 64t109 94.5 t65.5 115q-18 36 -54 68t-82.5 56t-101.5 38t-112 14q-91 0 -161 -29t-117.5 -72.5t-72 -95t-24.5 -96.5z" />
<glyph unicode="&#xf1;" horiz-adv-x="1100" d="M188 131q0 36 3 89.5t7.5 108.5t10.5 103t12 74q-17 6 -27 21.5t7 41.5q5 11 11.5 21.5t12.5 19.5q5 11 10 20t7 17q5 19 8.5 33.5t15.5 28.5q17 20 42 21t46 -11q17 -13 20 -26t1 -27q-3 -11 -9 -20.5t-14 -18.5q-8 -11 -16.5 -22t-16.5 -25q-8 -34 -15 -75.5t-13 -85 t-10 -87.5t-5 -84q44 82 95 161t104.5 147t106 122.5t98.5 87.5q45 32 84 44q26 8 48 8q10 0 20 -2q30 -6 49 -26.5t26 -52.5q4 -17 6.5 -31t1.5 -33t-4 -46.5t-10 -71.5q-11 -60 -19.5 -109.5t-11.5 -93.5q-1 -20 -2 -38q0 -22 2 -42q4 -36 17 -71q13 -37 47 -41h7 q31 0 65 28q30 25 70 70t81 98.5t78.5 109.5t64.5 103q12 20 28 22.5t29 -5.5q13 -10 19 -26q2 -6 2 -12q0 -11 -6 -22q-27 -50 -66.5 -108t-82.5 -113.5t-85.5 -103.5t-74.5 -76q-43 -39 -83 -53q-30 -11 -57 -10q-9 0 -19 1q-34 5 -61 29.5t-44 65.5q-13 31 -18 79 q-4 37 -4 79q1 13 1 26q2 57 8.5 117.5t18.5 115.5q9 47 9 76v10q-2 31 -14 42.5t-33 5.5t-48 -27q-42 -32 -97 -91.5t-112.5 -137.5t-113 -168t-99.5 -181q-7 -14 -16.5 -20.5t-20.5 -8.5t-21.5 -0.5t-19.5 3.5q-14 5 -22.5 18t-8.5 35zM399 1020q7 29 24.5 55t43.5 45 t60 29.5t75 9.5q39 -1 69 -21.5t55.5 -44.5t48.5 -44t48 -19q35 2 59.5 23.5t30.5 52.5q4 19 17 25.5t26 1.5t22 -20.5t7 -39.5q-2 -22 -15 -44.5t-35 -40.5t-51.5 -29t-64.5 -9q-43 2 -73 22t-54 43.5t-46.5 42.5t-49.5 19q-44 0 -75 -20t-52 -68q-9 -23 -23.5 -29t-27 0 t-19 22.5t-0.5 37.5z" />
<glyph unicode="&#xf2;" horiz-adv-x="874" d="M106 310q6 80 32.5 152.5t71.5 136t99 112.5q5 5 9.5 6.5t9.5 3.5q6 2 11.5 3.5t14.5 4.5q-13 40 -13 74.5t10.5 62t29 48t41.5 32.5q20 11 48 13h12q23 0 49 -6q32 -8 64.5 -28.5t59.5 -54.5q41 -50 64 -99.5t33 -100.5q12 -52 12 -104v-11q0 -47 -4 -96q12 -8 31 -10 t30 0q90 11 148 43t100 77q15 16 34 18t32 -5.5t17 -22.5q1 -3 1 -6q0 -12 -12 -27q-50 -60 -130.5 -103t-181.5 -54q-20 -2 -44 -0.5t-46 6.5q-6 -39 -23.5 -82.5t-45.5 -86.5t-65.5 -83.5t-82.5 -71.5q-62 -43 -124 -57q-31 -7 -60.5 -6.5t-56.5 6.5q-54 14 -95.5 53.5 t-60.5 102.5q-20 66 -20 132q0 14 1 28zM200 298q-1 -17 0 -32q0 -47 11 -90q12 -41 39.5 -65t63.5 -31q15 -3 30 -3q22 1 48 7q42 10 83 39q31 22 59.5 54t51 68.5t39 75t24.5 74.5q-85 38 -155 105t-115 159q-50 -46 -88.5 -105.5t-61.5 -124.5t-29 -131zM442 820 q-2 -13 -3 -26q0 -19 5 -40q11 -48 34 -89t53.5 -73.5t65.5 -57.5t69 -42q5 33 5 62q0 22 -3 43q-6 48 -20 88t-32.5 71t-35.5 53q-9 13 -22 24.5t-27 19t-29 9.5q-5 1 -10 1q-10 0 -19 -3q-25 -9 -31 -40zM361.5 1273q2.5 15 11.5 29t22 22.5t23 2.5q46 -29 86 -56.5 t78 -55t75.5 -56t78.5 -59.5q10 -7 6.5 -21t-14 -26t-24.5 -18.5t-26 1.5q-47 31 -83.5 56.5t-71 50t-70.5 50.5t-82 58q-12 7 -9.5 22z" />
<glyph unicode="&#xf3;" horiz-adv-x="874" d="M106 310q6 80 32.5 152.5t71.5 136t99 112.5q5 5 9.5 6.5t9.5 3.5q6 2 11.5 3.5t14.5 4.5q-13 40 -13 74.5t10.5 62t29 48t41.5 32.5q20 11 48 13h12q23 0 49 -6q32 -8 64.5 -28.5t59.5 -54.5q41 -50 64 -99.5t33 -100.5q12 -52 12 -104v-11q0 -47 -4 -96q12 -8 31 -10 t30 0q90 11 148 43t100 77q15 16 34 18t32 -5.5t17 -22.5q1 -3 1 -6q0 -12 -12 -27q-50 -60 -130.5 -103t-181.5 -54q-20 -2 -44 -0.5t-46 6.5q-6 -39 -23.5 -82.5t-45.5 -86.5t-65.5 -83.5t-82.5 -71.5q-62 -43 -124 -57q-31 -7 -60.5 -6.5t-56.5 6.5q-54 14 -95.5 53.5 t-60.5 102.5q-20 66 -20 132q0 14 1 28zM200 298q-1 -17 0 -32q0 -47 11 -90q12 -41 39.5 -65t63.5 -31q15 -3 30 -3q22 1 48 7q42 10 83 39q31 22 59.5 54t51 68.5t39 75t24.5 74.5q-85 38 -155 105t-115 159q-50 -46 -88.5 -105.5t-61.5 -124.5t-29 -131zM442 820 q-2 -13 -3 -26q0 -19 5 -40q11 -48 34 -89t53.5 -73.5t65.5 -57.5t69 -42q5 33 5 62q0 22 -3 43q-6 48 -20 88t-32.5 71t-35.5 53q-9 13 -22 24.5t-27 19t-29 9.5q-5 1 -10 1q-10 0 -19 -3q-25 -9 -31 -40zM541.5 1111.5q-2.5 14.5 10.5 23.5q39 27 80 56t82 57.5t80 55.5 t74 50q9 6 22.5 -1t24 -20t14.5 -27t-6 -22q-35 -24 -73.5 -51.5t-80 -56t-83.5 -57.5t-82 -56q-11 -5 -25 2t-24.5 19.5t-13 27z" />
<glyph unicode="&#xf4;" horiz-adv-x="874" d="M106 310q6 80 32.5 152.5t71.5 136t99 112.5q5 5 9.5 6.5t9.5 3.5q6 2 11.5 3.5t14.5 4.5q-13 40 -13 74.5t10.5 62t29 48t41.5 32.5q20 11 48 13h12q23 0 49 -6q32 -8 64.5 -28.5t59.5 -54.5q41 -50 64 -99.5t33 -100.5q12 -52 12 -104v-11q0 -47 -4 -96q12 -8 31 -10 t30 0q90 11 148 43t100 77q15 16 34 18t32 -5.5t17 -22.5q1 -3 1 -6q0 -12 -12 -27q-50 -60 -130.5 -103t-181.5 -54q-20 -2 -44 -0.5t-46 6.5q-6 -39 -23.5 -82.5t-45.5 -86.5t-65.5 -83.5t-82.5 -71.5q-62 -43 -124 -57q-31 -7 -60.5 -6.5t-56.5 6.5q-54 14 -95.5 53.5 t-60.5 102.5q-20 66 -20 132q0 14 1 28zM200 298q-1 -17 0 -32q0 -47 11 -90q12 -41 39.5 -65t63.5 -31q15 -3 30 -3q22 1 48 7q42 10 83 39q31 22 59.5 54t51 68.5t39 75t24.5 74.5q-85 38 -155 105t-115 159q-50 -46 -88.5 -105.5t-61.5 -124.5t-29 -131zM442 820 q-2 -13 -3 -26q0 -19 5 -40q11 -48 34 -89t53.5 -73.5t65.5 -57.5t69 -42q5 33 5 62q0 22 -3 43q-6 48 -20 88t-32.5 71t-35.5 53q-9 13 -22 24.5t-27 19t-29 9.5q-5 1 -10 1q-10 0 -19 -3q-25 -9 -31 -40zM363.5 1080q-2.5 14 8.5 23q14 12 38 30.5t52.5 39.5t59 42.5 t58.5 38.5t50 27t33 10q22 0 50.5 -22t58 -52t55.5 -62t43 -52q9 -10 5 -24.5t-15 -25t-25 -14.5t-24 7q-21 23 -44 48t-44 45.5t-38 34t-26 13.5t-37 -13.5t-64 -34t-73.5 -45.5t-65.5 -48q-10 -10 -22.5 -6t-21.5 15t-11.5 25z" />
<glyph unicode="&#xf5;" horiz-adv-x="874" d="M106 310q6 80 32.5 152.5t71.5 136t99 112.5q5 5 9.5 6.5t9.5 3.5q6 2 11.5 3.5t14.5 4.5q-13 40 -13 74.5t10.5 62t29 48t41.5 32.5q20 11 48 13h12q23 0 49 -6q32 -8 64.5 -28.5t59.5 -54.5q41 -50 64 -99.5t33 -100.5q12 -52 12 -104v-11q0 -47 -4 -96q12 -8 31 -10 t30 0q90 11 148 43t100 77q15 16 34 18t32 -5.5t17 -22.5q1 -3 1 -6q0 -12 -12 -27q-50 -60 -130.5 -103t-181.5 -54q-20 -2 -44 -0.5t-46 6.5q-6 -39 -23.5 -82.5t-45.5 -86.5t-65.5 -83.5t-82.5 -71.5q-62 -43 -124 -57q-31 -7 -60.5 -6.5t-56.5 6.5q-54 14 -95.5 53.5 t-60.5 102.5q-20 66 -20 132q0 14 1 28zM200 298q-1 -17 0 -32q0 -47 11 -90q12 -41 39.5 -65t63.5 -31q15 -3 30 -3q22 1 48 7q42 10 83 39q31 22 59.5 54t51 68.5t39 75t24.5 74.5q-85 38 -155 105t-115 159q-50 -46 -88.5 -105.5t-61.5 -124.5t-29 -131zM442 820 q-2 -13 -3 -26q0 -19 5 -40q11 -48 34 -89t53.5 -73.5t65.5 -57.5t69 -42q5 33 5 62q0 22 -3 43q-6 48 -20 88t-32.5 71t-35.5 53q-9 13 -22 24.5t-27 19t-29 9.5q-5 1 -10 1q-10 0 -19 -3q-25 -9 -31 -40zM350 1114q7 29 24.5 55t43.5 45t60 29.5t75 9.5q39 -1 69 -21.5 t55.5 -44.5t48.5 -44t48 -19q35 2 59.5 23.5t30.5 52.5q4 19 17 25.5t26 1.5t22 -20.5t7 -39.5q-2 -22 -15 -44.5t-35 -40.5t-51.5 -29t-64.5 -9q-43 2 -73 22t-54 43.5t-46.5 42.5t-49.5 19q-44 0 -75 -20t-52 -68q-9 -23 -23.5 -29t-27 0t-19 22.5t-0.5 37.5z" />
<glyph unicode="&#xf6;" horiz-adv-x="874" d="M106 310q6 80 32.5 152.5t71.5 136t99 112.5q5 5 9.5 6.5t9.5 3.5q6 2 11.5 3.5t14.5 4.5q-13 40 -13 74.5t10.5 62t29 48t41.5 32.5q20 11 48 13h12q23 0 49 -6q32 -8 64.5 -28.5t59.5 -54.5q41 -50 64 -99.5t33 -100.5q12 -52 12 -104v-11q0 -47 -4 -96q12 -8 31 -10 t30 0q90 11 148 43t100 77q15 16 34 18t32 -5.5t17 -22.5q1 -3 1 -6q0 -12 -12 -27q-50 -60 -130.5 -103t-181.5 -54q-20 -2 -44 -0.5t-46 6.5q-6 -39 -23.5 -82.5t-45.5 -86.5t-65.5 -83.5t-82.5 -71.5q-62 -43 -124 -57q-31 -7 -60.5 -6.5t-56.5 6.5q-54 14 -95.5 53.5 t-60.5 102.5q-20 66 -20 132q0 14 1 28zM200 298q-1 -17 0 -32q0 -47 11 -90q12 -41 39.5 -65t63.5 -31q15 -3 30 -3q22 1 48 7q42 10 83 39q31 22 59.5 54t51 68.5t39 75t24.5 74.5q-85 38 -155 105t-115 159q-50 -46 -88.5 -105.5t-61.5 -124.5t-29 -131zM442 820 q-2 -13 -3 -26q0 -19 5 -40q11 -48 34 -89t53.5 -73.5t65.5 -57.5t69 -42q5 33 5 62q0 22 -3 43q-6 48 -20 88t-32.5 71t-35.5 53q-9 13 -22 24.5t-27 19t-29 9.5q-5 1 -10 1q-10 0 -19 -3q-25 -9 -31 -40zM356 1081.5q-2 14.5 4 29.5t17.5 28t22.5 18q14 7 30.5 13.5 t32.5 7.5t30.5 -4.5t23.5 -20.5q13 -23 3 -50t-32 -42q-9 -3 -23.5 -7t-31 -5.5t-32.5 0t-28 8.5q-15 10 -17 24.5zM707 1107.5q3 12.5 13 24.5t25.5 21t31.5 14q10 4 23 7t25.5 2t23.5 -6t18 -15q17 -26 8 -51t-41 -37q-34 -14 -68 -11.5t-53 27.5q-9 12 -6 24.5z" />
<glyph unicode="&#xf7;" horiz-adv-x="870" d="M64 418q0 18 12 33.5t35 15.5h354q53 0 99.5 0.5t92 0.5t92 0.5t99.5 0.5q23 0 34.5 -15.5t11.5 -33.5t-11.5 -33.5t-34.5 -15.5h-391q-29 0 -73.5 -0.5t-93.5 -0.5t-96.5 -0.5t-82.5 -0.5q-23 0 -35 15.5t-12 33.5zM369 68q0 14 2.5 32t10.5 36t23 34t41 27 q13 0 26.5 -4.5t24.5 -12.5t18 -20.5t7 -28.5q0 -14 -1.5 -32t-9 -35t-22.5 -30.5t-43 -19.5q-9 0 -22 1t-25.5 6t-21 16t-8.5 31zM438 709q0 13 2.5 30.5t10.5 35.5t23.5 34.5t41.5 28.5q28 0 52 -18t24 -50q0 -14 -1.5 -32t-9 -35t-22.5 -30.5t-43 -19.5q-10 0 -23.5 1 t-25.5 6t-20.5 16.5t-8.5 32.5z" />
<glyph unicode="&#xf8;" horiz-adv-x="874" d="M89.5 -103q-6.5 14 2.5 29q19 34 38.5 68.5t39.5 68.5q-30 37 -45 87q-25 81 -19.5 160.5t32.5 152t72 136t99 112.5q5 5 9.5 6.5t9.5 3.5q6 2 11.5 3.5t14.5 4.5q-13 40 -13 74.5t10.5 62t29 48t41.5 32.5q20 11 48.5 13t60.5 -6t64.5 -28.5t59.5 -54.5q3 -5 7.5 -10 t7.5 -10q26 37 49.5 70.5t46.5 64.5q19 26 41 32t39 -3q14 -8 23.5 -28.5t-1.5 -39.5q-6 -8 -19 -13t-26 -3q-23 -28 -51 -65.5t-59 -82.5q40 -78 47.5 -157.5t-0.5 -165.5q12 -8 31 -10t30 0q90 11 148 43t100 77q15 16 34 18t32 -5.5t17 -22.5t-11 -33 q-50 -60 -130.5 -103t-181.5 -54q-20 -2 -44 -0.5t-46 6.5q-6 -39 -23.5 -82.5t-45.5 -86.5t-65.5 -83.5t-82.5 -71.5q-77 -54 -155 -62.5t-138 25.5q-21 -37 -39 -69t-32 -60q-8 -14 -22.5 -15t-26.5 7q-13 6 -19.5 20zM200.5 298.5q-5.5 -65.5 10.5 -122.5q2 -6 4.5 -12 t5.5 -12q57 97 117.5 194t122.5 191q-48 52 -82 122q-50 -46 -88.5 -105.5t-61.5 -124.5t-28.5 -130.5zM274 92q42 -22 95.5 -14.5t105.5 45.5q31 22 59.5 54t51 68.5t39 75t24.5 74.5q-35 17 -69.5 38.5t-65.5 47.5q-63 -100 -125 -199.5t-115 -189.5zM441.5 820 q-5.5 -31 2.5 -66q10 -41 27.5 -76t40.5 -64q25 39 49.5 77t48.5 73q-15 27 -30 45q-9 13 -22 24.5t-27 19t-29 10t-29 -2.5q-26 -9 -31.5 -40zM563 559q25 -22 51.5 -38.5t51.5 -28.5q9 58 3 106t-22 88q-20 -29 -41 -61t-43 -66z" />
<glyph unicode="&#xf9;" horiz-adv-x="1090" d="M168 182q-2 29 -2 58q0 54 6 110q10 84 39 156q-16 6 -21.5 21.5t11.5 41.5q5 11 11.5 21.5t12.5 19.5q5 11 10 20t7 17q8 33 34 66q17 17 38 18.5t36 -10.5q19 -14 17 -31.5t-7 -36.5q-5 -15 -14.5 -30.5t-23.5 -32.5q-17 -32 -30.5 -85t-21.5 -111t-12 -114 q-2 -36 -3 -65q0 -16 1 -31q5 -72 44 -89q12 -5 27 -5q32 0 74 25q32 19 72 52.5t80.5 76t77.5 91t63 97.5q8 50 20 99.5t28.5 93.5t36 80t42.5 59q27 26 49 35q13 5 23 5q7 0 13 -2q14 -6 20.5 -27t-0.5 -52q-9 -38 -21 -73.5t-29.5 -72.5t-40 -77.5t-51.5 -87.5 q-4 -27 -3 -58.5t4.5 -62t11 -57.5t18.5 -46q8 -12 22 -18t30.5 -8t33 1.5t29.5 10.5q48 26 95 67.5t92 93t88.5 111.5t84.5 123q12 18 28.5 20.5t29.5 -5.5q12 -8 18 -24q2 -6 2 -12q0 -11 -6 -22q-42 -71 -90.5 -136.5t-98 -120t-98 -96.5t-92.5 -67q-75 -43 -130 -43 q-13 0 -25 3q-62 13 -97 75q-13 21 -25 61q-8 26 -8 55q0 15 2 30q-52 -73 -112.5 -134t-145.5 -114q-54 -34 -102 -42q-15 -2 -28 -2q-31 0 -57 12q-37 18 -60 61.5t-27 113.5zM332.5 1078q2.5 15 11.5 29t22 22.5t23 2.5q46 -29 86 -56.5t78 -55t75.5 -56t78.5 -59.5 q10 -7 6.5 -21t-14 -26t-24.5 -18.5t-26 1.5q-47 31 -83.5 56.5t-71 50t-70.5 50.5t-82 58q-12 7 -9.5 22z" />
<glyph unicode="&#xfa;" horiz-adv-x="1090" d="M168 182q-2 29 -2 58q0 54 6 110q10 84 39 156q-16 6 -21.5 21.5t11.5 41.5q5 11 11.5 21.5t12.5 19.5q5 11 10 20t7 17q8 33 34 66q17 17 38 18.5t36 -10.5q19 -14 17 -31.5t-7 -36.5q-5 -15 -14.5 -30.5t-23.5 -32.5q-17 -32 -30.5 -85t-21.5 -111t-12 -114 q-2 -36 -3 -65q0 -16 1 -31q5 -72 44 -89q12 -5 27 -5q32 0 74 25q32 19 72 52.5t80.5 76t77.5 91t63 97.5q8 50 20 99.5t28.5 93.5t36 80t42.5 59q27 26 49 35q13 5 23 5q7 0 13 -2q14 -6 20.5 -27t-0.5 -52q-9 -38 -21 -73.5t-29.5 -72.5t-40 -77.5t-51.5 -87.5 q-4 -27 -3 -58.5t4.5 -62t11 -57.5t18.5 -46q8 -12 22 -18t30.5 -8t33 1.5t29.5 10.5q48 26 95 67.5t92 93t88.5 111.5t84.5 123q12 18 28.5 20.5t29.5 -5.5q12 -8 18 -24q2 -6 2 -12q0 -11 -6 -22q-42 -71 -90.5 -136.5t-98 -120t-98 -96.5t-92.5 -67q-75 -43 -130 -43 q-13 0 -25 3q-62 13 -97 75q-13 21 -25 61q-8 26 -8 55q0 15 2 30q-52 -73 -112.5 -134t-145.5 -114q-54 -34 -102 -42q-15 -2 -28 -2q-31 0 -57 12q-37 18 -60 61.5t-27 113.5zM503.5 909.5q-2.5 14.5 10.5 23.5q39 27 80 56t82 57.5t80 55.5t74 50q9 6 22.5 -1t24 -20 t14.5 -27t-6 -22q-35 -24 -73.5 -51.5t-80 -56t-83.5 -57.5t-82 -56q-11 -5 -25 2t-24.5 19.5t-13 27z" />
<glyph unicode="&#xfb;" horiz-adv-x="1090" d="M168 182q-2 29 -2 58q0 54 6 110q10 84 39 156q-16 6 -21.5 21.5t11.5 41.5q5 11 11.5 21.5t12.5 19.5q5 11 10 20t7 17q8 33 34 66q17 17 38 18.5t36 -10.5q19 -14 17 -31.5t-7 -36.5q-5 -15 -14.5 -30.5t-23.5 -32.5q-17 -32 -30.5 -85t-21.5 -111t-12 -114 q-2 -36 -3 -65q0 -16 1 -31q5 -72 44 -89q12 -5 27 -5q32 0 74 25q32 19 72 52.5t80.5 76t77.5 91t63 97.5q8 50 20 99.5t28.5 93.5t36 80t42.5 59q27 26 49 35q13 5 23 5q7 0 13 -2q14 -6 20.5 -27t-0.5 -52q-9 -38 -21 -73.5t-29.5 -72.5t-40 -77.5t-51.5 -87.5 q-4 -27 -3 -58.5t4.5 -62t11 -57.5t18.5 -46q8 -12 22 -18t30.5 -8t33 1.5t29.5 10.5q48 26 95 67.5t92 93t88.5 111.5t84.5 123q12 18 28.5 20.5t29.5 -5.5q12 -8 18 -24q2 -6 2 -12q0 -11 -6 -22q-42 -71 -90.5 -136.5t-98 -120t-98 -96.5t-92.5 -67q-75 -43 -130 -43 q-13 0 -25 3q-62 13 -97 75q-13 21 -25 61q-8 26 -8 55q0 15 2 30q-52 -73 -112.5 -134t-145.5 -114q-54 -34 -102 -42q-15 -2 -28 -2q-31 0 -57 12q-37 18 -60 61.5t-27 113.5zM382.5 951q-2.5 14 8.5 23q14 12 38 30.5t52.5 39.5t59 42.5t58.5 38.5t50 27t33 10 q22 0 50.5 -22t58 -52t55.5 -62t43 -52q9 -10 5 -24.5t-15 -25t-25 -14.5t-24 7q-21 23 -44 48t-44 45.5t-38 34t-26 13.5t-37 -13.5t-64 -34t-73.5 -45.5t-65.5 -48q-10 -10 -22.5 -6t-21.5 15t-11.5 25z" />
<glyph unicode="&#xfc;" horiz-adv-x="1090" d="M168 182q-2 29 -2 58q0 54 6 110q10 84 39 156q-16 6 -21.5 21.5t11.5 41.5q5 11 11.5 21.5t12.5 19.5q5 11 10 20t7 17q8 33 34 66q17 17 38 18.5t36 -10.5q19 -14 17 -31.5t-7 -36.5q-5 -15 -14.5 -30.5t-23.5 -32.5q-17 -32 -30.5 -85t-21.5 -111t-12 -114 q-2 -36 -3 -65q0 -16 1 -31q5 -72 44 -89q12 -5 27 -5q32 0 74 25q32 19 72 52.5t80.5 76t77.5 91t63 97.5q8 50 20 99.5t28.5 93.5t36 80t42.5 59q27 26 49 35q13 5 23 5q7 0 13 -2q14 -6 20.5 -27t-0.5 -52q-9 -38 -21 -73.5t-29.5 -72.5t-40 -77.5t-51.5 -87.5 q-4 -27 -3 -58.5t4.5 -62t11 -57.5t18.5 -46q8 -12 22 -18t30.5 -8t33 1.5t29.5 10.5q48 26 95 67.5t92 93t88.5 111.5t84.5 123q12 18 28.5 20.5t29.5 -5.5q12 -8 18 -24q2 -6 2 -12q0 -11 -6 -22q-42 -71 -90.5 -136.5t-98 -120t-98 -96.5t-92.5 -67q-75 -43 -130 -43 q-13 0 -25 3q-62 13 -97 75q-13 21 -25 61q-8 26 -8 55q0 15 2 30q-52 -73 -112.5 -134t-145.5 -114q-54 -34 -102 -42q-15 -2 -28 -2q-31 0 -57 12q-37 18 -60 61.5t-27 113.5zM392 996.5q-2 14.5 4 29.5t17.5 28t22.5 18q14 7 30.5 13.5t32.5 7.5t30.5 -4.5t23.5 -20.5 q13 -23 3 -50t-32 -42q-9 -3 -23.5 -7t-31 -5.5t-32.5 0t-28 8.5q-15 10 -17 24.5zM743 1022.5q3 12.5 13 24.5t25.5 21t31.5 14q10 4 23 7t25.5 2t23.5 -6t18 -15q17 -26 8 -51t-41 -37q-34 -14 -68 -11.5t-53 27.5q-9 12 -6 24.5z" />
<glyph unicode="&#xfd;" horiz-adv-x="1188" d="M172 270v23q0 45 6 93q8 61 27 120q-6 3 -11.5 8.5t-7.5 13.5t0 18t11 23q13 25 24 41q5 11 10 20t7 17q4 15 11.5 32.5t15.5 34t16.5 31.5t15.5 25q6 8 17.5 13t25 6.5t27 -1.5t22.5 -12q16 -15 19.5 -26.5t1.5 -28.5q-7 -17 -19.5 -37t-34.5 -39q-27 -45 -44.5 -96 t-27.5 -101t-13 -96q-2 -28 -2 -52q0 -16 1 -30q3 -38 13 -58.5t25.5 -27t36.5 -1.5t46 20q32 18 70.5 49t79 70.5t81.5 87t77.5 98t67.5 103.5t52 104q-5 12 -10 26.5t-8 28.5t-3.5 27t5.5 22q14 17 30 29.5t44 17.5q5 1 10 1q13 0 25 -6q15 -8 23 -24.5t7 -40.5t-16 -53 q22 -57 42 -119t37 -124t31.5 -123.5t26.5 -118.5q105 78 185.5 157.5t135.5 153.5q15 19 32 20.5t29 -7.5t16 -25q1 -4 1 -8q0 -12 -8 -23q-34 -49 -73.5 -93t-84.5 -87q-46 -43 -99 -87.5t-116 -98.5q9 -45 11 -96v-28q0 -37 -3 -76q-4 -52 -13 -104t-21 -100 q-26 -101 -74.5 -186.5t-107 -152.5t-120.5 -113t-114 -68q-63 -26 -118 -32q-18 -2 -35 -2q-34 0 -64 8q-43 12 -73 41t-41 73q-7 25 -7 54q0 23 4 48q9 58 43 128q20 42 57.5 93t86.5 106t108.5 112.5t122.5 114t128.5 110t127.5 100.5q-19 127 -52.5 234.5t-64.5 193.5 q-26 -60 -71.5 -128.5t-103 -135.5t-123 -126t-130.5 -99q-77 -48 -135 -48q-27 0 -51 11q-70 35 -76 178zM392 -606q0 -48 25 -75t73 -29q3 -1 7 -1q45 0 105 27q55 24 110.5 67.5t105 102.5t88.5 131.5t61 153.5q9 34 16.5 75t11.5 84q3 34 3 68v17q-1 42 -9 77 q-78 -59 -164.5 -134.5t-166 -155t-142.5 -157t-94 -141.5q-30 -62 -30 -110zM587.5 977.5q-2.5 14.5 10.5 23.5q39 27 80 56t82 57.5t80 55.5t74 50q9 6 22.5 -1t24 -20t14.5 -27t-6 -22q-35 -24 -73.5 -51.5t-80 -56t-83.5 -57.5t-82 -56q-11 -5 -25 2t-24.5 19.5t-13 27z " />
<glyph unicode="&#xfe;" horiz-adv-x="1155" d="M-29 -694q-1 40 8.5 114t26.5 172t40.5 216t50.5 245.5t56.5 259.5t59 259.5t57.5 245t52.5 215.5t43.5 171.5t31 112.5q-7 3 -13 8.5t-9 13.5t-1.5 18t9.5 23q6 11 12 21.5t13 19.5q5 11 10 20t8 17q3 16 9 36.5t13.5 40t15.5 35.5t15 23q11 13 26.5 18t31.5 -3 q23 -11 30 -21t4 -22q-2 -22 -15.5 -46.5t-29.5 -45.5q-8 -19 -17.5 -46.5t-19.5 -62.5q1 0 -6.5 -31.5t-20 -84.5t-28.5 -121.5t-33.5 -141.5t-35 -145t-31.5 -131.5t-24 -101t-13 -54.5q37 39 88 82t109 80.5t119 65.5t118 38q103 17 169.5 -11.5t97.5 -86.5t27.5 -137.5 t-40.5 -165.5q-11 -26 -30 -58.5t-45 -65.5t-58.5 -64.5t-71.5 -53.5q43 12 95.5 36.5t108 57t111 71t104 78t87.5 78.5t62 72q11 18 27 18t29 -9.5t18.5 -24.5t-3.5 -27q-40 -53 -103 -112.5t-139 -116.5t-159.5 -106.5t-163.5 -81.5q-94 -39 -197.5 -62t-210.5 -20 q-34 1 -71 6t-71.5 15t-63 25t-43.5 36q-17 -60 -36.5 -145t-37 -180.5t-31 -194t-18.5 -185.5q11 -28 18 -56.5t4 -49.5q-6 -28 -22.5 -52t-44.5 -32q-18 -5 -29.5 2t-17.5 21.5t-8 32.5t-3 36zM221 217q1 -32 38 -55t92.5 -35t119.5 -11.5t119 17.5q53 16 98.5 48t84.5 75 t70.5 94t55.5 105q23 51 29 103.5t-11 93.5t-59.5 63t-114.5 12q-42 -6 -89 -24.5t-95 -46.5t-93.5 -62.5t-84.5 -71t-69 -72.5t-46 -67q-6 -12 -12.5 -33.5t-11.5 -46.5q-7 -23 -12.5 -46t-8.5 -40z" />
<glyph unicode="&#xff;" horiz-adv-x="1188" d="M172 270v23q0 45 6 93q8 61 27 120q-6 3 -11.5 8.5t-7.5 13.5t0 18t11 23q13 25 24 41q5 11 10 20t7 17q4 15 11.5 32.5t15.5 34t16.5 31.5t15.5 25q6 8 17.5 13t25 6.5t27 -1.5t22.5 -12q16 -15 19.5 -26.5t1.5 -28.5q-7 -17 -19.5 -37t-34.5 -39q-27 -45 -44.5 -96 t-27.5 -101t-13 -96q-2 -28 -2 -52q0 -16 1 -30q3 -38 13 -58.5t25.5 -27t36.5 -1.5t46 20q32 18 70.5 49t79 70.5t81.5 87t77.5 98t67.5 103.5t52 104q-5 12 -10 26.5t-8 28.5t-3.5 27t5.5 22q14 17 30 29.5t44 17.5q5 1 10 1q13 0 25 -6q15 -8 23 -24.5t7 -40.5t-16 -53 q22 -57 42 -119t37 -124t31.5 -123.5t26.5 -118.5q105 78 185.5 157.5t135.5 153.5q15 19 32 20.5t29 -7.5t16 -25q1 -4 1 -8q0 -12 -8 -23q-34 -49 -73.5 -93t-84.5 -87q-46 -43 -99 -87.5t-116 -98.5q9 -45 11 -96v-28q0 -37 -3 -76q-4 -52 -13 -104t-21 -100 q-26 -101 -74.5 -186.5t-107 -152.5t-120.5 -113t-114 -68q-63 -26 -118 -32q-18 -2 -35 -2q-34 0 -64 8q-43 12 -73 41t-41 73q-7 25 -7 54q0 23 4 48q9 58 43 128q20 42 57.5 93t86.5 106t108.5 112.5t122.5 114t128.5 110t127.5 100.5q-19 127 -52.5 234.5t-64.5 193.5 q-26 -60 -71.5 -128.5t-103 -135.5t-123 -126t-130.5 -99q-77 -48 -135 -48q-27 0 -51 11q-70 35 -76 178zM392 -606q0 -48 25 -75t73 -29q3 -1 7 -1q45 0 105 27q55 24 110.5 67.5t105 102.5t88.5 131.5t61 153.5q9 34 16.5 75t11.5 84q3 34 3 68v17q-1 42 -9 77 q-78 -59 -164.5 -134.5t-166 -155t-142.5 -157t-94 -141.5q-30 -62 -30 -110zM366 1027.5q-2 14.5 4 29.5t17.5 28t22.5 18q14 7 30.5 13.5t32.5 7.5t30.5 -4.5t23.5 -20.5q13 -23 3 -50t-32 -42q-9 -3 -23.5 -7t-31 -5.5t-32.5 0t-28 8.5q-15 10 -17 24.5zM717 1053.5 q3 12.5 13 24.5t25.5 21t31.5 14q10 4 23 7t25.5 2t23.5 -6t18 -15q17 -26 8 -51t-41 -37q-34 -14 -68 -11.5t-53 27.5q-9 12 -6 24.5z" />
<glyph unicode="&#x131;" horiz-adv-x="535" d="M143 195q-2 33 1.5 73.5t11 82t19.5 82t28 73.5q-14 5 -16.5 20t14.5 43q5 11 11.5 20.5t12.5 20.5q5 10 10 18.5t7 16.5q5 17 10.5 28t17.5 23q18 16 38.5 18t36 -7t23 -27.5t-0.5 -42.5q-3 -18 -19 -37q-6 -11 -13.5 -21t-17.5 -22q-19 -37 -34.5 -85t-26 -97.5 t-15.5 -95t-3 -76.5q3 -36 11.5 -60t24 -34t38.5 -4t55 30q25 18 56.5 48t65.5 66.5t69.5 78.5t68 84.5t60.5 82.5t48 74q12 18 29 20.5t30.5 -5.5t19 -24t-6.5 -34q-19 -33 -46 -74t-59 -85t-68.5 -89.5t-74.5 -87t-76.5 -77t-74.5 -60.5q-52 -35 -98.5 -45t-82.5 7.5 t-58.5 62t-25.5 117.5z" />
<glyph unicode="&#x152;" horiz-adv-x="2281" d="M147 438q9 119 35 229t60 206.5t71 177t68 141.5q-13 5 -16.5 17t-1 25.5t9 25.5t12.5 18q30 31 84 69t124.5 69t154.5 50t174 13t168 -39.5t139 -84.5t102.5 -115t59.5 -132q12 45 26 96.5t30 103.5t32.5 102t33.5 93q8 20 26 24.5t35.5 -2t27.5 -22.5t2 -37 q-13 -31 -27 -66.5t-21 -64.5q57 16 126.5 32t147 29.5t161 25t168.5 18.5q24 2 37.5 -13t16 -33.5t-7.5 -34.5t-32 -16q-53 0 -131.5 -9t-167 -24.5t-179 -36t-167.5 -44.5q-18 -57 -35 -121.5t-32 -129t-27 -125.5t-19 -112q84 19 183 41.5t204 49.5t211 59.5t205 71.5 q20 8 36 -2t23.5 -27t2.5 -35t-27 -27q-111 -42 -227.5 -78t-228.5 -65.5t-213.5 -52.5t-182.5 -39q-23 -136 -32.5 -250t-12.5 -205q-2 -35 6 -60.5t22 -41.5t32.5 -24t39.5 -9q37 -2 89.5 6.5t111.5 24.5t120 37.5t116 44.5t100.5 46.5t72.5 43.5q19 14 38 9.5t31 -18 t13.5 -30.5t-14.5 -29q-29 -21 -74.5 -46t-101 -51t-119 -50t-129 -43t-130.5 -31.5t-124 -13.5q-104 -3 -150.5 56.5t-48.5 178.5q0 15 1.5 43t4 59.5t4.5 61.5t3 51q-21 -37 -55 -82.5t-79.5 -92t-100.5 -91.5t-117.5 -82t-132.5 -62.5t-144 -33.5q-121 -12 -215.5 22 t-159 101t-95.5 161t-24 201zM254 438q-5 -107 27.5 -183.5t87 -123.5t124.5 -66t142 -10q110 15 217 71.5t198 147.5t160 212.5t103 267.5q17 76 13 151.5t-25.5 144t-59 128t-87.5 104t-110 71t-126 29.5q-35 3 -81.5 -2.5t-97.5 -20.5t-103 -41.5t-97 -66.5 q-29 -42 -61 -97.5t-62.5 -120.5t-58.5 -138t-50 -149t-36 -154t-17 -154z" />
<glyph unicode="&#x153;" horiz-adv-x="1386" d="M74 223q0 64 16 127.5t43 122t63.5 110t77.5 91t85 65.5t87 33q61 11 116 5t98.5 -29.5t71.5 -64t36 -99.5q37 53 87.5 97t104 76.5t104 50.5t87.5 19q47 1 81 -16t56.5 -42.5t33 -55t9.5 -54.5q-1 -40 -25 -76.5t-66.5 -68t-99.5 -59t-123 -49t-137.5 -38t-142.5 -26.5 q-6 -39 3 -79t28 -75t45.5 -62.5t54.5 -41.5q36 -16 81 -21.5t94.5 -1t100 18.5t95.5 37q19 10 35 0t23.5 -27t3.5 -35.5t-25 -25.5q-71 -28 -131 -43.5t-113.5 -19t-101.5 5t-96 28.5q-40 16 -72 42.5t-54.5 57.5t-36 64t-16.5 63q-13 -29 -43 -66.5t-72.5 -72.5t-94.5 -62 t-109 -34q-59 -9 -107.5 5t-83 45.5t-53 78t-18.5 102.5zM172 223q-2 -39 11 -67.5t34.5 -45.5t49.5 -24t57 -2q41 7 83 29t81 55t73.5 74.5t60 87.5t39.5 94.5t13 95.5q-2 39 -15 70t-39 51.5t-64.5 29t-90.5 1.5q-27 -4 -59 -23t-64 -50.5t-61.5 -73.5t-53 -90.5 t-38.5 -102.5t-17 -109zM768 436q41 8 88.5 20t95 27t93.5 32.5t83.5 37t64.5 40.5t38 44q8 17 3.5 34.5t-18 31t-33 21t-40.5 5.5q-48 -5 -99 -29.5t-100.5 -63.5t-94.5 -90.5t-81 -109.5z" />
<glyph unicode="&#x178;" horiz-adv-x="1098" d="M190 1290q9 17 27 26t39 7.5t33 -20.5q67 -111 119.5 -231.5t97 -239t84 -228t78.5 -198.5q33 80 73 174.5t83.5 198t89.5 213t91 218t88 213t81 199.5q9 24 28 27q5 1 9 1q14 0 27 -8q17 -9 27 -28q5 -10 5 -20t-4 -19q-39 -88 -75.5 -173t-74 -174.5t-78.5 -187 t-88 -211t-102 -245t-121 -289.5q9 -20 20 -31t25 -22q19 -13 22.5 -29t-3 -30t-19.5 -23.5t-27 -9.5q-15 0 -34.5 11.5t-30.5 22.5q-29 -78 -64.5 -162t-72 -166.5t-73.5 -161t-69 -147.5q-13 -28 -33 -33q-7 -3 -14 -3q-11 0 -21 6q-16 9 -23.5 29t3.5 42 q82 153 158.5 333t151.5 364q-35 50 -67 123t-64.5 159t-65.5 179.5t-69.5 185t-77 175.5t-86.5 150q-7 10 -7 19q0 7 4 14zM411 1440.5q-2 14.5 4 29.5t17.5 28t22.5 18q14 7 30.5 13.5t32.5 7.5t30.5 -4.5t23.5 -20.5q13 -23 3 -50t-32 -42q-9 -3 -23.5 -7t-31 -5.5 t-32.5 0t-28 8.5q-15 10 -17 24.5zM762 1466.5q3 12.5 13 24.5t25.5 21t31.5 14q10 4 23 7t25.5 2t23.5 -6t18 -15q17 -26 8 -51t-41 -37q-34 -14 -68 -11.5t-53 27.5q-9 12 -6 24.5z" />
<glyph unicode="&#x2c6;" horiz-adv-x="834" d="M263.5 1081q-2.5 14 8.5 23q14 12 38 30.5t52.5 39.5t59 42.5t58.5 38.5t50 27t33 10q22 0 50.5 -22t58 -52t55.5 -62t43 -52q9 -10 5 -24.5t-15 -25t-25 -14.5t-24 7q-21 23 -44 48t-44 45.5t-38 34t-26 13.5t-37 -13.5t-64 -34t-73.5 -45.5t-65.5 -48q-10 -10 -22.5 -6 t-21.5 15t-11.5 25z" />
<glyph unicode="&#x2da;" horiz-adv-x="592" d="M289 1141q0 37 13.5 69.5t37.5 57t56.5 39t70.5 14.5q37 0 69 -14.5t56 -39t37.5 -57t13.5 -69.5q0 -38 -13.5 -70.5t-37.5 -56.5t-56 -37.5t-69 -13.5q-38 0 -70.5 13.5t-56.5 37.5t-37.5 56.5t-13.5 70.5zM348 1141q0 -26 8.5 -48t24.5 -38t38 -25.5t48 -9.5 q25 0 46.5 9.5t37.5 25.5t24.5 38t8.5 48q0 25 -8.5 47t-24.5 38t-37.5 25t-46.5 9q-26 0 -48 -9t-38 -25t-24.5 -38t-8.5 -47z" />
<glyph unicode="&#x2dc;" horiz-adv-x="1038" d="M297 983q7 29 24.5 55t43.5 45t60 29.5t75 9.5q39 -1 69 -21.5t55.5 -44.5t48.5 -44t48 -19q35 2 59.5 23.5t30.5 52.5q4 19 17 25.5t26 1.5t22 -20.5t7 -39.5q-2 -22 -15 -44.5t-35 -40.5t-51.5 -29t-64.5 -9q-43 2 -73 22t-54 43.5t-46.5 42.5t-49.5 19q-44 0 -75 -20 t-52 -68q-9 -23 -23.5 -29t-27 0t-19 22.5t-0.5 37.5z" />
<glyph unicode="&#x2000;" horiz-adv-x="941" />
<glyph unicode="&#x2001;" horiz-adv-x="1882" />
<glyph unicode="&#x2002;" horiz-adv-x="941" />
<glyph unicode="&#x2003;" horiz-adv-x="1882" />
<glyph unicode="&#x2004;" horiz-adv-x="627" />
<glyph unicode="&#x2005;" horiz-adv-x="470" />
<glyph unicode="&#x2006;" horiz-adv-x="313" />
<glyph unicode="&#x2007;" horiz-adv-x="313" />
<glyph unicode="&#x2008;" horiz-adv-x="235" />
<glyph unicode="&#x2009;" horiz-adv-x="376" />
<glyph unicode="&#x200a;" horiz-adv-x="104" />
<glyph unicode="&#x2010;" horiz-adv-x="899" d="M389 503.5q-6 19.5 3.5 37.5t41.5 22q52 6 109.5 6.5t112.5 -2t104.5 -6t85.5 -6.5q23 -2 33 -18.5t8.5 -35t-14 -32.5t-35.5 -12q-36 4 -82.5 7.5t-97.5 5t-102.5 -0.5t-98.5 -10q-25 -4 -43.5 10.5t-24.5 34z" />
<glyph unicode="&#x2011;" horiz-adv-x="899" d="M389 503.5q-6 19.5 3.5 37.5t41.5 22q52 6 109.5 6.5t112.5 -2t104.5 -6t85.5 -6.5q23 -2 33 -18.5t8.5 -35t-14 -32.5t-35.5 -12q-36 4 -82.5 7.5t-97.5 5t-102.5 -0.5t-98.5 -10q-25 -4 -43.5 10.5t-24.5 34z" />
<glyph unicode="&#x2012;" horiz-adv-x="899" d="M389 503.5q-6 19.5 3.5 37.5t41.5 22q52 6 109.5 6.5t112.5 -2t104.5 -6t85.5 -6.5q23 -2 33 -18.5t8.5 -35t-14 -32.5t-35.5 -12q-36 4 -82.5 7.5t-97.5 5t-102.5 -0.5t-98.5 -10q-25 -4 -43.5 10.5t-24.5 34z" />
<glyph unicode="&#x2013;" horiz-adv-x="1026" d="M396.5 507q-6.5 18 1.5 35t38 21q35 4 81.5 5.5t97 1t102 -2t98.5 -3.5t85.5 -4.5t62.5 -4.5q23 -2 34.5 -17.5t11.5 -32t-11.5 -29.5t-34.5 -11q-24 2 -61.5 4.5t-82.5 4.5t-94 3t-96 1t-89.5 -3t-74.5 -8q-24 -5 -43 8.5t-25.5 31.5z" />
<glyph unicode="&#x2014;" horiz-adv-x="1692" d="M427 493.5q-1 12.5 5 23.5t21 11h1235q15 0 23 -11t8 -23.5t-8 -23.5t-23 -11h-1227q-15 0 -24 11t-10 23.5z" />
<glyph unicode="&#x2018;" horiz-adv-x="453" d="M288 1046q0 40 16.5 85t42.5 88t57 81t61 64q20 17 40 20t33.5 -3t17 -19t-10.5 -29q-20 -24 -45 -52t-47.5 -58.5t-40 -62.5t-22 -61.5t7 -57t46.5 -48.5q15 -9 12.5 -23t-15.5 -26t-31.5 -18t-34.5 0q-47 17 -67 48.5t-20 71.5z" />
<glyph unicode="&#x2019;" horiz-adv-x="453" d="M263.5 945.5q-3.5 13.5 10.5 29.5q20 23 45.5 51.5t48 59t39.5 62t21.5 61.5t-7 57t-46.5 49q-15 9 -12.5 23t15.5 26t31.5 18t34.5 0q47 -17 67 -48.5t20 -71t-16.5 -84.5t-42.5 -88t-58 -81t-62 -65q-19 -17 -38.5 -20.5t-33 2.5t-17 19.5z" />
<glyph unicode="&#x201a;" horiz-adv-x="420" d="M-2 -231.5q-3 13.5 12 30.5q19 22 43.5 50t47 58.5t39 62t21 61.5t-7.5 57.5t-47 48.5q-14 9 -10.5 23t16.5 25.5t31.5 18t34.5 1.5q47 -17 67 -48.5t20 -71.5t-16.5 -84.5t-42.5 -87.5t-58 -81.5t-62 -64.5q-20 -17 -40 -20.5t-32.5 2.5t-15.5 19.5z" />
<glyph unicode="&#x201c;" horiz-adv-x="698" d="M288 1046q0 40 16.5 85t42.5 88t57 81t61 64q20 17 40 20t33.5 -3t17 -19t-10.5 -29q-20 -24 -45 -52t-47.5 -58.5t-40 -62.5t-22 -61.5t7 -57t46.5 -48.5q15 -9 12.5 -23t-15.5 -26t-31.5 -18t-34.5 0q-47 17 -67 48.5t-20 71.5zM564.5 1046q0.5 40 17.5 85t43 88 t57.5 81t62.5 64q19 17 39 20t32.5 -3t15.5 -19t-11 -29q-20 -24 -44.5 -52t-47 -58.5t-39.5 -62t-21 -61.5t7.5 -57t46.5 -49q15 -8 11.5 -22t-16.5 -26t-32 -18.5t-35 -0.5q-47 17 -67 48.5t-19.5 71.5z" />
<glyph unicode="&#x201d;" horiz-adv-x="698" d="M263.5 945.5q-3.5 13.5 10.5 29.5q20 23 45.5 51.5t48 59t39.5 62t21.5 61.5t-7 57t-46.5 49q-15 9 -12.5 23t15.5 26t31.5 18t34.5 0q47 -17 67 -48.5t20 -71t-16.5 -84.5t-42.5 -88t-58 -81t-62 -65q-19 -17 -38.5 -20.5t-33 2.5t-17 19.5zM541.5 945.5 q-3.5 13.5 9.5 29.5q20 23 45.5 51.5t48 59t39.5 62t21.5 61.5t-7.5 57t-47 49q-15 9 -12 23t16 26t32 18t36 0q47 -16 66.5 -47.5t19.5 -71.5t-17 -85t-42.5 -88t-57 -81.5t-61.5 -64.5q-20 -17 -40 -20.5t-33 2.5t-16.5 19.5z" />
<glyph unicode="&#x201e;" horiz-adv-x="698" d="M-2 -231.5q-3 13.5 12 30.5q19 22 43.5 50t47 58.5t39 62t21 61.5t-7.5 57.5t-47 48.5q-14 9 -10.5 23t16.5 25.5t31.5 18t34.5 1.5q47 -17 67 -48.5t20 -71.5t-16.5 -84.5t-42.5 -87.5t-58 -81.5t-62 -64.5q-20 -17 -40 -20.5t-32.5 2.5t-15.5 19.5zM274.5 -231.5 q-2.5 13.5 12.5 30.5q20 23 44.5 51t47 58t39.5 61.5t21 61.5t-7.5 57t-46.5 49q-15 9 -11.5 23t16 25.5t31.5 18t36 1.5q46 -17 65.5 -48.5t19 -71.5t-17 -84.5t-42.5 -87.5t-58 -81.5t-62 -64.5q-20 -17 -39.5 -20.5t-32.5 2.5t-15.5 19.5z" />
<glyph unicode="&#x2022;" horiz-adv-x="645" d="M183 563.5q0 37.5 15 73.5t44 65t65 43.5t73.5 14.5t74 -14.5t65.5 -43.5t43.5 -65t14.5 -73.5t-14.5 -74t-43.5 -65.5t-65.5 -43t-74.5 -14t-74 14t-64 43q-29 29 -44 65.5t-15 74z" />
<glyph unicode="&#x2026;" horiz-adv-x="1436" d="M129 98q0 15 2.5 33t11 36t23.5 33.5t41 26.5q14 0 28 -4t25 -12.5t18 -20.5t7 -28q0 -14 -1.5 -32t-9 -35t-23.5 -31t-44 -19q-9 0 -22.5 1t-26 6t-21 15.5t-8.5 30.5zM621 98q0 15 2.5 33t11 36t23.5 33.5t40 26.5q14 0 28 -4t25 -12.5t18 -20.5t7 -28q0 -14 -1.5 -32 t-9 -35t-23.5 -31t-44 -19q-9 0 -22 1t-25.5 6t-21 15.5t-8.5 30.5zM1112 98q0 15 2.5 33t11 36t23.5 33.5t41 26.5q14 0 28 -4t25 -12.5t18 -20.5t7 -28q0 -14 -1.5 -32t-9 -35t-23.5 -31t-44 -19q-9 0 -22.5 1t-26 6t-21 15.5t-8.5 30.5z" />
<glyph unicode="&#x202f;" horiz-adv-x="376" />
<glyph unicode="&#x2039;" horiz-adv-x="412" d="M219 449q3 16 17.5 39t36.5 50t50 55.5t56.5 56t56.5 51t51 40.5q12 9 26.5 5t25.5 -13.5t14 -22.5t-8 -22q-35 -29 -75 -65t-74.5 -71.5t-58 -64.5t-24.5 -43q-2 -18 10.5 -48.5t33.5 -68t47.5 -78.5t52.5 -79q6 -9 -1.5 -20.5t-21 -20t-28 -9.5t-23.5 11 q-24 34 -52.5 79t-53.5 90t-41.5 84.5t-16.5 64.5z" />
<glyph unicode="&#x203a;" horiz-adv-x="412" d="M198 168.5q-4 12.5 7 21.5q34 29 74.5 65.5t75 71t58 63.5t25.5 44q1 17 -12 47.5t-33.5 68t-46 79t-49.5 80.5q-8 8 -0.5 19.5t21 19t29 8.5t24.5 -11q24 -34 52.5 -78t52.5 -88.5t40 -85t16 -65.5q-5 -24 -34 -63t-69.5 -81.5t-84.5 -82t-78 -64.5q-11 -8 -26 -4.5 t-26.5 13.5t-15.5 22.5z" />
<glyph unicode="&#x205f;" horiz-adv-x="470" />
<glyph unicode="&#x20ac;" horiz-adv-x="1352" d="M51 532v127h170q-2 17 -2 34v34q0 20 1 41t3 41h-172v127h191q23 110 71 205t119.5 165.5t165.5 111t209 40.5q75 0 142 -18.5t124 -52.5t105 -81t86 -104l-125 -63q-62 94 -146 143t-186 49q-75 0 -142 -27t-121.5 -78t-95 -124.5t-61.5 -165.5h688v-127h-708 q-2 -20 -3.5 -41t-1.5 -41q0 -17 0.5 -34t2.5 -34h608v-127h-590q21 -98 61.5 -178t96 -136.5t123.5 -87t143 -30.5q116 0 208 63.5t154 182.5l131 -51q-36 -70 -85.5 -129t-112 -102t-136.5 -67t-159 -24q-117 0 -213 44.5t-168 121t-119.5 178t-68.5 215.5h-187z" />
<glyph unicode="&#x2122;" horiz-adv-x="1354" d="M343.5 1436.5q-2.5 14.5 6.5 28t33 16.5l97 13q53 7 93 13q4 16 6 29.5t5 26.5q3 15 16 24.5t27 10.5t25.5 -7.5t11.5 -29.5q0 -11 -2.5 -20.5t-4.5 -20.5q19 2 42 5.5t47.5 7.5t47.5 8t42 9q19 4 32.5 -5t17 -23t-5 -28t-32.5 -19q-47 -10 -103.5 -19.5t-101.5 -17.5 q-5 -31 -12.5 -78t-16.5 -103.5t-18.5 -118.5t-19 -123.5t-19 -119t-16.5 -104.5q-3 -17 -17.5 -26.5t-29.5 -8.5t-26 12.5t-7 36.5q12 69 26.5 157t28 175.5t25.5 164.5t20 125q-19 -3 -41 -6.5t-44.5 -6.5t-44.5 -6t-40 -5q-20 -2 -32.5 8.5t-15 25zM720 783q-5 16 7 34 q15 27 32.5 67.5t35.5 87t35 94t32 89.5q11 32 26.5 77.5t31.5 94.5t31 96t24 82q5 22 19 32.5t28 10.5t24 -10.5t7 -30.5q-5 -41 1 -111t21 -188q8 -57 13 -87.5t10 -49.5q5 -17 8.5 -29t9.5 -32q5 -19 8 -19.5t13 19.5q24 43 51 93t53 107q14 31 30 66t32.5 72.5t33 75.5 t31.5 75q4 12 19.5 20t32 9t29.5 -6.5t13 -28.5q2 -82 7.5 -167.5t11.5 -176.5q3 -41 8.5 -81t12 -75.5t14 -65t14.5 -48.5q3 -9 12 -9q20 0 28 -15t3 -32q-2 -8 -7 -16t-12.5 -14t-18 -8.5t-22.5 -0.5q-21 3 -35 20.5t-22 37.5q-8 24 -16 60.5t-15 77.5t-12.5 83.5 t-9.5 77.5q-6 68 -9 117t-5 94q-19 -41 -39 -84.5t-35 -77.5q-16 -35 -33 -70t-34.5 -68t-35 -62t-34.5 -52q-34 -50 -71.5 -47.5t-57.5 65.5q-25 81 -39.5 163t-22.5 163q-9 -32 -20 -64.5t-27 -78.5q-17 -47 -34.5 -95.5t-36 -95t-38 -90t-40.5 -80.5q-10 -19 -25.5 -22.5 t-28 4t-17.5 23.5z" />
<glyph unicode="&#xe000;" horiz-adv-x="1020" d="M0 1020h1020v-1020h-1020v1020z" />
<glyph unicode="&#xfb01;" horiz-adv-x="1114" d="M-32 -419.5q0 131.5 22 267.5q6 37 11 68.5t11 63t14.5 64.5t20.5 73q-14 16 -17.5 33t1 32t15 26.5t24.5 16.5q29 92 67.5 188.5t83 192t92.5 187t95.5 174t93 152.5t84.5 122q14 19 33 41.5t36 36.5q8 5 18 9.5t19 6.5q10 2 18 -0.5t17 -11.5q15 -12 18.5 -29.5 t1.5 -37t-8 -39.5t-10 -35q-11 -35 -42.5 -48t-65.5 3q-29 -40 -67 -99t-80 -132t-86 -156.5t-85 -171.5t-77.5 -178.5t-63.5 -176.5q19 -2 44.5 0.5t55 8.5t61.5 15.5t64 22.5q45 18 101 49.5t111 71.5t102 85.5t75 92.5q2 3 3.5 6t4.5 5l21 30q5 10 9.5 18.5t6.5 16.5 q5 17 11 28t18 23q18 16 38 18t36 -7t23.5 -27.5t-1.5 -42.5q-3 -19 -18 -37q-6 -11 -14 -21t-17 -22q-19 -37 -34.5 -85t-26 -97.5t-16 -95t-3.5 -76.5q3 -36 11.5 -60t24 -34t38.5 -4t55 30q38 27 89 79t103.5 114t99.5 126t77 115q12 18 28.5 20.5t30 -5.5t19 -24 t-6.5 -34q-28 -50 -73.5 -116t-99.5 -132.5t-112.5 -126.5t-113.5 -98q-51 -35 -97.5 -45t-82.5 7.5t-58.5 62t-25.5 117.5q-3 43 2.5 99t19.5 112q-40 -39 -82.5 -71t-84 -57t-80.5 -44t-70 -33q-23 -10 -50.5 -20t-56.5 -18t-59.5 -13t-58.5 -5q-23 0 -27 -16t8 -29 q97 -117 143 -226.5t56.5 -206t-8.5 -179.5t-53 -147q-39 -75 -90 -113.5t-99.5 -39.5t-87.5 37t-55 116q-22 108 -22 239.5zM56 -391q-2 -58 0.5 -115.5t11.5 -111.5q8 -47 27 -72.5t44 -27t53 23t54 78.5q41 88 46.5 176.5t-15.5 173t-64 162t-100 143.5q-6 -22 -12 -48.5 t-10.5 -53.5t-8.5 -53t-6 -48q-6 -54 -12 -111.5t-8 -115.5zM932 971q0 32 12 61t47 66q19 20 41.5 21.5t40.5 -8.5t28 -28t5 -36q-3 -13 -9 -24t-14 -24q-6 -11 -12.5 -22.5t-9.5 -22.5q-17 -40 -39 -50t-42 -2t-34 28t-14 41z" />
<glyph unicode="&#xfb02;" horiz-adv-x="1219" d="M-32 -419.5q0 131.5 22 267.5q6 37 11 68.5t11 63t14.5 64.5t20.5 73q-14 16 -17.5 33t1 32t15 26.5t24.5 16.5q29 92 67.5 188.5t83 192t92.5 187t95.5 174t93 152.5t84.5 122q14 19 33 41.5t36 36.5q8 5 18 9.5t19 6.5q10 2 18 -0.5t17 -11.5q15 -12 18.5 -29.5 t1.5 -37t-8 -39.5t-10 -35q-11 -35 -42.5 -48t-65.5 3q-29 -40 -67 -99t-80 -132t-86 -156.5t-85 -171.5t-77.5 -178.5t-63.5 -176.5q19 -2 44.5 0.5t55 8.5t61.5 15.5t64 22.5q45 18 101 49.5t111 71.5t102 85.5t75 92.5l1 1q0 1 0.5 1.5t0.5 1.5q9 95 33 194t59 196 t79.5 188.5t95 171.5t105 145t110.5 109q83 65 154.5 72t113.5 -39q21 -23 32 -58t9.5 -82.5t-16.5 -106t-46 -128.5q-38 -84 -100.5 -173.5t-145 -179t-182.5 -175.5t-213 -162q-10 -46 -11.5 -95t2 -94t10 -83t12.5 -62q9 -38 26.5 -59.5t40.5 -28.5t49.5 -1t53.5 23 q60 37 115.5 92.5t102.5 115.5t84.5 117.5t61.5 98.5q12 20 28 23t29 -5.5t19 -25.5t-4 -35q-16 -29 -39 -67.5t-52 -81.5t-63 -88t-72.5 -87t-81 -78t-87.5 -61q-109 -60 -186 -28.5t-111 145.5q-13 42 -18 87t-5 93v70q-42 -45 -88.5 -80.5t-91.5 -64t-86.5 -49 t-75.5 -35.5q-23 -10 -50.5 -20t-56.5 -18t-59.5 -13t-58.5 -5q-23 0 -27 -16t8 -29q97 -117 143 -226.5t56.5 -206t-8.5 -179.5t-53 -147q-39 -75 -90 -113.5t-99.5 -39.5t-87.5 37t-55 116q-22 108 -22 239.5zM56 -391q-2 -58 0.5 -115.5t11.5 -111.5q8 -47 27 -72.5 t44 -27t53 23t54 78.5q41 88 46.5 176.5t-15.5 173t-64 162t-100 143.5q-6 -22 -12 -48.5t-10.5 -53.5t-8.5 -53t-6 -48q-6 -54 -12 -111.5t-8 -115.5zM874 643q105 77 192 157t155.5 159.5t119 157t84.5 149.5q50 103 57 170.5t-16 99.5q-21 31 -64.5 24t-94.5 -51 q-60 -53 -122 -135t-119 -191t-106.5 -244.5t-85.5 -295.5z" />
<glyph unicode="&#xfb03;" horiz-adv-x="1695" d="M1303 195q-1 12 -1 25q0 22 2 48q4 40 11.5 82t19.5 82.5t28 73.5q-14 5 -16.5 20t14.5 43q5 11 11.5 20.5t12.5 20.5q5 10 10 18.5t7 16.5q5 17 10.5 28t17.5 23q18 16 38.5 18t36 -7t23 -27.5t-0.5 -42.5q-3 -18 -19 -37q-6 -11 -13.5 -21t-17.5 -22q-19 -37 -34.5 -85 t-26.5 -98q-10 -48 -15 -94q-4 -32 -4 -58q0 -10 1 -19q3 -36 11.5 -60t24 -34t38.5 -4t55 30q25 18 56.5 48t65.5 66.5t69.5 78.5t68 84.5t60.5 82.5t48 74q12 18 29 20.5t30.5 -5.5t19.5 -24q2 -5 1 -10q0 -11 -8 -24q-19 -33 -46 -74t-59 -85t-68.5 -89.5t-74.5 -87 t-76.5 -77t-74.5 -60.5q-52 -35 -98 -45q-17 -4 -33 -4q-27 0 -50 12q-36 18 -58.5 62t-25.5 117zM1512 971q0 32 12.5 61t47.5 66q20 20 42 22h5q19 0 35 -9q18 -10 28 -28q6 -11 6 -23q0 -7 -2 -13q-3 -13 -8.5 -24t-13.5 -24q-6 -11 -13 -22.5t-10 -22.5q-17 -40 -39 -50 q-12 -6 -24 -6q-9 0 -18 4q-20 8 -34 28t-14 41zM548 -419.5q0 131.5 22 267.5q6 37 11 68.5t11 63t14.5 64.5t20.5 73q-14 16 -17.5 33t1 32t15 26.5t24.5 16.5q29 92 67.5 188.5t83 192t92.5 187t95.5 174t93 152.5t84.5 122q14 19 33 41.5t36 36.5q8 5 18 9.5t19 6.5 q4 1 8 1q6 0 10 -2q8 -2 17 -11q15 -12 18.5 -29.5t1.5 -37t-8 -39.5t-10 -35q-11 -35 -43 -48q-14 -6 -28 -6q-18 0 -37 9q-29 -40 -67 -99t-80 -132t-86 -156.5t-85 -171.5t-77.5 -178.5t-63.5 -176.5q19 -2 44.5 0.5t55 8.5t61.5 15.5t64 22.5q45 18 101 49.5t111 71.5 t102 85.5t75 92.5q9 15 26 17t31 -5.5t21 -22.5q2 -5 2 -10q0 -10 -8 -22q-44 -67 -99 -119t-112.5 -92t-112 -68t-96.5 -46q-23 -10 -50.5 -20t-56.5 -18t-59.5 -13t-58.5 -5q-23 0 -27 -16t8 -29q97 -117 143 -226.5t57 -205.5q3 -35 3 -67q0 -60 -12 -113 q-19 -83 -53 -147q-39 -75 -90 -113.5t-100 -39.5h-2q-47 0 -85 37q-39 38 -55 116q-22 108 -22 239.5zM636 -391q-1 -26 -1 -51q0 -33 1 -64q3 -58 12 -112q8 -47 27 -72.5t44 -27.5h3q24 0 50 24q28 24 54 78q41 88 46 176q2 19 2 37q0 70 -17 137q-21 84 -64 161.5 t-100 143.5q-6 -22 -12 -48.5t-10.5 -53.5t-8.5 -53t-6 -48q-6 -54 -12 -111.5t-8 -115.5zM-32 -419.5q0 131.5 22 267.5q6 37 11 68.5t11 63t14.5 64.5t20.5 73q-14 16 -17.5 33t1 32t15 26.5t24.5 16.5q29 92 67.5 188.5t83 192t92.5 187t95.5 174t93 152.5t84.5 122 q14 19 33 41.5t36 36.5q8 5 18 9.5t19 6.5q4 1 8 1q6 0 10 -2q8 -2 17 -11q15 -12 18.5 -29.5t1.5 -37t-8 -39.5t-10 -35q-11 -35 -43 -48q-14 -6 -28 -6q-18 0 -37 9q-29 -40 -67 -99t-80 -132t-86 -156.5t-85 -171.5t-77.5 -178.5t-63.5 -176.5q19 -2 44.5 0.5t55 8.5 t61.5 15.5t64 22.5q45 18 101 49.5t111 71.5t102 85.5t75 92.5q9 15 26 17t31 -5.5t21 -22.5q2 -5 2 -10q0 -10 -8 -22q-44 -67 -99 -119t-112.5 -92t-112 -68t-96.5 -46q-23 -10 -50.5 -20t-56.5 -18t-59.5 -13t-58.5 -5q-23 0 -27 -16t8 -29q97 -117 143 -226.5t57 -205.5 q3 -35 3 -67q0 -60 -12 -113q-19 -83 -53 -147q-39 -75 -90 -113.5t-100 -39.5h-2q-47 0 -85 37q-39 38 -55 116q-22 108 -22 239.5zM56 -391q-1 -26 -1 -51q0 -33 1 -64q3 -58 12 -112q8 -47 27 -72.5t44 -27.5h3q24 0 50 24q28 24 54 78q41 88 46 176q2 19 2 37 q0 70 -17 137q-21 84 -64 161.5t-100 143.5q-6 -22 -12 -48.5t-10.5 -53.5t-8.5 -53t-6 -48q-6 -54 -12 -111.5t-8 -115.5z" />
<glyph unicode="&#xfb04;" horiz-adv-x="1799" d="M1350 360q0 48 2.5 93t4.5 86q6 97 28.5 199t57 202t80 195.5t97 178.5t107.5 150.5t113 112.5q84 65 155 72q9 1 18 1q58 0 95 -40q20 -23 32 -58q10 -31 10 -72v-10q-2 -48 -16.5 -106.5t-45.5 -128.5q-38 -84 -100.5 -173.5t-145 -179t-182.5 -175.5t-213 -162 q-9 -46 -11 -95q0 -16 -1 -32q0 -32 2 -62q3 -45 9.5 -83t12.5 -62q9 -38 27 -59.5t40.5 -28.5t49 -1t53.5 23q61 37 116 92.5t102.5 115.5t84.5 117.5t62 98.5q11 20 27.5 23t29.5 -5.5t18.5 -25.5t-4.5 -35q-16 -29 -39 -67.5t-51.5 -81.5t-63 -88t-73 -87t-81 -78 t-87.5 -61q-71 -39 -129 -39q-31 0 -57 10q-78 32 -111 146q-12 42 -17.5 87t-5.5 93zM1455 643q105 77 191.5 157t155 159.5t119.5 157t85 149.5q48 102 56 170q2 17 2 32q0 44 -17 68q-18 25 -50 25q-7 0 -15 -1q-44 -7 -95 -51q-60 -53 -122 -135t-119 -191 t-106.5 -244.5t-84.5 -295.5zM548 -419.5q0 131.5 22 267.5q6 37 11 68.5t11 63t14.5 64.5t20.5 73q-14 16 -17.5 33t1 32t15 26.5t24.5 16.5q29 92 67.5 188.5t83 192t92.5 187t95.5 174t93 152.5t84.5 122q14 19 33 41.5t36 36.5q8 5 18 9.5t19 6.5q4 1 8 1q6 0 10 -2 q8 -2 17 -11q15 -12 18.5 -29.5t1.5 -37t-8 -39.5t-10 -35q-11 -35 -43 -48q-14 -6 -28 -6q-18 0 -37 9q-29 -40 -67 -99t-80 -132t-86 -156.5t-85 -171.5t-77.5 -178.5t-63.5 -176.5q19 -2 44.5 0.5t55 8.5t61.5 15.5t64 22.5q45 18 101 49.5t111 71.5t102 85.5t75 92.5 q9 15 26 17t31 -5.5t21 -22.5q2 -5 2 -10q0 -10 -8 -22q-44 -67 -99 -119t-112.5 -92t-112 -68t-96.5 -46q-23 -10 -50.5 -20t-56.5 -18t-59.5 -13t-58.5 -5q-23 0 -27 -16t8 -29q97 -117 143 -226.5t57 -205.5q3 -35 3 -67q0 -60 -12 -113q-19 -83 -53 -147 q-39 -75 -90 -113.5t-100 -39.5h-2q-47 0 -85 37q-39 38 -55 116q-22 108 -22 239.5zM636 -391q-1 -26 -1 -51q0 -33 1 -64q3 -58 12 -112q8 -47 27 -72.5t44 -27.5h3q24 0 50 24q28 24 54 78q41 88 46 176q2 19 2 37q0 70 -17 137q-21 84 -64 161.5t-100 143.5 q-6 -22 -12 -48.5t-10.5 -53.5t-8.5 -53t-6 -48q-6 -54 -12 -111.5t-8 -115.5zM-32 -419.5q0 131.5 22 267.5q6 37 11 68.5t11 63t14.5 64.5t20.5 73q-14 16 -17.5 33t1 32t15 26.5t24.5 16.5q29 92 67.5 188.5t83 192t92.5 187t95.5 174t93 152.5t84.5 122q14 19 33 41.5 t36 36.5q8 5 18 9.5t19 6.5q4 1 8 1q6 0 10 -2q8 -2 17 -11q15 -12 18.5 -29.5t1.5 -37t-8 -39.5t-10 -35q-11 -35 -43 -48q-14 -6 -28 -6q-18 0 -37 9q-29 -40 -67 -99t-80 -132t-86 -156.5t-85 -171.5t-77.5 -178.5t-63.5 -176.5q19 -2 44.5 0.5t55 8.5t61.5 15.5t64 22.5 q45 18 101 49.5t111 71.5t102 85.5t75 92.5q9 15 26 17t31 -5.5t21 -22.5q2 -5 2 -10q0 -10 -8 -22q-44 -67 -99 -119t-112.5 -92t-112 -68t-96.5 -46q-23 -10 -50.5 -20t-56.5 -18t-59.5 -13t-58.5 -5q-23 0 -27 -16t8 -29q97 -117 143 -226.5t57 -205.5q3 -35 3 -67 q0 -60 -12 -113q-19 -83 -53 -147q-39 -75 -90 -113.5t-100 -39.5h-2q-47 0 -85 37q-39 38 -55 116q-22 108 -22 239.5zM56 -391q-1 -26 -1 -51q0 -33 1 -64q3 -58 12 -112q8 -47 27 -72.5t44 -27.5h3q24 0 50 24q28 24 54 78q41 88 46 176q2 19 2 37q0 70 -17 137 q-21 84 -64 161.5t-100 143.5q-6 -22 -12 -48.5t-10.5 -53.5t-8.5 -53t-6 -48q-6 -54 -12 -111.5t-8 -115.5z" />
</font>
</defs>
</svg>
